<?xml version="1.0" encoding="utf-8"?>
<!-- Generator: Adobe Illustrator 19.0.0, SVG Export Plug-In . SVG Version: 6.00 Build 0)  -->
<svg version="1.1" id="Layer_1" xmlns="http://www.w3.org/2000/svg" xmlns:xlink="http://www.w3.org/1999/xlink" x="0px" y="0px"
	 viewBox="-184 42 591 477" style="enable-background:new -184 42 591 477;" xml:space="preserve">
<style type="text/css">
	.st0{display:none;fill:none;stroke:#8E8E8E;stroke-width:2;stroke-miterlimit:10;}
	.st1{fill:#FED44B;}
	.st2{fill:#4079A8;}
	.st3{fill:#BA9DA9;}
	.st4{fill:#FEE087;}
	.st5{fill:#EDEDED;}
	.st6{fill:#D8D8D8;}
	.st7{fill:#EFEFEF;}
	.st8{fill:#FECB34;}
	.st9{fill:#989898;}
	.st10{fill:#FEFEFE;}
	.st11{fill:#81868F;}
	.st12{fill:#FCFCFC;}
	.st13{fill:#BABABA;}
	.st14{fill:#D0D0D0;}
	.st15{fill:#EDCB85;}
	.st16{fill:#EDC57E;}
	.st17{fill:#BEE7ED;}
	.st18{fill:#DF7E55;}
	.st19{fill:#5F618D;}
	.st20{fill:#E3FEFB;}
	.st21{fill:#3A498B;}
	.st22{fill:#C7D2DE;}
	.st23{fill:#FAFEF6;}
	.st24{fill:#3C3050;}
	.st25{fill:#DADA8F;}
	.st26{fill:#D63727;}
	.st27{fill:#D7392A;}
	.st28{fill:#F7CC7F;}
	.st29{fill:#FEDA8F;}
	.st30{fill:#FED387;}
	.st31{fill:#3A3A8F;}
	.st32{fill:#003A8F;}
	.st33{fill:#8F3A00;}
	.st34{fill:#3A6B9C;}
	.st35{fill:#356799;}
	.st36{fill:#3E6E9E;}
	.st37{fill:#3B6C9D;}
	.st38{fill:#40709F;}
	.st39{fill:#4472A1;}
	.st40{fill:#346799;}
	.st41{fill:#35679A;}
	.st42{fill:#36689A;}
	.st43{fill:#FAEFEC;}
	.st44{fill:#E59176;}
	.st45{fill:#E18C64;}
	.st46{fill:#E39172;}
	.st47{fill:#F6F8FA;}
	.st48{fill:#FBFCFD;}
	.st49{fill:#FCFDFD;}
	.st50{fill:#FAFBFC;}
	.st51{fill:#B5C7D9;}
	.st52{fill:#F7F8FA;}
	.st53{fill:#C7D5E2;}
	.st54{fill:#FFFFFF;}
	.st55{fill:#1C8682;}
	.st56{fill:#336698;}
	.st57{fill:#4A77A4;}
	.st58{fill:#4976A3;}
	.st59{fill:#4C79A5;}
	.st60{fill:#000096;}
	.st61{fill:none;stroke:#8E8E8E;stroke-width:2;stroke-miterlimit:10;}
	.st62{fill:#4881FF;filter:url(#black-glow);}
	.st63{opacity:0.387;}
	.st64{fill:#C1C1C1;}
	.st65{fill:none;stroke:#1A1A1A;stroke-width:2.06;stroke-linecap:round;}
	.st66{fill:#242424;}
	.st67{fill:none;stroke:#002B34;stroke-width:2.06;stroke-linecap:round;}
	.st68{fill:#989898;stroke:#1A1A1A;stroke-width:0.99;stroke-linecap:round;}
	.st69{fill:#333333;stroke:#232323;stroke-width:4.618;stroke-linecap:round;}
	.st70{fill:#FFDD55;stroke:#8C4F27;stroke-width:0.825;stroke-linecap:round;stroke-linejoin:round;}
	.st71{fill:none;stroke:#8C4F27;stroke-width:0.825;}
	.st72{fill:#CDD353;}
	.st73{fill:none;stroke:#002B34;stroke-width:1.386;stroke-linecap:round;stroke-linejoin:round;}
	.st74{fill:#FFFFFF;fill-opacity:0.482;}
</style>
<filter  id="black-glow">
	
		<feColorMatrix  type="matrix" values="0 0 0 0   0                          0 0 0 0   0                          0 0 0 0   0                          0 0 0 0.7 0">
		</feColorMatrix>
	<feGaussianBlur  stdDeviation="10" result="coloredBlur"></feGaussianBlur>
	<feMerge>
		<feMergeNode  in="coloredBlur"></feMergeNode>
		<feMergeNode  in="SourceGraphic"></feMergeNode>
	</feMerge>
</filter>
<g id="Layer_1_1_">
	<path id="XMLID_8_" class="st0" d="M126,435.2L-216,527V27l342,75.7V435.2z"/>
	<g id="XMLID_2871_">
		<path id="XMLID_650_" class="st1" d="M-114.8,77.7c2.1,0.3,3,1.7,3.1,4.1c0.1,2.6-0.9,3.7-3.2,3.2c-1.3,0.4-1.5,1.8-1.7,3.1
			c-2.6-0.1-4.9-0.8-4.8-4.8c-1.2-2.6-0.4-3.9,1.7-3.9C-117.8,79.4-116.3,78.5-114.8,77.7z"/>
	</g>
	<g id="XMLID_2870_">
		<path id="XMLID_640_" class="st2" d="M-114.8,77.7c0,3-1.5,3.6-3.8,2.8s-3.1,0.3-2.8,2.8c-2.1,0.3-2.9-1.1-3.1-3.3
			c-0.2-2.7,0.6-4.3,3.2-3.7c1.4-0.3,1.7-1.6,1.7-3.1C-117.2,73.3-114.9,73.7-114.8,77.7z"/>
	</g>
	<g id="XMLID_2866_">
		<path id="XMLID_201_" class="st3" d="M-113.8,85.5v-7.6C-111.8,81.3-113.7,83.3-113.8,85.5z"/>
	</g>
	<g id="XMLID_2865_">
		<path id="XMLID_190_" class="st4" d="M-123.6,86.9c-0.4-1.8-2-4.8,1.7-3.2C-122.2,84.9-122.3,86.4-123.6,86.9z"/>
	</g>
	<g>
		<g id="XMLID_3111_">
			<path id="XMLID_1541_" class="st5" d="M-134.2,490.7V87.2c0.8-0.7,1.9-0.6,3-0.5c1.1,0.2,2.1,0.4,3.2,0.6
				C-0.1,112.8,96.5,132,172.1,147.1c0.9,0.2,1.9,0,2.8,1.3v268.7c-0.4,0.5-0.9,0.4-1.4,0.5C97.1,435.8-0.8,459.2-131,490.2
				C-132.1,490.5-133.2,491.1-134.2,490.7z"/>
		</g>
		<g id="XMLID_3110_">
			<path id="XMLID_1537_" class="st6" d="M-129.6,484.2V166.1c0-5.4-0.4-4.8,4.2-4.3c14.3,1.7,28.2,3.4,41.7,4.9
				c2.2,0.2,2.9,1.1,2.7,3.7c-0.2,3,0,6.1,0,9.2c0,1.5,0.4,2.2,1.7,2.2c0.8,0,1.5,0.2,2.3,0.2c102.9,10.5,184,18.7,249.5,25.4
				c0.4,0.8,0.3,1.7,0.3,2.6v201.2c0,2.8,0,2.8-1.6,3.2c-75.1,17.5-171,39.8-297.6,69.2C-127.5,484.1-128.6,484.6-129.6,484.2
				L-129.6,484.2z"/>
		</g>
		<g id="XMLID_3073_">
			<path id="XMLID_1533_" class="st7" d="M-129.6,484.2C-1.5,454.5,95.3,432,171,414.5c1.2-0.3,1.5-0.8,1.5-3v-204
				c0.4,0.1,0.5,0.5,0.5,1.1v202.5c0,3.6,0.2,3.2-1.9,3.7C96,432.3,0.3,454.6-126,484.1C-127.2,484.3-128.5,485.2-129.6,484.2z"/>
		</g>
		<g id="XMLID_3071_">
			<path id="XMLID_1529_" class="st8" d="M145.6,164.8c0,8.3-4.1,14.5-9.2,13.8c-5.2-0.7-9.5-8.2-9.4-16.8c0-8.6,4.3-14.7,9.5-13.7
				C141.5,148.9,145.6,156.4,145.6,164.8z"/>
		</g>
		<g id="XMLID_3015_">
			<path id="XMLID_1525_" class="st9" d="M158.3,137.8c0.3,2.2-0.4,2.1-1.4,2c-1.2-0.1-1.3-1-1.3-2.7c-0.1-2.1,0.4-2.2,1.5-2
				S158.6,136.1,158.3,137.8L158.3,137.8z"/>
		</g>
		<g id="XMLID_3014_">
			<path id="XMLID_1521_" class="st9" d="M143.3,134.8c0.8,0.2,1.6,0.3,2.4,0.5v0.2c-0.8-0.2-1.6-0.3-2.4-0.5V134.8z"/>
		</g>
		<g id="XMLID_3013_">
			<path id="XMLID_1517_" class="st10" d="M51.1,441.7c-50.7,11.8-108.9,25.2-176.4,40.9c-3.7,0.9-3.7,0.8-3.7-3.5V166.5
				c0-4.4,0-4.4,3.7-3.9c14.1,1.7,27.7,3.3,40.9,4.8c2.2,0.2,3.2,0.9,2.9,3.8c-0.2,2.8,0,5.7-0.1,8.6c-0.1,2.1,0.6,2.9,2.2,2.9
				c0.7,0,1.4,0.1,2.1,0.2c101.9,10.3,182.4,18.4,247.6,25c2.1,0.2,1.9-0.2,1.9,3.4v199.2c0,3.7,0.2,3.2-1.9,3.7
				C135.1,422.3,95.6,431.4,51.1,441.7L51.1,441.7z"/>
		</g>
		<g id="XMLID_3010_">
			<path id="XMLID_1513_" class="st10" d="M128.4,161.6c0.1-7.5,3.6-12.3,8.3-11.3c4.4,1,7.7,7.2,7.6,14.6
				c-0.1,7.3-3.5,12.2-8.1,11.4C131.6,175.4,128.3,169.2,128.4,161.6z"/>
		</g>
		<g id="XMLID_3009_">
			<path id="XMLID_1509_" class="st10" d="M156.9,135.7c1-0.1,1.2,0.6,1.2,2.1c0,1.4-0.2,1.8-1.1,1.6c-0.9-0.2-1.2-0.7-1.2-2.2
				C155.9,135.9,156,135,156.9,135.7z"/>
		</g>
		<g id="XMLID_3008_">
			<path id="XMLID_1505_" class="st11" d="M51.1,196.2c44.6,4.5,84,8.4,119.3,11.9c1.3,0.1,1.6,0.7,1.6,3v199c0,2.1-0.2,2.8-1.5,3.1
				c-74.8,17.1-170,39.1-295.5,68c-2.8,0.6-3.4,0-3.4-3.2c0.1-98.6,0.1-197.1,0-295.6c0-3.7,1-4.1,3.8-3.9
				C-57.5,185.4,0.5,191.2,51.1,196.2L51.1,196.2z"/>
		</g>
		<g id="XMLID_3004_">
			<path id="XMLID_1501_" class="st12" d="M-91.4,182.7c1,0.1,1.9,0.1,2.9,0.2c107.2,10.7,191.1,19,258.6,25.7
				c1.3,0.1,1.7,0.6,1.7,3v198c0,2.1-0.2,2.9-1.6,3.3c-67.5,15.4-151.6,34.7-258.9,59.3c-0.9,0.2-1.8,0.3-2.6,0.5
				c-0.9-0.9-0.8-2.3-0.9-3.7V189.1C-92.3,186.9-92.8,184.5-91.4,182.7L-91.4,182.7z"/>
		</g>
		<g id="XMLID_3003_">
			<path id="XMLID_1497_" class="st13" d="M174.8,148.4l-309.3-61.2V67l309.3,68V148.4z"/>
		</g>
		<g id="XMLID_3002_">
			<path id="XMLID_1493_" class="st8" d="M32.3,163.9c-7-1-12.7-9.8-12.7-19.8s5.8-16.9,12.8-15.5c6.9,1.3,12.3,10.1,12.3,19.8
				C44.7,157.9,39.2,164.9,32.3,163.9L32.3,163.9z"/>
		</g>
		<g id="XMLID_3001_">
			<path id="XMLID_1489_" class="st8" d="M122.1,161c0,8.6-4.5,14.9-10,14.1c-5.6-0.8-10.1-8.8-10.1-17.7c0-8.7,4.7-15,10.2-13.9
				C117.7,144.5,122.1,152.4,122.1,161z"/>
		</g>
		<g id="XMLID_2998_">
			<path id="XMLID_1485_" class="st8" d="M15.6,143.5c0,10-5.9,17.3-13.4,16.2c-7.6-1.1-13.7-10.4-13.7-20.8
				c0-10.2,6.2-17.4,13.7-16S15.6,133.5,15.6,143.5z"/>
		</g>
		<g id="XMLID_2997_">
			<path id="XMLID_1481_" class="st8" d="M-107.7,102.3c9.7,1.8,17.3,12.4,17.3,23.8s-7.6,19.5-17.3,18.2
				c-9.7-1.4-17.8-12-17.9-23.7C-125.6,108.6-117.6,100.5-107.7,102.3z"/>
		</g>
		<g id="XMLID_2996_">
			<path id="XMLID_1477_" class="st8" d="M50.7,149.3c0-9.6,5.2-16.4,11.7-15.2c6.3,1.1,11.4,9.6,11.4,18.9c0,9.2-5,16-11.3,15.1
				C56,167.3,50.7,158.9,50.7,149.3L50.7,149.3z"/>
		</g>
		<g id="XMLID_2993_">
			<path id="XMLID_1473_" class="st8" d="M-18.6,137.8c0,10.5-6.4,18.1-14.5,17c-8.3-1.1-15.1-10.8-15.1-21.7
				c0-10.7,6.7-18.2,14.9-16.8C-25.1,117.7-18.6,127.3-18.6,137.8L-18.6,137.8z"/>
		</g>
		<g id="XMLID_2992_">
			<path id="XMLID_1469_" class="st8" d="M98.8,157c0.5,7.7-4,15.7-10.5,14.7c-6-0.9-11-9.2-11-18.3c0.1-9.2,5.1-15.7,11-14.5
				C94.3,140.2,98.8,148,98.8,157z"/>
		</g>
		<g id="XMLID_2991_">
			<path id="XMLID_1465_" class="st8" d="M-85.2,127c-0.7-9.9,6.5-19.3,16.3-17.3c8.7,1.7,15.7,11.8,15.8,22.5s-7.1,18.8-15.8,17.6
				C-78.6,148.4-85.9,136.8-85.2,127z"/>
		</g>
		<g id="XMLID_2987_">
			<path id="XMLID_1461_" class="st14" d="M-15.1,119.8v48h-0.2v-48H-15.1z"/>
		</g>
		<g id="XMLID_2986_">
			<path id="XMLID_1457_" class="st15" d="M61.6,175.5v-1.1c0.1-0.6,0.3-0.9,0.8-0.4c0.7,1.2,0.5,2-0.3,2.6
				C61.9,176.2,61.8,175.9,61.6,175.5z"/>
		</g>
		<g id="XMLID_2985_">
			<path id="XMLID_1453_" class="st16" d="M62.8,173.5c0.4,0.1,0.4,0.7,0.6,1.1c0.7,1,0.4,1.6-0.3,2.1h-0.4
				C62.5,175.6,62.5,174.5,62.8,173.5L62.8,173.5z"/>
		</g>
		<g id="XMLID_2984_">
			<path id="XMLID_1449_" class="st17" d="M62.8,173.5v3.2c-0.3,0-0.5-0.1-0.8-0.1c0.4-0.8,0.4-1.7,0.3-2.6
				C62.5,173.8,62.7,173.7,62.8,173.5L62.8,173.5z"/>
		</g>
		<g id="XMLID_2981_">
			<path id="XMLID_1234_" class="st10" d="M32.5,161.3c-6.2-0.9-10.9-8.1-10.9-16.9c0-8.7,4.6-14.4,10.8-13.3
				c6.1,1.1,10.6,8.3,10.6,16.9C42.9,156.4,38.5,162.2,32.5,161.3L32.5,161.3z"/>
		</g>
		<g id="XMLID_2980_">
			<path id="XMLID_1230_" class="st10" d="M112.2,172.8c-4.8-0.7-8.6-7.2-8.6-14.9c0-7.8,3.9-13,8.8-12c4.7,1,8.3,7.5,8.3,15
				C120.6,168.3,116.9,173.5,112.2,172.8L112.2,172.8z"/>
		</g>
		<g id="XMLID_2979_">
			<path id="XMLID_1226_" class="st10" d="M13.6,143.1c0,8.9-4.8,14.9-11.4,13.9c-6.6-1-11.6-8.5-11.6-17.5
				c0-9.2,5.1-15.1,11.8-13.8C8.8,126.9,13.6,134.3,13.6,143.1z"/>
		</g>
		<g id="XMLID_2976_">
			<path id="XMLID_1222_" class="st10" d="M-92.9,125.8c0,10.1-6.3,16.7-14.9,15.4c-8.6-1.3-15.1-10-15.1-20.4
				c0-10.5,6.7-17,15.4-15.3C-99.1,107.1-92.9,115.7-92.9,125.8z"/>
		</g>
		<g id="XMLID_2975_">
			<path id="XMLID_1202_" class="st10" d="M62.4,165.6c-5.6-0.8-9.9-7.7-9.9-16.1c0-8.5,4.3-14,10-12.9c5.6,1.1,9.6,7.9,9.7,16
				C72.2,161,68,166.5,62.4,165.6L62.4,165.6z"/>
		</g>
		<g id="XMLID_2974_">
			<path id="XMLID_1164_" class="st10" d="M-33.2,151.9c-7.3-1.1-12.8-9.1-12.7-18.8c0.1-9.4,5.6-15.4,12.9-14
				c7.2,1.4,12.4,9.3,12.3,18.7C-20.8,147-26.1,153-33.2,151.9z"/>
		</g>
		<g id="XMLID_2970_">
			<path id="XMLID_1160_" class="st10" d="M88.5,141.5c5.1,1,9,7.8,9,15.5c0,7.9-4.1,13.3-9.4,12.3c-5.2-0.9-9.1-7.7-9-15.8
				C79.1,145.6,83.3,140.4,88.5,141.5z"/>
		</g>
		<g id="XMLID_2969_">
			<path id="XMLID_1156_" class="st10" d="M-68.9,146.8c-7.9-1.1-14.2-9.6-14.2-19.5c0-9.7,6.2-16.2,14-14.8
				c7.7,1.4,13.6,9.7,13.7,19.1C-55.3,141.3-61.1,147.8-68.9,146.8z"/>
		</g>
		<g id="XMLID_2968_">
			<path id="XMLID_1152_" class="st18" d="M-89.4,169.4c0.6,0.1,1,0.6,1,1.3c-0.2,0.4-0.3,0.8-0.4,1.3c-0.2,1.7,0.3,3.6-0.4,5.2
				c-1.4,0.8-2.9-0.1-4.3,0.1c-0.4,0.1-0.8,0.2-1.1,0.4c-0.6-0.1-1-0.6-1-1.3c0.2-0.2,0.3-0.5,0.4-0.8c0-0.2,0.1-0.4,0.1-0.6
				c0-6.6,0-5.4,4.7-5.1C-90.1,169.7-89.7,169.6-89.4,169.4L-89.4,169.4z"/>
		</g>
		<g id="XMLID_2967_">
			<path id="XMLID_1148_" class="st19" d="M-109.3,174.2c-0.8,0.3-1.9,1.8-2.3-0.8c-0.4-0.8-0.4-1.5,0-2.2c0.7-0.5,1-1.4,1.4-2.3
				c0.8,0.8,0,2.1,0.9,2.7C-108.7,172.6-108.7,173.4-109.3,174.2z"/>
		</g>
		<g id="XMLID_2963_">
			<path id="XMLID_1144_" class="st20" d="M-112,173.3l-1.2,1.2c-0.9-1.2-0.5-3-1.6-4.1c0.1-1.5,1-1.2,1.8-1c1,0.2,0.9,1.2,1,2.1
				C-111.7,172-111.7,172.7-112,173.3z"/>
		</g>
		<g id="XMLID_2961_">
			<path id="XMLID_1140_" class="st21" d="M-114.8,170.3c2.8,0.4,1.2,2.7,1.6,4.1C-116.3,174.2-114.4,171.8-114.8,170.3z"/>
		</g>
		<g id="XMLID_2956_">
			<path id="XMLID_1136_" class="st22" d="M-106,172.7c0.8-0.5,1.7-1,2.1,0.6c0.3,1.4-0.4,2.1-1.6,2.1c-0.3-0.6-0.8-1.2-0.8-1.9
				C-106.3,173.1-106.2,172.8-106,172.7L-106,172.7z"/>
		</g>
		<g id="XMLID_2955_">
			<path id="XMLID_1132_" class="st23" d="M-106,173.3c0.2,0.7,0.3,1.4,0.5,2c-1-0.9-2.2,0.2-3.2-0.7
				C-108.8,172.3-108.5,172.1-106,173.3z"/>
		</g>
		<g id="XMLID_2954_">
			<path id="XMLID_1128_" class="st24" d="M-106,173.3c-0.9,0.5-2.7-1.3-2.7,1.4c-0.2-0.1-0.4-0.3-0.5-0.4v-2.5c1.2-0.2,2.3,0,3.3,1
				C-106,172.9-106,173.1-106,173.3z"/>
		</g>
		<g id="XMLID_2953_">
			<path id="XMLID_1124_" class="st25" d="M-120.4,169.9c1.4-0.2,1.8,0.7,1.7,2.1c-0.1,0.7,0.5,2.5-1.2,1.3
				C-120.6,172.2-120.5,171-120.4,169.9z"/>
		</g>
		<g id="XMLID_2950_">
			<path id="XMLID_1120_" class="st26" d="M-88.9,171.4c0.2-0.2,0.3-0.4,0.5-0.6c-0.2,2.3,0.7,4.8-0.5,6.9c-0.1-0.1-0.2-0.3-0.2-0.4
				v-1C-89,174.6-89.3,172.9-88.9,171.4z"/>
		</g>
		<g id="XMLID_2949_">
			<path id="XMLID_1116_" class="st27" d="M-95.1,176.4c-0.2,0-0.4,0-0.5-0.1c0.2-2.3-0.7-4.9,0.5-7c0.1,0.2,0.2,0.3,0.2,0.5
				C-95,172-94.7,174.3-95.1,176.4z"/>
		</g>
		<g id="XMLID_2948_">
			<path id="XMLID_1112_" class="st27" d="M-89.4,169.4L-90,170c-1.7,0.1-3.5,0.1-5.3-0.7v0.1C-93.3,168.1-91.3,169.4-89.4,169.4z"
				/>
		</g>
		<g id="XMLID_2944_">
			<path id="XMLID_1108_" class="st26" d="M-94.6,177.7l0.6-0.6c1.8-0.2,3.5-0.1,5.2,0.6C-90.7,178.9-92.7,177.7-94.6,177.7z"/>
		</g>
		<g id="XMLID_2943_">
			<path id="XMLID_1104_" class="st28" d="M-120.4,169.9c0.6,1.1,0.6,2.2,0.5,3.4C-121.3,172.9-121.4,172.4-120.4,169.9z"/>
		</g>
		<g id="XMLID_2942_">
			<path id="XMLID_1100_" class="st29" d="M-123,169.8c1.1,1,1.1,1.9,0.3,3C-123.5,171.7-123.4,170.8-123,169.8z"/>
		</g>
		<g id="XMLID_2941_">
			<path id="XMLID_1096_" class="st30" d="M-117.5,170.8c1,1,1,1.8,0.3,3.3C-117.8,172.8-117.6,171.9-117.5,170.8z"/>
		</g>
		<g id="XMLID_2938_">
			<path id="XMLID_1092_" class="st31" d="M-112,173.3v-1.9c0.2,0,0.3,0,0.5-0.1v2.2C-111.7,173.4-111.8,173.3-112,173.3z"/>
		</g>
		<g id="XMLID_2937_">
			<path id="XMLID_1088_" class="st32" d="M-99.5,171.5c0.1,0.1,0.4,0.1,0.4,0.2c0,0.4-0.2,0.3-0.4,0.3V171.5z"/>
		</g>
		<g id="XMLID_2936_">
			<path id="XMLID_1084_" class="st33" d="M-99.5,171.5v0.4c-0.1-0.1-0.4-0.1-0.4-0.2C-99.9,171.4-99.7,171.4-99.5,171.5z"/>
		</g>
		<g id="XMLID_2932_">
			<path id="XMLID_1080_" class="st34" d="M32.5,152.9c-1.7-0.3-3.4-0.6-5.1-0.8c-1.2-0.1-1.7-0.8-1.7-2.5c0-2.2,0.1-4.4,0-6.7
				c0-1.7,0.4-2.3,1.6-2c3.4,0.6,6.8,1.2,10.1,1.7c1,0.2,1.5,0.8,1.5,2.3c0.5,9.1,0.5,9.1-5.7,8.1C33,153,32.7,152.9,32.5,152.9
				L32.5,152.9z"/>
		</g>
		<g id="XMLID_2931_">
			<path id="XMLID_1076_" class="st35" d="M136.3,170c-1.6-0.4-2.9-1.8-3.5-4.4c-0.6-2.5-0.4-4.8,0.6-6.6c0.3-0.6,0.8-1.4,1.3-0.6
				c0.7,0.9,0.1,1.5-0.3,2.1c-1,1.9-1,4.2,0.1,6c1,1.7,2.6,2,3.6,0.6c1.1-1.4,1.1-3.7,0.2-6c-0.3-0.7-0.9-1.5-0.3-2.2
				c0.5-0.6,1,0.3,1.3,1c1,2,1.2,4.8,0.6,7C139.2,169.2,138,170.2,136.3,170L136.3,170z"/>
		</g>
		<g id="XMLID_2930_">
			<path id="XMLID_1072_" class="st35" d="M135.8,159.7v-1.9c0-0.8,0-1.7,0.7-1.6c0.6,0.1,0.6,1,0.6,1.7v4.2c0,0.7-0.1,1.5-0.7,1.4
				c-0.6-0.1-0.6-0.9-0.6-1.7V159.7z"/>
		</g>
		<g id="XMLID_2929_">
			<path id="XMLID_1068_" class="st36" d="M112.2,165.2c-2.1-0.4-3.9-3.2-4.2-6.6c-0.2-3.5,1.1-6.2,3.2-6.7c0.4-0.1,0.7-0.3,1,0.2
				c0.4,0.7-0.1,1-0.3,1.4c-0.7,1.6-0.9,3.4-0.1,5.3c0.8,2,1.9,2.8,3.2,2.5c0.3-0.1,0.7-0.3,0.9,0.2c0.2,0.6-0.1,1-0.3,1.5
				C115,164.6,113.5,165.5,112.2,165.2L112.2,165.2z"/>
		</g>
		<g id="XMLID_2925_">
			<path id="XMLID_1064_" class="st37" d="M2.4,139.7c0.8,0.1,1.7,0.2,2.5,0.4c2,0.5,3.5,2.7,3.5,5.2c0,2.4-1.3,4.4-3.2,4.3
				c-1.9-0.1-3.9-0.4-5.9-0.9s-3.2-2.9-3.1-5.4c0.1-2.5,1.4-4.2,3.4-4C0.6,139.3,1.5,139.5,2.4,139.7z"/>
		</g>
		<g id="XMLID_2924_">
			<path id="XMLID_1060_" class="st38" d="M3.5,135.7c0.2-0.5,0.7-0.6,0.8-0.1c0.3,1.4-0.9,1.5-1.2,2.4c-0.2,0.5-0.7,1-1.2,0.3
				c-0.7-1.1-1.9-2-1.9-4c0.7,0,0.9,1,1.1,1.3c1.4-0.3-0.5-3.5,1.5-3.2c0.6,1.1-0.2,2.4,0.5,3.5c0,0,0.1,0.1,0.2,0L3.5,135.7
				L3.5,135.7z"/>
		</g>
		<g id="XMLID_2923_">
			<path id="XMLID_1056_" class="st39" d="M3.5,135.7c-0.4,0.6-0.7,0.4-0.8-0.3c-0.1-1,0-2-0.1-3C3.6,133.3,2.4,134.8,3.5,135.7
				L3.5,135.7z"/>
		</g>
		<g id="XMLID_2922_">
			<path id="XMLID_1052_" class="st40" d="M-101,124.1c0.2,2-0.7,2.4-2.1,1.9c-1.9-0.6-3.2-0.3-2.8,2.6c0.2,1.4,0.2,2.8-1.7,2.6
				c-2-0.2-2.1-1.7-1.9-3.3c0.3-2.5-0.7-3.4-2.6-3.4c-1.2,0-2.4-0.3-2.4-2.5s1-2.5,2.4-2c2.4,0.9,2.8-0.5,2.6-2.9
				c-0.1-1.5,0.1-2.5,1.7-2.3c1.7,0.2,2.1,1.4,1.9,3c-0.4,2.8,0.8,3.7,2.9,3.7C-101.7,121.6-100.8,122.3-101,124.1L-101,124.1z"/>
		</g>
		<g id="XMLID_2919_">
			<path id="XMLID_1048_" class="st41" d="M66.1,151.7c0,0.3,0.1,0.8-0.1,1.1c-0.9,2-0.2,3.5,0.9,5c0.5,0.7,1.2,1.6,0.5,2.4
				s-1.2-0.2-1.6-1c-0.9-1.9-1.8-2.3-3.3-1.9c-2.4,0.8-5-2.6-5.3-6.6c-0.3-3.7,1.7-6.8,4.2-6.6C63.9,144.4,66,147.8,66.1,151.7
				L66.1,151.7z"/>
		</g>
		<g id="XMLID_2918_">
			<path id="XMLID_1044_" class="st42" d="M-33.1,142.7c-1.5-0.2-3.1-0.6-4.6-0.7s-2.3-0.8-2.3-3c0-2.3,0.6-3,2.3-2.5
				c1.3,0.3,2.6,0.3,3.6,2c0.5,0.9,1.5,1.1,2.1,0.3c0.9-1.3,2.1-1,3.3-0.9c1.4,0.2,2.4,0.4,2.5,3c0,2.5-0.8,2.9-2.5,2.5
				C-30.2,143.1-31.6,142.9-33.1,142.7L-33.1,142.7z"/>
		</g>
		<g id="XMLID_2917_">
			<path id="XMLID_1040_" class="st40" d="M-33,126.5c1.7,0,1.5,1.4,1.5,2.7c-0.1,1.7-0.1,3.2,1.8,3.3c1,0.1,0.8,1,0.3,1.6
				c-1,1.1-1.9,2.2-2.9,3.3c-0.6,0.7-1,0.4-1.5-0.4c-0.6-1-1.3-1.9-2-2.9c-0.9-1.4-2.7-3.1,0.5-2.8c1.4,0.1,0.7-1.8,0.7-2.9
				C-34.6,127.1-34.5,125.9-33,126.5L-33,126.5z"/>
		</g>
		<g id="XMLID_2914_">
			<path id="XMLID_1036_" class="st35" d="M91.7,156c0,0.3,0,0.9-0.1,1.3c-0.7,1.6-0.1,2.7,0.7,4c0.4,0.7,1.5,1.6,0.7,2.7
				c-0.7,1.1-1.3-0.4-1.7-1.2c-0.8-1.5-1.5-2-2.7-1.5c-1.6,0.7-3.5-0.9-4.5-3.4c-0.9-2.3-0.8-5.3,0.2-7.2c1.1-2,3-2.5,4.7-1.3
				C90.7,150.5,91.7,153.1,91.7,156L91.7,156z"/>
		</g>
		<g id="XMLID_2913_">
			<path id="XMLID_1032_" class="st35" d="M-69.1,138.5c-1.8-0.3-3.7-0.7-5.5-0.8c-1.8-0.2-1.8-1.6-1.8-3.1c0-1.6,0-3,1.8-2.6
				c1.2,0.3,2.4,0.3,3.6,1.5s3,1.5,4.3,0.6c1.3-1,2.5-0.3,3.8-0.1c1.7,0.3,1.2,2,1.2,3.2c0.1,1.3,0.1,2.6-1.4,2.3
				C-65.1,139-67.1,138.8-69.1,138.5z"/>
		</g>
		<g id="XMLID_2912_">
			<path id="XMLID_1028_" class="st40" d="M-68.9,132.8c-1.8,0.1-1.8-1.3-1.8-2.9c0-1.5,0.4-3.2-1.7-3.3c-1.1,0-1.1-0.9-0.5-1.6
				c1-1.2,2.1-2.3,3.2-3.5c0.6-0.7,1.1-0.4,1.7,0.4c0.7,1,1.5,2,2.1,3c0.8,1.2,2.9,3-0.4,2.8c-1.5-0.1-0.7,1.9-0.8,2.9
				C-67.3,132.1-67.2,133.5-68.9,132.8L-68.9,132.8z"/>
		</g>
		<g id="XMLID_2905_">
			<path id="XMLID_1024_" class="st5" d="M-91.4,182.7v290c-11.2,2.6-22.6,5.2-34.4,8c-1.7,0.4-2.3-0.1-2.1-2c0.1-0.6,0-1.1,0-1.7
				c0-98,0-195.9-0.1-293.9c0-3.3,0.6-4.2,3.5-3.9C-113.1,180.6-102.2,181.6-91.4,182.7L-91.4,182.7z"/>
		</g>
		<g id="XMLID_2904_">
			<path id="XMLID_1020_" class="st43" d="M-90,175.8c-3-1.3-3-1.3-3.4-4.4c1,0.4,1.9,1.2,3,0.2C-90.8,173.1-91,174.2-90,175.8z"/>
		</g>
		<g id="XMLID_2903_">
			<path id="XMLID_1016_" class="st44" d="M-95.2,169.3c1.8,0.2,3.5,0.4,5.3,0.7c-4.3-1-5,2.4-5.2,6.4
				C-95.1,174-95.2,171.7-95.2,169.3z"/>
		</g>
		<g id="XMLID_2902_">
			<path id="XMLID_1012_" class="st45" d="M-88.8,177.7c-1.7-0.2-3.5-0.4-5.2-0.6c1.5-1,3.2,0,4.8-0.1c0.1-0.3,0.3-0.3,0.4,0
				C-88.9,177.3-88.9,177.5-88.8,177.7L-88.8,177.7z"/>
		</g>
		<g id="XMLID_2901_">
			<path id="XMLID_1008_" class="st46" d="M-88.9,177.1h-0.4c0.2-1.9-0.5-4,0.4-5.7V177.1z"/>
		</g>
		<g id="XMLID_2900_">
			<path id="XMLID_999_" class="st47" d="M32.4,151.6c-0.4-0.1-0.8-0.1-1.2-0.2c-5-0.8-5-0.8-4.6-7.8c0.1-1.4,0.4-1.6,1.3-1.5
				c3,0.6,6,1,9,1.5c0.2,0,0.5,0,0.6,0.1c1.4,2.4,0.3,4.8,0.6,7.3c0.1,1.3-0.5,1.4-1.2,1.2C35.3,152.1,33.8,151.9,32.4,151.6
				L32.4,151.6z"/>
		</g>
		<g id="XMLID_2899_">
			<path id="XMLID_985_" class="st48" d="M114.7,162.8c-2,2.1-4.2,1.3-5.4-1.8c-1.2-3.1-0.6-6.2,1.6-7.7c-0.3,2.1-0.5,4,0.3,6
				C112.1,161.3,113.2,162.3,114.7,162.8z"/>
		</g>
		<g id="XMLID_2896_">
			<path id="XMLID_981_" class="st49" d="M2.2,147.1c-0.8-0.1-1.7-0.2-2.5-0.4c-1.3-0.3-2-1.4-2-3c0-1.5,0.6-2.6,1.7-2.5
				c2,0.2,3.9,0.5,5.9,0.9c1.1,0.3,1.7,1.5,1.7,3c0,1.7-0.8,2.5-2,2.3C4,147.5,3.1,147.3,2.2,147.1L2.2,147.1z"/>
		</g>
		<g id="XMLID_2895_">
			<path id="XMLID_977_" class="st50" d="M61.6,146.7c1.6,0.2,2.9,2.3,2.9,4.6c0,2.3-1.3,3.9-2.9,3.6c-1.5-0.3-2.7-2.2-2.8-4.4
				C58.8,148.1,60,146.5,61.6,146.7z"/>
		</g>
		<g id="XMLID_2894_">
			<path id="XMLID_973_" class="st51" d="M-27.4,141.5c-0.2,0.3-0.3,0.6-0.4,0.6c-0.3,0-0.6-0.3-0.5-0.8c0-0.2,0.3-0.4,0.5-0.4
				C-27.8,140.9-27.6,141.3-27.4,141.5z"/>
		</g>
		<g id="XMLID_2890_">
			<path id="XMLID_968_" class="st52" d="M87.7,151.1c1.5,0.3,2.6,2.3,2.6,4.5c-0.1,2.1-1.2,3.6-2.6,3.4c-1.5-0.2-2.7-2.2-2.7-4.4
				C84.9,152.4,86.2,150.8,87.7,151.1z"/>
		</g>
		<g id="XMLID_2889_">
			<path id="XMLID_964_" class="st53" d="M-65.7,137.7c-0.2-0.3-0.4-0.6-0.4-0.8c0-0.2,0.3-0.5,0.4-0.5c0.3,0,0.6,0.3,0.5,0.8
				C-65.2,137.4-65.5,137.5-65.7,137.7z"/>
		</g>
		<g id="XMLID_2888_">
			<path id="XMLID_961_" class="st54" d="M-90.1,188.6"/>
			<path id="XMLID_958_" class="st55" d="M-90.1,188.6"/>
		</g>
		<g id="XMLID_2887_">
			<path id="XMLID_955_" class="st56" d="M35.3,150.5c-2-0.3-3.9-0.6-5.9-0.9V149c2,0.3,4,0.6,5.9,0.9V150.5z"/>
		</g>
		<g id="XMLID_2884_">
			<path id="XMLID_951_" class="st38" d="M36.8,144.6c0.4,1.5,0.6,2.8,0,3.8c-0.4,0.7-1.6-0.6-1.2-0.9
				C36.5,146.9,36,145.5,36.8,144.6z"/>
		</g>
		<g id="XMLID_2883_">
			<path id="XMLID_947_" class="st40" d="M29.3,146.6c-0.6,1-1.1,0.7-1.8,0.1C28,145.7,28.6,146,29.3,146.6z"/>
		</g>
		<g id="XMLID_2882_">
			<path id="XMLID_943_" class="st38" d="M31.1,147.1c-0.2,0.2-0.3,0.4-0.5,0.4c-0.3,0-0.5-0.3-0.4-0.7c0-0.2,0.3-0.3,0.4-0.3
				C30.8,146.5,30.9,146.8,31.1,147.1z"/>
		</g>
		<g id="XMLID_2879_">
			<path id="XMLID_939_" class="st38" d="M34,148.2c-0.1-0.3-0.3-0.5-0.3-0.7c0-0.4,0.3-0.6,0.5-0.3c0.1,0.1,0.3,0.5,0.2,0.7
				C34.5,148,34.2,148,34,148.2z"/>
		</g>
		<g id="XMLID_2878_">
			<path id="XMLID_929_" class="st57" d="M-0.3,144.9c-0.4-0.2-0.6-0.6-0.6-1c0-0.5,0.3-0.8,0.7-0.7c0.4,0.1,0.6,0.5,0.6,1
				C0.3,144.7,0.1,145-0.3,144.9z"/>
		</g>
		<g id="XMLID_2877_">
			<path id="XMLID_924_" class="st58" d="M4.8,144c0.4,0.1,0.7,0.4,0.7,0.9s-0.3,0.8-0.7,0.8c-0.3,0-0.5-0.4-0.5-0.8
				C4.3,144.4,4.4,144,4.8,144z"/>
		</g>
		<g id="XMLID_2873_">
			<path id="XMLID_921_" class="st59" d="M61.6,154.1c-0.5-1.5-0.3-3.1-1.6-3c-0.2,0-0.5-0.3-0.4-0.7c0-0.2,0.2-0.5,0.3-0.5
				c1.2,0.4,1.3-1,1.5-3.1c0.7,2,0.6,3.6,1.8,3.7c0.4,0,0.2,1.1-0.1,1C62,151.2,62.2,152.9,61.6,154.1z"/>
		</g>
		<g id="XMLID_2872_">
			<path id="XMLID_914_" class="st56" d="M89.4,155.2c-1.1,0.7-2.3,0.5-3.5-0.2v-0.6C87.1,154.1,88.3,154.5,89.4,155.2z"/>
		</g>
		<g id="XMLID_2295_">
			<g id="XMLID_3828_">
				<path id="XMLID_4010_" d="M-82.1,206.7c-1-4,1.1-4.3,0.2-8.4c-0.2-1-1.3,0.4-2.1-0.2c-0.5-0.4-0.6-1.1,0-1.4
					c0.9-0.5,1.1,0.5,2,0.1c0.5-0.2,0.2-0.4,0.2-0.9c0-1.4,0.2-2.4,0.7-2.9c0.5-0.6,1.1-0.7,2.3-0.6c0.8,0.1,1,0.2,2,0.5
					c0.4,0.6,0.3,0.9-0.2,1.4c-1-0.4-1-0.5-1.7-0.6s-0.9,0.1-1.2,0.4c-0.3,0.3-0.1,1-0.1,1.8c0,0.6-0.4,0.8,0.1,1.1
					c1.3,0.7,1.7-0.4,3,0.3c0.6,0.3,0.6,1.4,0,1.6c-1.4,0.5-2.5-1.9-3.1-0.5c-1.5,3.9,0.9,4.3,0.1,8.3
					C-80.2,208-81.9,207.7-82.1,206.7L-82.1,206.7z"/>
				<path id="XMLID_4007_" d="M-74,207.3c-0.5-4.9-0.4-4.9,0.1-9.8c0.1-0.5,0.7-0.3,0.9,0.1c0.4,0.8-0.7,1.3,0.1,1.8
					c1-1.3,2-1.9,3.2-1.8c0.4,0,1.7,0.2,1.7,0.4c0,1.4,0.4,1.4-0.1,2.7c-0.2,0.5-0.6,0.3-0.9-0.1c-0.4-0.6,0-0.7,0-1.3
					c0-0.1-0.5-0.2-0.6-0.2c-0.5,0-1.4,0.1-1.8,0.3c-0.4,0.3-0.5,0.9-1.5,1.6c-0.4,3.2,0.5,3.2,0,6.4C-73,208-74,207.8-74,207.3
					L-74,207.3z"/>
				<path id="XMLID_4003_" d="M-62.7,208.3c-1.1-0.1-2-0.6-2.6-1.5c-0.7-1-1-2.2-1-3.8s0.2-2.8,0.9-3.7c0.7-0.8,1.6-1.1,2.7-1
					s2,0.6,2.6,1.5c0.6,1,0.9,2.2,0.9,3.7c0,1.6-0.3,2.7-0.9,3.6C-60.8,208-61.6,208.4-62.7,208.3z M-62.8,207.1
					c0.7,0,1.3-0.3,1.6-0.9c0.4-0.6,0.5-1.6,0.5-2.7c0-1.2-0.3-2.1-0.6-2.8c-0.4-0.7-0.8-1.2-1.5-1.2c-0.7-0.1-1.3,0.3-1.7,0.9
					c-0.4,0.6-0.6,1.6-0.6,2.7c0,1.2,0.2,2.1,0.6,2.8C-64,206.6-63.4,207-62.8,207.1z"/>
				<path id="XMLID_4000_" d="M-57,208.5c-0.5-4.8-0.6-4.8-0.1-9.6c0.1-0.5,0.8-0.3,1,0.1c0.4,0.8-0.8,1.4,0,1.9
					c1-1.3,0.9-2,1.5-1.9c0.7,0.1,1,0.7,1.2,2.1h0.1c0.5-1.3,0.9-1.9,1.6-1.8c0.5,0,0.9,0.3,1.2,0.7c0.2,0.5,0.5,1.1,0.5,2.1
					c0,3.5,0.6,3.5,0.1,7c-0.1,0.5-1,0.4-1.1-0.1c-0.5-3.4,0.1-3.5,0.1-6.9c0-0.5-0.3-0.9-0.3-1.1c-0.1-0.2-0.2-0.3-0.3-0.3
					c-0.4,0-0.3,0.7-1.3,2.1c-0.4,3.1,0.6,3.1,0.1,6.2c-0.1,0.5-1,0.4-1.1-0.1c-0.5-3.3,0-3.3,0-6.6c0-0.7-0.3-1.1-0.4-1.3
					c-0.1-0.2-0.4-0.2-0.6-0.2c-0.2,0-0.3,0-0.5,0.4c-0.3,0.4-0.4,0.9-0.4,1.5c0,3.1,0.4,3.1,0,6.2C-56,209.1-56.9,209-57,208.5
					L-57,208.5z"/>
				<path id="XMLID_3997_" class="st60" d="M-41,209.7c-0.5-4.7-0.6-4.8-0.1-9.4c0.1-0.5,0.9-0.4,1.2,0.1c0.4,0.8-0.1,0.9-0.1,1.8
					c0-1.3,1.1-1.8,1.6-1.8c0.7,0.1,1.3,0.7,1.3,2c0-1.3,1.2-1.9,1.8-1.9c0.5,0,0.7,0.4,0.9,0.8c0.2,0.4,0.3,1.1,0.3,2.1
					c0,3.4,0.6,3.5,0.1,6.9c-0.1,0.5-1.1,0.4-1.2-0.1c-0.5-3.4,0-3.4,0-6.8c0-0.5,0.1-0.9,0-1.1c-0.1-0.2-0.3-0.3-0.5-0.4
					c-0.4,0-1.5,0.7-1.5,2c0,3,0.5,3.1,0,6.1c-0.1,0.5-0.9,0.4-1-0.1c-0.5-3.2-0.1-3.2-0.1-6.5c0-0.6,0.2-1.1,0.1-1.3
					c-0.1-0.2-0.2-0.3-0.4-0.3s-0.6,0.1-0.9,0.5c-0.3,0.4-0.8,0.9-0.8,1.4c0,3,0.4,3.1,0,6.1C-40.1,210.4-41,210.2-41,209.7
					L-41,209.7z"/>
				<path id="XMLID_3993_" class="st60" d="M-29.9,210.5c-0.5-4,1.4-4.3,0-8.1c-0.5-1.4-1.8,0.6-3.2,0c-0.6-0.3-0.5-1.1,0.1-1.3
					c2-0.5,3.1-1.6,3.9,0.2c1.8,4.3,0.4,4.6,0,9.3C-29.1,211.2-29.8,211-29.9,210.5L-29.9,210.5z M-29.9,199.1c-0.4-1-0.5-1.1,0-2
					c0.2-0.5,0.8-0.4,1,0c0.4,1,0,1.1-0.2,2.1C-29.3,199.7-29.7,199.5-29.9,199.1z"/>
				<path id="XMLID_3990_" class="st60" d="M-18,211.1c0,0.3-1.4,0.3-2.2,0.3c-1.2-0.1-2.2-0.4-2.9-1.3c-0.7-0.9-0.8-2.2-0.8-3.7
					s0.3-2.6,1-3.4c0.7-0.8,1.6-1.2,2.7-1.1c0.7,0.1,1.3,0.2,2.3,0.6c0.3,0.6,0.4,0.9-0.1,1.4c-1-0.5-1.5-0.7-2.1-0.7
					c-0.8-0.1-1.4,0.2-1.9,0.8c-0.4,0.6-0.5,1.5-0.5,2.6s0.1,2,0.5,2.7c0.5,0.7,1.2,0.9,2,1c0.6,0,2,0,2-0.3
					C-18.1,210.4-18,210.4-18,211.1L-18,211.1z"/>
				<path id="XMLID_3987_" class="st60" d="M-15.1,211.6c-0.5-4.5-0.4-4.6,0.1-9.2c0.1-0.5,0.8-0.4,1.1,0.1c0.4,0.8-0.9,1.5-0.1,1.8
					c1-1.2,1.6-1.9,2.7-1.8c0.4,0,1.5,0.2,1.5,0.3c0,1.3,0.4,1.4-0.1,2.6c-0.2,0.5-0.6,0.3-0.9-0.1c-0.4-0.5,0-0.6,0-1.2
					c0-0.1-0.4-0.2-0.5-0.2c-0.5,0-0.9,0.2-1.3,0.4c-0.4,0.3-1.2,0.7-1.2,1.4c0,3,0.5,3,0.1,6C-14,212.3-15,212.1-15.1,211.6
					L-15.1,211.6z"/>
				<path id="XMLID_3983_" class="st60" d="M-5.5,212.6c-1-0.1-1.7-0.7-2.3-1.6c-0.6-0.9-0.8-2-0.8-3.5s0.3-2.6,0.8-3.4
					c0.6-0.8,1.3-1.2,2.3-1.1c1,0.1,1.7,0.7,2.2,1.5c0.6,0.9,0.8,2,0.8,3.5s-0.2,2.6-0.7,3.4C-3.7,212.2-4.5,212.7-5.5,212.6
					L-5.5,212.6z M-5.5,211.2c0.6,0,1.1-0.1,1.4-0.7c0.3-0.6,0.5-1.5,0.5-2.6s-0.2-2-0.5-2.6s-0.8-0.9-1.4-1c-0.6,0-1.1,0.1-1.4,0.7
					c-0.3,0.6-0.5,1.5-0.5,2.6s0.3,1.9,0.6,2.6C-6.5,210.9-6.1,211.1-5.5,211.2L-5.5,211.2z"/>
				<path id="XMLID_3979_" class="st60" d="M-0.9,212.7c-0.5-6.6-0.6-6.6-0.1-13.2c0-0.5,0.8-0.4,0.9,0.1c0.5,2.8,0.2,2.9,0.2,5.7
					c0-1.2,1.5-1.6,2.4-1.6c0.7,0.1,1.6,0.3,2,1.1s0.6,2,0.6,3.3c0,1.5-0.3,2.6-0.8,3.5s-1.1,1.3-1.9,1.3c-0.7-0.1-1.3-0.4-1.8-1.3
					c-0.6,0.1,0,0.6-0.4,1.1C-0.3,213.3-0.9,213.3-0.9,212.7L-0.9,212.7z M-0.1,210.5c0,0.9,1.4,1.3,2,1.3c0.5,0,1.2-0.2,1.5-0.8
					s0.4-1.5,0.4-2.7c0-2.1-0.7-3.3-1.6-3.4c-0.7-0.1-2,0.6-2,1.7C0.1,208.6-0.1,208.6-0.1,210.5L-0.1,210.5z"/>
				<path id="XMLID_3975_" class="st60" d="M9,213.3c-1-3.7,0.8-3.9-0.1-7.6c-0.2-1-1.1,0.4-1.9-0.2c-0.5-0.3-0.6-1.1,0-1.2
					c2-0.4,3.1-1.6,3.9,0.3c1.8,4.1,0.7,4.4,0,8.8C10.7,214.5,9.3,214.3,9,213.3z M9,202.4c-0.7-0.7-0.8-1.3-0.1-2s1.4-0.6,2.1,0.2
					c0.7,0.7,0.4,1.1-0.1,2C10.5,203.5,9.7,203.2,9,202.4z"/>
				<path id="XMLID_3972_" class="st60" d="M19.9,214.1c-1,0.1-1.3,0.3-1.8,0.2c-0.9-0.1-1.5-0.4-1.8-0.9S16,212,16,210.7
					c0-2.1,0.6-2.2,0.1-4.3c-0.1-0.5-0.7,0.3-1-0.2c-0.4-0.5-0.5-0.8-0.1-1.2c0.3-0.4,0.8,0.6,1,0.2c0.5-0.8-0.5-1.1-0.1-1.9
					c0.2-0.4,0.7-0.3,1,0.2c0.4,0.8-0.7,1.3,0,1.9c1.2,0.9,1.7-0.4,3,0.2c0.5,0.3,0.6,1.1,0,1.3c-1.4,0.5-2.1-1.5-2.9-0.3
					c-1.3,1.8-0.1,2.2-0.1,4.4v1c0,0.2,0,0.3,0.2,0.5c0.3,0.3,0.8,0.4,1.3,0.5c0.5,0,0.6,0,1.6-0.1
					C20.6,213.1,20.3,213.6,19.9,214.1L19.9,214.1z"/>
				<path id="XMLID_3968_" d="M30.9,214.9c-0.5-3.7,1.5-4,0.1-7.5c-0.5-1.4-1.6,0.3-3-0.3c-0.5-0.2-0.6-0.9,0-1c2-0.4,3.1-1.6,4,0.3
					c1.8,3.9,0.5,4.3,0.1,8.6C32,215.6,31,215.4,30.9,214.9L30.9,214.9z M30.9,204.4c-0.4-0.9-0.4-1.1,0.1-2
					c0.2-0.4,0.6-0.3,0.9,0.2c0.4,0.9,0.4,1,0.1,1.9C31.8,205,31.2,204.8,30.9,204.4L30.9,204.4z"/>
				<path id="XMLID_3965_" d="M34.1,215.2c-0.5-4.3-0.6-4.3-0.1-8.6c0.1-0.5,0.8-0.3,1,0.1c0.4,0.7,0,0.8,0,1.6
					c0-1.2,1.3-1.7,1.7-1.6c0.5,0,1.2,0.6,1.3,1.8c0,0.1,0.1,0.1,0.1,0c0.4-1.2,0.8-1.7,1.4-1.6c0.4,0,0.4,0.2,0.5,0.6
					c0.2,0.4-0.1,1-0.1,1.9c0,3.1,0.6,3.2,0.1,6.2c-0.1,0.5-1,0.4-1-0.1c-0.5-3-0.1-3.1-0.1-6.2c0-0.5,0.3-0.8,0.2-0.9
					c0-0.2-0.5-0.4-0.6-0.4c-0.3,0-0.5,0.6-1.5,1.9c-0.4,2.7,0.5,2.8,0,5.5c-0.1,0.5-0.9,0.4-1-0.1c-0.5-2.9,0-2.9,0-5.9
					c0-0.6,0.5-1,0.4-1.2c0-0.2,0.2-0.3,0.1-0.3c-0.2,0-0.6,0.1-0.8,0.5c-0.2,0.3-0.8,0.8-0.8,1.3c0,2.8,0.5,2.8,0.1,5.5
					C34.9,215.8,34.1,215.7,34.1,215.2L34.1,215.2z"/>
				<path id="XMLID_3961_" d="M42,218.8c-0.5-5.8-0.6-5.8-0.1-11.6c0-0.5,0.8-0.3,1.1,0.1c0.4,0.7,0.1,0.8,0.1,1.6
					c0-1.1,1.2-1.6,1.9-1.5s1.3,0.3,1.7,1.1s0.6,1.8,0.6,3.1c0,1.4-0.3,2.5-0.7,3.3c-0.5,0.8-1.2,1.3-1.9,1.3
					c-0.6,0-1.7-0.6-1.7-1.4c0,2,0.3,2.1-0.1,4C42.8,219.5,42.1,219.3,42,218.8L42,218.8z M43,213.7c0,0.8,1.1,1.2,1.6,1.2
					s0.9-0.2,1.1-0.7c0.3-0.6,0.3-1.4,0.3-2.5c0-2-0.4-3.1-1.2-3.2c-0.6-0.1-1.8,0.5-1.8,1.6L43,213.7L43,213.7z"/>
				<path id="XMLID_3957_" d="M51.1,216.7c-0.9-0.1-1.5-0.6-2-1.4c-0.5-0.8-0.8-1.9-0.8-3.3s0.3-2.5,0.7-3.2c0.5-0.7,1.2-1,2.1-0.9
					c0.8,0.1,1.4,0.5,1.9,1.4c0.5,0.8,0.8,1.9,0.8,3.2c0,1.4-0.2,2.4-0.7,3.2C52.7,216.4,52,216.8,51.1,216.7z M51.2,215.4
					c0.5,0,0.9-0.2,1.1-0.7c0.3-0.5,0.4-1.3,0.4-2.3s-0.1-1.8-0.4-2.4c-0.3-0.6-0.6-1-1.1-1s-1,0.2-1.3,0.7s-0.4,1.4-0.4,2.4
					s0.2,1.8,0.5,2.4C50.3,215.1,50.6,215.3,51.2,215.4L51.2,215.4z"/>
				<path id="XMLID_3954_" d="M55.9,216.8c-0.5-4.1-0.4-4.2,0.1-8.3c0.1-0.5,0.7-0.3,1,0.1c0.4,0.7-0.7,1.2,0,1.5
					c1-1.1,1.7-1.7,2.5-1.6c0.3,0,0.4,0.2,1.4,0.3c0.4,1.1,0.5,1.3,0,2.3c-0.2,0.5-0.6,0.3-1-0.1s-0.1-0.5-0.1-1.1
					c0-0.1-0.5-0.1-0.6-0.1c-0.4,0-1,0-1.3,0.3c-0.3,0.2-0.1,0.7-1.1,1.4c-0.4,2.7,0.4,2.7,0,5.4C56.9,217.4,56,217.3,55.9,216.8
					L55.9,216.8z"/>
				<path id="XMLID_3951_" d="M66.9,217.5c0,0.1-1.2,0.1-1.6,0c-0.8-0.1-0.9-0.3-1.2-0.8s-0.1-1.3-0.1-2.5c0-2,0.8-2.2-0.1-4
					c-0.4-0.9-1.1,0.3-1.9-0.2c-0.5-0.3-0.5-0.8,0-1c0.9-0.5,1.2,0.7,2,0.1c0.7-0.6-0.4-1,0-1.8c0.3-0.4,0.7-0.4,1,0
					c0.4,0.8-0.6,1.1,0,1.8c0.7,0.7,1.2-0.4,2,0.2c0.5,0.3,0.4,0.9-0.1,1.1c-0.9,0.4-1.5-1-2-0.1c-0.9,1.9-0.1,2.1-0.1,4.2
					c0,0.5-0.4,0.8-0.3,1c0,0.2-0.2,0.4,0,0.5c0.2,0.2,0.7,0.4,1.1,0.4c0.4,0,1.4,0,1.4-0.2C67,217,66.9,217,66.9,217.5L66.9,217.5z
					"/>
				<path id="XMLID_3944_" d="M76,210.7c-0.8-0.3-1.2,0.1-1.7-0.6c-0.4-0.6-0.4-1.3,0.3-1.4c1-0.1,0.8,0.5,1.5,1.2
					C76,210.1,76,210.3,76,210.7C76,210.6,76,210.7,76,210.7L76,210.7z M76.5,211.5c-0.3,1.1,0.1,1.5-0.8,2.1
					c-0.5,0.4-0.9-0.3-0.8-1c0.1-1,0.5-0.9,1.2-1.7C76.2,211.2,76.3,211.4,76.5,211.5L76.5,211.5z M76.3,209.7
					c-0.2-1.2-0.6-1.3-0.2-2.5c0.2-0.5,0.9-0.4,1,0.1c0.4,1.2-0.1,1.2-0.2,2.5c-0.1-0.1-0.2-0.1-0.3-0.1
					C76.5,209.6,76.4,209.6,76.3,209.7z M77.1,211c0.7,0.9,1,0.8,1.1,1.9c0.1,0.6-0.4,1.2-0.8,0.8c-0.9-0.8-0.5-1.1-0.8-2.3
					C76.9,211.4,77,211.2,77.1,211L77.1,211z M76.9,209.9c0.7-0.6,0.7-1.2,1.6-0.9c0.7,0.2,0.7,0.9,0.2,1.5
					c-0.6,0.7-0.9,0.2-1.7,0.3c-0.1,0,0,0,0-0.1C76.9,210.4,77,210.1,76.9,209.9z"/>
				<path id="XMLID_3941_" class="st60" d="M-84,251.5c0-5-0.1-5-0.1-9.9h0.1c0,0.9-0.9,1.5,0,1.9c1-1.4,1.6-2,2.2-2
					c0.7,0,1.4,0.7,1.6,2c0,0.1,0.2,0.1,0.2,0c0.5-1.4,1.1-2,1.8-1.9c0.5,0,0.7,0.2,0.9,0.7c0.2,0.5,0.3,1.1,0.3,2.2
					c0,3.6,0.4,3.6-0.1,7.2c-0.1,0.5-0.8,0.5-0.9,0c-0.5-3.5,0-3.6,0-7.1c0-0.5-0.1-0.9-0.2-1.1c-0.1-0.2-0.2-0.3-0.4-0.3
					c-0.5,0-0.6,0.7-1.6,2.1c-0.4,3.2,0.6,3.2,0.1,6.4c-0.1,0.5-1,0.4-1,0c-0.5-3.4-0.1-3.4-0.1-6.8c0-0.7-0.1-1.1-0.2-1.4
					c-0.1-0.2-0.3-0.3-0.5-0.3s-0.9,0.1-1.2,0.5c-0.3,0.4-0.2,0.9-1.2,1.5c-0.5,3.2-0.1,3.2-0.1,6.4C-84.1,251.5-84,251.5-84,251.5
					L-84,251.5z"/>
				<path id="XMLID_3937_" class="st60" d="M-72,251.7c-0.5-4.2,1.3-4.4-0.1-8.4c-0.5-1.4-1.5,0.4-2.8-0.3c-0.6-0.3-0.7-1.1-0.1-1.3
					c1.9-0.6,3.1-1.6,3.9,0.3c1.8,4.5,0.5,4.8,0,9.7C-71.1,252.3-71.9,252.2-72,251.7z M-72,239.7c-0.7-0.8-0.8-1.5-0.1-2.3
					c0.7-0.7,1.3-0.5,2,0.2c0.7,0.8,0.6,1.2,0.2,2.2C-70.4,240.8-71.3,240.5-72,239.7L-72,239.7z"/>
				<path id="XMLID_3934_" class="st60" d="M-59.1,251.7c-1,0.3-1.8,0.6-2.6,0.6c-1.3,0-2.4-0.6-3.1-1.5s-1.2-2.1-1.2-3.8
					c0-1.6,0.4-2.9,1.1-3.7c0.7-0.9,2-1.3,3.3-1.2c0.8,0,1.6,0.3,2.6,0.6c0.4,0.6,0.5,0.8,0,1.4c-1-0.4-1.8-0.5-2.5-0.6
					c-0.8,0-1.6,0.2-2.1,0.9s-0.8,1.6-0.8,2.7c0,1.2,0.2,2.1,0.7,2.8s1.4,1,2.3,1c0.7,0,1.4-0.1,2.4-0.5
					C-58.3,250.6-58.7,251.1-59.1,251.7z"/>
				<path id="XMLID_3931_" class="st60" d="M-56.1,252.1c-1-4.7-0.9-4.9,0.1-9.6c0.2-1,1.2-0.6,2,0.1c0.7,0.6-0.8,1.4,0,1.8
					c1-1.3,1.5-2,2.7-1.9c0.4,0,1.3,0.1,1.3,0.3c0,1.4,0.4,1.4,0,2.7c-0.2,0.5-0.6,0.3-0.9-0.1c-0.4-0.5-0.1-0.6-0.1-1.3
					c0-0.1-0.7,0-0.9,0c-0.5,0-0.7,0-1.1,0.3c-0.4,0.3-1,0.8-1,1.6c0,3.1,0.9,3.2,0.1,6.3C-54.2,253.3-55.9,253.1-56.1,252.1
					L-56.1,252.1z"/>
				<path id="XMLID_3927_" class="st60" d="M-45.6,252.6c-1.1,0-1.9-0.6-2.5-1.5s-1-2.1-1-3.6s0.2-2.8,0.8-3.7s1.6-1.3,2.6-1.3
					c1.1,0,2,0.5,2.6,1.4s0.8,2.2,0.8,3.7s-0.2,2.7-0.9,3.6C-43.7,252.1-44.5,252.6-45.6,252.6L-45.6,252.6z M-45.6,251.2
					c0.6,0,1.2-0.2,1.6-0.9c0.4-0.6,0.5-1.6,0.5-2.7s-0.3-2-0.6-2.7c-0.4-0.7-0.8-0.9-1.4-1c-0.6,0-1.1,0.2-1.4,0.9
					c-0.4,0.6-0.7,1.5-0.7,2.6c0,1.2,0.2,2.1,0.6,2.7C-46.8,250.9-46.2,251.2-45.6,251.2L-45.6,251.2z"/>
				<path id="XMLID_3923_" class="st60" d="M-41,252.5c-0.7-6.9-0.5-6.9,0-13.8c0-0.5,0.9-0.4,1,0.1c0.5,3-0.6,3.1,0,6
					c1-1.3,2.1-2,3-1.9c0.8,0,1.7,0.5,2.1,1.4c0.5,0.8,1,1.9,1,3.3c0,1.6-0.4,2.7-1,3.7c-0.6,0.9-1.2,1.4-2.1,1.4
					c-0.8,0-1.4-0.3-1.9-1.1c-0.7,0.2-0.2,0.6-0.8,1C-40.2,253.1-41,253.2-41,252.5L-41,252.5z M-40,250.1c1,0.9,1.7,1.2,2.3,1.2
					s1.4-0.2,1.7-0.8c0.3-0.7,0.6-1.6,0.6-2.8c0-2.2-1.1-3.3-2.1-3.3c-0.7,0-1.7,0.5-2.7,1.7C-40.9,247.9-40.4,248.1-40,250.1
					L-40,250.1z"/>
				<path id="XMLID_3919_" class="st60" d="M-29.9,252.7c-0.5-4,1.5-4.3,0.1-8.1c-0.5-1.4-1.7,0.5-3.1-0.1c-0.6-0.3-0.7-1.1-0.1-1.3
					c1.9-0.6,3.2-1.6,4,0.2c1.8,4.3,0.5,4.7,0.1,9.3C-29,253.2-29.9,253.1-29.9,252.7L-29.9,252.7z M-29.9,241.2
					c-0.4-1-0.4-1.1,0.1-2c0.2-0.5,0.6-0.4,0.8,0c0.4,1,0.5,1.1,0.2,2.1C-29,241.8-29.7,241.7-29.9,241.2z"/>
				<path id="XMLID_3916_" class="st60" d="M-18,252.9c0,0.1-1.2,0.1-1.8,0.1c-1,0-1.9-0.2-2.3-0.7c-0.4-0.5-0.8-1.4-0.8-2.8
					c0-2.2,0.3-2.3-0.2-4.4c-0.1-0.5-0.6,0.3-0.9-0.1c-0.4-0.5-0.5-0.8-0.1-1.3c0.3-0.4,0.8,0.6,1.1,0.1c0.5-0.9-0.7-1.3,0-2
					s1.3-0.7,2,0.1c0.7,0.7-0.7,1.3,0.1,1.9c1.2,0.9,1.6-0.4,2.9,0.2c0.6,0.3,0.6,0.9,0,1.1c-1.4,0.5-2.2-1.3-3-0.1
					c-1.3,2,0.1,2.4,0.1,4.8c0,0.5-0.1,0.9,0,1.1c0,0.2,0.1,0.4,0.2,0.6c0.3,0.3,0.7,0.4,1.3,0.4c0.5,0,1.5-0.1,1.5-0.3
					C-18,252.3-18,252.3-18,252.9L-18,252.9z"/>
				<path id="XMLID_3913_" d="M-14,253c-0.8-1-0.8-1.5,0-2.5c0.6-0.8,1.4-0.7,2,0.1c0.8,1,0.5,1.3,0,2.5
					C-12.4,254-13.4,253.8-14,253z"/>
				<path id="XMLID_3909_" d="M-3,253.2c0-0.8,0.8-1.3,0-1.6c-1,1.3-1.7,1.7-2.6,1.7c-0.8,0-1.7-0.3-2.1-1.1
					c-0.4-0.8-0.7-1.9-0.7-3.3c0-1.5,0.2-2.7,0.8-3.6c0.5-0.9,1.6-1.3,2.4-1.3c0.7,0,1.3,0.4,2.3,1.2c0.6-2.5,0-2.6,0-5.1h0.1
					C-2.9,246.7-3.1,246.7-3,253.2C-3.1,253.3-3,253.2-3,253.2L-3,253.2z M-3,246.5c-1-0.8-1.6-1.2-2.1-1.2s-1.2,0.2-1.5,0.8
					s-0.4,1.5-0.4,2.7c0,2.1,0.8,3.2,1.7,3.3c0.7,0,1.4-0.6,2.4-1.7C-2.2,248.6-2.6,248.3-3,246.5L-3,246.5z"/>
				<path id="XMLID_3905_" d="M1.1,253.3c-0.5-3.8,0.9-4-0.1-7.7c-0.2-1-1.2,0.5-2,0c-0.5-0.3-0.5-1,0.1-1.3
					c1.4-0.5,2.5-1.3,2.9,0.1c1.4,4.2,0.5,4.5,0.1,8.9C2,253.9,1.1,253.8,1.1,253.3z M1.1,242.3c-0.7-0.7-0.8-1.3-0.1-2
					s1.4-0.7,2.1,0c0.7,0.7,0.3,1.2-0.1,2.1C2.5,243.3,1.7,243,1.1,242.3z"/>
				<path id="XMLID_3902_" d="M7,253.1c-0.3-0.6-0.6-1,0-1.5c1,0.6,1.7,0.9,2.3,0.9c0.5,0,0.8-0.2,1.1-0.4c0.3-0.3,0.5-0.5,0.5-0.9
					c0-0.5-0.3-1-1.1-1.3c-0.6-0.3-0.7-0.2-1.3-0.5c-1-0.5-1.5-1.3-1.5-2.4c0-0.8,0.2-1.5,0.6-1.9c0.4-0.4,1.3-0.5,2.1-0.5
					c0.6,0,1.3,0.1,2.3,0.4c0.3,0.6,0.4,0.9-0.1,1.3c-1-0.3-1.6-0.5-2.2-0.6c-0.4,0-0.8,0.2-1.1,0.4s-0.4,0.4-0.4,0.8
					s0.3,0.8,0.9,1.1l1.4,0.8c0.5,0.3,0.9,0.6,1.2,0.9c0.2,0.4,0.3,0.8,0.3,1.4c0,0.8-0.2,1.4-0.7,1.9s-1.1,0.7-1.9,0.7
					C8.6,253.6,8,253.5,7,253.1L7,253.1z"/>
				<path id="XMLID_3898_" d="M14.9,256.8c-0.5-6-0.5-6,0-12c0-0.5,0.9-0.4,1.1,0c0.4,0.7-0.8,1.4-0.1,1.7c1-1.2,0.9-1.7,1.7-1.7
					c0.7,0,1.1,0.3,1.6,1.1c0.4,0.8,0.5,1.8,0.5,3.2c0,1.5-0.2,2.6-0.7,3.5s-0.8,1.2-1.6,1.2c-0.7,0-0.5-0.4-1.5-1.2
					c-0.6,2,0.6,2.2,0.1,4.2C15.9,257.4,15,257.3,14.9,256.8z M16.1,251.4c1,0.8,0.6,1.2,1.2,1.2c0.5,0,0.6-0.3,0.9-0.9
					c0.3-0.6,0.4-1.4,0.4-2.5c0-2.1-0.2-3.2-1-3.2c-0.7,0-0.5,0.6-1.5,1.7C15.3,249.4,15.7,249.6,16.1,251.4L16.1,251.4z"/>
				<path id="XMLID_3895_" d="M23,253.8c-1-5.6,0.9-5.8,0-11.5c-0.2-1-1.2,0.5-2,0c-0.5-0.3-0.5-1.2,0-1.4c1.9-0.5,3.4-1.7,4,0.2
					c1.9,6,0.9,6.4,0,12.6C24.8,255,23.2,254.8,23,253.8L23,253.8z"/>
				<path id="XMLID_3891_" d="M32.1,252.9c-0.7,0.8-1.3,1.3-2,1.3c-0.6,0-1-0.3-1.4-0.8s-0.6-1-0.6-1.7c0-0.9,0.4-1.6,1-2.1
					s1.3-0.9,2.2-0.9c0.4,0,0.5,0.4,0.8,0.1c0.3-0.3,0-0.4,0-0.8c0-0.6-0.2-1.1-0.4-1.3c-0.2-0.3-0.4-0.4-0.8-0.4
					c-0.6,0-0.9,0.3-1.9,0.7c-0.5-0.4-0.4-0.8,0-1.4c1-0.4,1.4-0.5,2.1-0.5c0.8,0,1.7,0.3,2,0.7S34,247,34,248v3.6
					c0,0.5-0.5,0.9-0.4,1.1c0.1,0.2,0.1,0.2,0.3,0.2c0.1,0,0,0.1,0.2,0c0.1,0.5,0.2,0.5,0.1,0.9c-0.4,0.2-0.6,0.2-0.8,0.2
					C32.7,254.1,32.3,253.7,32.1,252.9L32.1,252.9z M32.1,251.9c0-1.1,0.1-1.1-0.1-2.2c0-0.2-0.1,0-0.3,0c-1.5,0-2.2,0.5-2.2,1.7
					c0,0.4-0.1,0.8,0.1,1.1c0.2,0.3,0.5,0.3,0.9,0.3S32.1,252.6,32.1,251.9L32.1,251.9z"/>
				<path id="XMLID_3888_" d="M33.9,257.2c-0.4-0.4-0.4-0.8,0-1.3c0.3-0.4,0.5,0,1,0c0.4,0,1,0,1.2-0.2s0.6-0.6,0.8-1.2
					c0.2-0.4,0.5-0.4,0.4-0.9c-1-4.2-1.9-4-2.6-8.2c-0.1-0.6,1-0.5,1.3,0c1.5,3-1.5,6.3,1.9,6.4c3.3,0.1,0.6-3.2,2-6.2
					c0.2-0.4,0.9-0.5,0.8,0c-1,4.9-1.4,4.8-2.9,9.6c-0.2,0.7-0.5,1.3-0.8,1.6s-1.4,0.3-2,0.3C34.5,257.3,34.3,257.6,33.9,257.2
					L33.9,257.2z"/>
				<path id="XMLID_3885_" d="M43,254.2c-0.7-0.9-0.8-1.5,0-2.3c0.7-0.8,1.3-0.7,2,0.1c0.7,0.9,0.5,1.2,0,2.3
					C44.5,255.3,43.6,255,43,254.2z"/>
				<path id="XMLID_3882_" d="M49,254c-0.3-0.6-0.5-1,0-1.4c1,0.5,1.5,0.9,2.1,0.9c0.4,0,0.7-0.2,1-0.5c0.3-0.2,0.5-0.5,0.5-0.9
					c0-0.5-0.4-0.9-1.1-1.2c-0.6-0.3-0.6-0.3-1.1-0.5c-0.9-0.4-1.3-1.2-1.3-2.2c0-0.8,0.1-1.4,0.5-1.8c0.4-0.4,0.9-0.5,1.6-0.5
					c0.5,0,0.8,0.1,1.8,0.4c0.3,0.5,0.4,0.8,0,1.2c-1-0.3-1.2-0.5-1.8-0.5c-0.4,0-0.6,0.2-0.8,0.3c-0.2,0.2-0.3,0.4-0.3,0.7
					c0,0.4,0.2,0.7,0.8,1c0.7,0.4,0.6,0.4,1.3,0.8c0.5,0.3,0.8,0.6,1,0.9c0.2,0.3,0.3,0.8,0.3,1.3c0,0.8-0.1,1.4-0.6,1.9
					c-0.4,0.5-1,0.6-1.8,0.6C50.4,254.5,50,254.4,49,254L49,254z"/>
				<path id="XMLID_3879_" d="M55.1,254.5c-0.5-6-0.6-6.1-0.1-12.1c0-0.5,0.8-0.4,0.9,0.1c0.5,1.8,0.2,1.9,0.2,3.8
					c0,0.8-0.8,1.3-0.1,1.6c1-1.2,1.4-1.7,2.2-1.7c1.1,0,1.9,1,1.9,2.9c0,2.8,0.4,2.9-0.1,5.7c-0.1,0.5-1,0.5-1.1,0
					c-0.5-2.6,0-2.6,0-5.3c0-0.6,0-1.1-0.1-1.4c-0.1-0.3-0.6-0.5-1-0.5c-0.5,0-0.7,0.6-1.7,1.7c-0.4,2.7,0.2,2.7-0.2,5.4
					C55.8,255,55.1,255,55.1,254.5L55.1,254.5z"/>
				<path id="XMLID_3875_" d="M64.1,254.8c-0.8,0-1.5-0.3-2-1.1s-0.7-1.9-0.7-3.2s0.3-2.4,0.7-3.2c0.5-0.8,1.1-1.2,1.9-1.2
					c0.8,0,1.4,0.5,1.9,1.3s0.8,1.8,0.8,3.1s-0.3,2.4-0.8,3.1C65.5,254.5,64.9,254.8,64.1,254.8L64.1,254.8z M64.1,253.8
					c0.5,0,0.8-0.3,1.1-0.9c0.3-0.6,0.4-1.3,0.4-2.3s-0.1-1.8-0.4-2.3c-0.3-0.6-0.6-0.8-1.1-0.8s-0.9,0.1-1.2,0.7
					c-0.3,0.6-0.3,1.4-0.3,2.4s0.1,1.8,0.3,2.4C63.2,253.4,63.6,253.8,64.1,253.8L64.1,253.8z"/>
				<path id="XMLID_3872_" d="M68.2,254.5c-1-4.2-0.9-4.2-1-8.5c0-0.5,0.8-0.4,0.9,0c0.8,3.4,0.5,3.5,0.9,7c0.5-2.8,0-3,0.9-5.7
					c0.2-0.5,0.8-0.5,1-0.1c0.9,2.8,0.5,2.9,1,5.7H72c0.4-3.2-0.1-3.3,0.7-6.4c0.1-0.4,0.8-0.3,0.8,0.1c-0.2,4.1-0.2,4.1-1.2,8.1
					c-0.1,0.5-0.8,0.6-1,0.2c-1-2.9-0.5-3-0.9-6c-0.5,2.9-0.2,3-1.2,5.8C69,255.4,68.4,255,68.2,254.5L68.2,254.5z"/>
				<path id="XMLID_3869_" d="M79,257.2c-1-0.2-2.1-1-2.8-2.3c-0.7-1.3-1.1-3-1.1-4.8c0-1.9,0.6-3.4,1.3-4.7
					c0.7-1.3,1.7-2.1,2.7-2.3c0.4,0.3,0.2,0.7-0.1,1.1c-1,0.2-1.6,0.9-2,1.9c-0.5,1-0.8,2.4-0.8,4c0,1.7,0.5,3,1,4s0.9,1.8,1.9,2.1
					C79.4,256.6,79.4,256.9,79,257.2z"/>
				<path id="XMLID_3866_" d="M81,255c-0.5-0.2-0.5-0.9,0-1.1c0.9-0.5,1.7,1,1.9,0c1-3.5,1-3.7,0-7.3c-0.3-1-1.1,0.5-1.9,0
					c-0.5-0.3-0.5-1,0-1.1c1.4-0.5,1.6-0.3,3,0.2c0.5,0.2,0,0.5,0,1l-0.1-0.1v7.3H84c0,0.5,0.3,0.7-0.1,1.1
					C82.9,256.2,82.4,255.6,81,255L81,255z"/>
				<path id="XMLID_3863_" d="M85,255.2c-0.5-4-0.5-4,0-8c0.1-0.5,0.8-0.4,1,0c0.4,0.6-0.8,1.3-0.1,1.6c1-1.1,1.3-1.7,1.7-1.7
					c0.5,0,1,0.6,1.2,1.7c0,0.1,0.1,0.1,0.1,0c0.3-1.1,0.7-1.6,1.2-1.6c0.3,0,0.5,0.2,0.7,0.5c0.1,0.4,0.1,1,0.1,1.8
					c0,2.9,0.5,2.9,0,5.8c-0.1,0.5-0.9,0.5-1,0c-0.5-2.8,0-2.9,0-5.8c0-0.4,0.2-0.7,0.1-0.9c0-0.2-0.6-0.1-0.7-0.1
					c-0.3,0-0.4,0.5-1.4,1.6c-0.4,2.5,0.5,2.6,0,5.1c-0.1,0.5-1,0.5-1.1,0c-0.5-2.7,0.1-2.8,0.1-5.5c0-0.5,0.6-0.9,0.6-1.1
					c0-0.2,0.1-0.2,0-0.2s-0.6,0.1-0.7,0.5c-0.2,0.3-0.9,0.7-0.9,1.2c0,2.6,0.5,2.6,0,5.1C85.9,255.7,85.1,255.6,85,255.2L85,255.2z
					"/>
				<path id="XMLID_3859_" d="M95.5,254.5c-0.6,0.7-1.1,1-1.7,1c-0.5,0-0.9-0.2-1.2-0.6c-0.3-0.4-0.4-1-0.4-1.6
					c0-0.8,0.3-1.4,0.7-1.9c0.5-0.5,0.8-0.7,1.6-0.7c0.2,0,0.2,0.1,0.3-0.1c0.2-0.3,0.1-0.3,0.1-0.6c0-0.6,0-0.9-0.1-1.2
					c-0.2-0.2-0.6-0.4-1-0.4c-0.5,0-0.9,0.2-1.9,0.7c-0.5-0.4-0.3-0.7,0-1.2c1-0.3,1.6-0.5,2.2-0.5c0.7,0,1.2,0.2,1.4,0.6
					c0.3,0.4,0.4,1.1,0.4,2.1v3.3c0,0.5,0.2,0.8,0.3,1c0.1,0.2,0.3,0.2,0.4,0.2s0.2,0,0.4-0.1c0.1,0.4,0.1,0.4,0,0.9
					c-0.3,0.1-0.5,0.3-0.7,0.3C96,255.5,95.7,255.2,95.5,254.5L95.5,254.5z M94.9,253.5c0-1,0.1-1,0.1-2h-0.1
					c-1.3,0-1.8,0.4-1.8,1.5c0,0.4,0.1,0.7,0.3,1c0.2,0.2,0.3,0.4,0.5,0.4C94.3,254.4,94.9,254,94.9,253.5z"/>
				<path id="XMLID_3855_" d="M98.4,258.1c-0.2-0.6-0.2-0.7,0.1-1.2c0.6,0.4,1,0.4,1.5,0.5c1,0,1.4-0.6,1.4-2c0-0.7,0.6-1,0.1-1.5
					c-0.4,1.1-1,1.6-1.7,1.6c-0.6,0-1.1-0.3-1.4-1s-0.4-1.6-0.4-2.8c0-1.3,0-2.3,0.4-3.1s0.7-1.2,1.3-1.1c0.5,0,1.1,0.4,1.1,1.2
					c0-0.4-0.2-0.6,0.1-0.9c0.4-0.3,0.9-0.5,0.9,0c0.5,3.1,0,3.1,0,6.2c0,1,0.2,1.8,0.1,2.3c-0.1,0.5-0.1,1-0.3,1.4
					c-0.4,0.6-1,0.8-1.8,0.8C99.5,258.4,99,258.3,98.4,258.1L98.4,258.1z M101,252.7v-3.1c0-0.7-0.6-1-1-1s-0.6,0.2-0.8,0.7
					c-0.2,0.5-0.4,1.3-0.4,2.2c0,0.8,0.2,1.5,0.4,2s0.3,0.7,0.6,0.7C100.4,254.2,101,253.7,101,252.7L101,252.7z"/>
				<path id="XMLID_3851_" d="M107.9,255.3c0,0.3-1,0.5-1.5,0.5c-0.9,0-1.4-0.4-1.9-1.1c-0.5-0.7-0.8-1.7-0.8-2.9s0.4-2.2,0.8-2.9
					c0.4-0.8,1-1.2,1.6-1.2c0.7,0,1.1,0.4,1.4,1.1c0.3,0.7,0.4,1.7,0.4,3c0,0.2,0.3,0.4,0.1,0.5c-1.6,0.2-1.9-0.9-3.3-0.1
					c0.1,1.8,0.6,2.7,1.8,2.7c0.5,0,1.6-0.1,1.6-0.5C107.8,254.7,107.9,254.8,107.9,255.3z M104.7,251c1.1,0.4,1.2,0,2.3,0
					c0.1,0,0.1-0.1,0.1-0.2c0-1.4-0.3-2-1.1-2.1c-0.4,0-0.7,0.1-0.9,0.5C104.8,249.6,104.7,250.3,104.7,251z"/>
				<path id="XMLID_3848_" d="M110,255.7c-0.7-0.8-0.7-1.4,0-2.1c0.7-0.7,1.3-0.7,2,0c0.7,0.8,0.4,1.1,0,2.1
					C111.5,256.7,110.7,256.4,110,255.7z"/>
				<path id="XMLID_3845_" d="M118.1,247.1v1.2c0-0.4-0.8-0.7-1.3-0.7c-0.8,0-0.9,0.5-0.9,1.3c0,0.3,0.2,0.6,0.3,0.8
					c0.1,0.2,0.4,0.5,0.8,0.7c0.3,0.2,0.3,0.2,0.6,0.3c0.3,0.2,0.3,0.1,0.6,0.2c0.8,0.5,1.2,1.3,1.2,2.4c0,0.8-0.2,1.5-0.6,2
					s-1.1,0.6-1.8,0.6c-0.5,0-0.9-0.1-1.9-0.5c-0.3-0.6-0.5-0.9,0-1.3c1,0.6,1.4,0.8,1.9,0.8c0.4,0,0.8,0,1.1-0.3
					c0.3-0.3,0.4-0.7,0.4-1.1c0-0.3-0.1-0.7-0.2-0.9c-0.2-0.2-0.6-0.3-1-0.6c-0.3-0.2-0.2-0.3-0.5-0.5c-0.6-0.4-1-0.7-1.2-1
					c-0.2-0.4-0.4-0.8-0.4-1.4c0-0.8,0.2-1.5,0.5-1.9s0.5-0.6,1.1-0.6C117.2,246.6,118.1,246.8,118.1,247.1z"/>
				<path id="XMLID_3842_" d="M119.9,255.9c0-4.5-0.5-4.5,0.1-9c0.1-0.6,1-0.3,1.2,0.3c1.1,2.8,0.6,2.9,1.2,5.8
					c0.7-2.9,0.1-3.1,1.3-5.8c0.2-0.6,1.1-0.8,1.2-0.2c0.6,4.4,0.5,4.5,0,8.9c-0.1,0.5-0.9,0.5-1,0c-0.5-4-0.1-4,0-8h0.1
					c-0.6,3-0.3,3-1.2,5.9c-0.1,0.4-0.7,0.7-0.8,0.4c-1-2.5-0.2-2.8-1.2-5.3c-0.1-0.4-0.8-0.4-0.8,0
					C119.6,252.4,120,252.4,119.9,255.9L119.9,255.9z"/>
				<path id="XMLID_3839_" d="M126,256c-0.5-0.1-0.5-0.9,0-1.1c0.9-0.4,1.8,1.1,2.1,0.1c1-3.3,0.9-3.6-0.1-6.9c-0.3-1-1.2,0.5-2,0
					c-0.5-0.2-0.5-0.9,0-1c2-0.4,2.1-0.5,4,0.1c0.5,0.1,0.3,0.6,0,1c-0.4,0.3-0.8-0.5-0.9,0c-0.5,3.4-0.5,3.4,0,6.8
					c0.1,0.5,0.7-0.4,1,0c0.4,0.4,0.4,0.8,0,1.1C128.4,257.3,127.9,256.6,126,256L126,256z"/>
				<path id="XMLID_3836_" d="M132,256.1c-1.4-4.2-0.5-4.4,0-8.8c0.1-0.5,0.8-0.5,0.9,0c0.5,3.9-0.9,4,0.1,7.8c0.2,1,1.1-0.4,2,0
					c0.4,0.2,0.3,0.7,0,1.1C133.8,257.4,132.5,257.5,132,256.1z"/>
				<path id="XMLID_3833_" d="M137,256.2c-1.8-4-1.9-4.8,0-8.8c0.8-1.8,2.1-0.4,4,0.1c0.5,0.1,0.5,0.9,0,1c-1.4,0.4-1.9-1.2-3-0.2
					c-1,0.9-0.7,1.6,0.1,2.7c0.6,0.8,1.1-0.4,2,0.1c0.4,0.2,0.5,0.9,0,1.1c-0.9,0.4-1.5-1-2.1-0.1c-0.9,1.3-1,2,0.1,3.1
					c1,1.1,1.5-0.3,2.9,0.2c0.5,0.2,0.5,0.7,0.1,1C139.4,257.8,137.9,258.1,137,256.2L137,256.2z"/>
				<path id="XMLID_3830_" d="M142,245.6c1,0.2,1.2,1,1.8,2.2c0.6,1.2,0.8,2.6,0.8,4.3s0.1,3.2-0.5,4.3c-0.6,1.2-1,1.7-2,1.9
					c-0.4-0.3-0.5-0.6-0.1-0.9c1-0.2,1.1-0.7,1.4-1.6c0.4-0.9,0.3-2.1,0.3-3.7c0-1.5,0-2.7-0.3-3.6c-0.4-1-0.4-1.6-1.4-1.8
					C141.6,246.3,141.6,245.9,142,245.6L142,245.6z"/>
			</g>
		</g>
		<g id="XMLID_2294_">
			<path id="XMLID_128_" class="st61" d="M177.2,412.4L-134,490V67"/>
		</g>
		<path id="XMLID_1824_" class="st61" d="M183.7,126.8"/>
	</g>
</g>
<path class="st62" d="M115.5,283c-7.1,0-12.8,5.2-12.8,11.6v140.1c0,6.4,5.7,11.6,12.8,11.6h195.9c7.1,0,12.8-5.2,12.8-11.6V294.5
	c0-6.4-5.7-11.6-12.8-11.6H115.5z M120.2,410.4c4.7,0,8.6,3.6,8.6,8.1c0,4.5-3.8,8.1-8.6,8.1c-4.7,0-8.6-3.6-8.6-8.1
	C111.6,414,115.5,410.4,120.2,410.4z M165.1,410.4c4.7,0,8.6,3.6,8.6,8.1c0,4.5-3.8,8.1-8.6,8.1c-4.7,0-8.6-3.6-8.6-8.1
	C156.5,414,160.4,410.4,165.1,410.4z M213.7,410.4c4.7,0,8.6,3.6,8.6,8.1c0,4.5-3.8,8.1-8.6,8.1c-4.7,0-8.6-3.6-8.6-8.1
	C205.1,414,208.9,410.4,213.7,410.4z M262.8,410.4c4.7,0,8.6,3.6,8.6,8.1c0,4.5-3.8,8.1-8.6,8.1c-4.7,0-8.6-3.6-8.6-8.1
	C254.3,414,258.1,410.4,262.8,410.4z M307.3,410.4c4.7,0,8.6,3.6,8.6,8.1c0,4.5-3.8,8.1-8.6,8.1c-4.7,0-8.6-3.6-8.6-8.1
	C298.7,414,302.5,410.4,307.3,410.4z"/>
<g>
	<g class="st63">
		<path class="st64" d="M214.7,281.1l-5.1,6.2l-3.7,5.2l-4.6,4.1l-4.6,4.1l-7.1,1.3l-2.7,6.3l-4.9,3.8l-4.5,4.2l-3.9,4.9l-5.1,3.5
			l-4.8,3.8l-5,3l1.3-5.6l0.2-6.1l-0.7-6.1l-2.6-6.1l2.1-6.1l0.2-6.1l-1.4-6.1l0.5-5.1l-3.4,4l-4.9,3.9l-4.3,4.5l-5.6,3.1l-4.7,4.1
			l-3.6,5.4l-4.6,4.2l-5.1,3.6l-7,1.4l-2.1,7l-4.6,4.2l-7.5,1.9l2.8,6.8l-3.2,6l1.8,6l-0.4,6l0.4,6l0.9,6l-2.5,6l1.7,6l0.7,6l-0.8,6
			l-0.7,6l2,6l0.2,6l-1.4,6l-1.5,6l1.6,6l2,6l-0.8,6.6l5.1,4.7l6.7,1.5l5.9-2.1l5.9-1.2l5.9,2l5.9,2.1l5.9-0.3l5.9-3.6l5.9,3.6
			l5.9,0.4l5.9-3.5l5.9,2.5l5.9,0.6l5.9-3.5l5.9,0.4l5.9,0.8l5.9,0.4l5.9-0.5l5.9,0.7l5.9,0.7l5.9-0.9l5.9-1.5l5.9,2.7l5.9-1l5.9,0
			l5.9,1.2l5.9-0.3l5.9,1l5.9-1.3l5.9,1.4l5.9-0.9l5.9-0.8l5.9,0.2l5.9,0.6l5.9,1.1l5.3-5.2l4.5-3.2l4.4-5.2l-2.6-6l1.7-6l-2.6-6
			l4-6l-1-6l-2.1-6l-0.1-6l3.5-6l0-6l-1.9-6l-0.1-6l-1.6-6l3.6-6l-1.3-6l-0.3-6l0.6-6l-1.8-6l0.8-6.1l-1.6-6.1l2.8-6.1l-3.5-6.1
			l0.6-6.1l0.4-6.1L322,291l-0.6-3.2l-5.9,2.5l-5.4,3.6l-3.1,6l-4.6,4.4l-6.2,5.4l-1.3-8l2.6-6.2l-2.2-6.1l-0.2-4.2l-4.5,1l-2.9,5.6
			l-4.6,3.8l-3.4,5.1l-6.6,1.7l-2.6,4.1l-1.7-5l0.4-6.2l-0.8-6.2l1-6.1l-5.4,3l-2.6,6.4l-5.4,3.2l-4.1,4.7l-6,2.5l-5.4,3.2l-2.3,6.8
			l-5.9,2.6l-4.6,4.1l-5,3.6l-4,4.8l-4.3,1.9l-2.8-4.4l0.4-6.1l1.1-6.1l-1.4-6.1l2.7-6.1l-0.3-6.1l-1.8-6.2L214.7,281.1z
			 M120.2,412.3l6.3,0.1l4.2,6.1l-3.2,7.2l-7.2,2.9l-4.8-5.6l-4.9-4.5l3.2-6.3L120.2,412.3z M165.1,412.3l6.3,0.1l4.2,6.1l-3.2,7.2
			l-7.2,2.9l-4.8-5.6l-4.9-4.5l3.2-6.3L165.1,412.3z M213.7,412.3l6.3,0.1l4.2,6.1l-3.2,7.2l-7.2,2.9l-4.8-5.6l-4.9-4.5l3.2-6.3
			L213.7,412.3z M262.8,412.3l6.3,0.1l4.2,6.1l-3.2,7.2l-7.2,2.9l-4.8-5.6l-4.9-4.5l3.2-6.3L262.8,412.3z M307.3,412.3l6.3,0.1
			l4.2,6.1l-3.2,7.2l-7.2,2.9l-4.8-5.6l-4.9-4.5l3.2-6.3L307.3,412.3z"/>
	</g>
</g>
<g>
	<path class="st9" d="M199.9,303.1c6.8,0,6.8-0.1,13.5-0.1s6.8,0.2,13.5,0.2c3.4,0,5.5,2.4,5.5,5.6c0,4.1,1.1,4.1,1.1,8.1
		c0,3.3-3.2,6.2-6.6,6.2c-6.8,0-6.8,0.5-13.5,0.5s-6.8-0.8-13.5-0.8c-3.4,0-6-2.7-6-5.9c0-4.1,0.4-4.1,0.4-8.1
		C194.3,305.5,196.5,303.1,199.9,303.1z"/>
	<path class="st65" d="M199.9,303.1c6.8,0,6.8-0.1,13.5-0.1s6.8,0.2,13.5,0.2c3.4,0,5.5,2.4,5.5,5.6c0,4.1,1.1,4.1,1.1,8.1
		c0,3.3-3.2,6.2-6.6,6.2c-6.8,0-6.8,0.5-13.5,0.5s-6.8-0.8-13.5-0.8c-3.4,0-6-2.7-6-5.9c0-4.1,0.4-4.1,0.4-8.1
		C194.3,305.5,196.5,303.1,199.9,303.1z"/>
</g>
<path class="st66" d="M203.1,306.5h20.7c2.6,0,4.7,1.7,4.7,3.7v5.1c0,2.1-2.1,3.7-4.7,3.7h-20.7c-2.6,0-4.7-1.7-4.7-3.7v-5.1
	C198.4,308.2,200.5,306.5,203.1,306.5z"/>
<ellipse class="st9" cx="204.7" cy="312.8" rx="2.6" ry="2.3"/>
<ellipse class="st9" cx="222.1" cy="312.8" rx="2.6" ry="2.3"/>
<g>
	<polygon class="st67" points="110,283.2 144.5,282.3 178.9,283.8 213.4,282.4 247.9,282.6 282.3,280.6 316.8,285.5 320.3,290.1 
		322.7,327.3 324.4,364.6 326.3,401.9 321.8,439.1 316.8,447.2 282.3,448.8 247.9,447.4 213.4,444.8 179,446.5 144.5,449.8 
		110,442.9 105.2,439.1 102.8,401.9 102.9,364.6 103.2,327.3 106.6,290.1 	"/>
</g>
<path class="st68" d="M116.9,352.9h20.6c1.4,0,2.5,1.1,2.5,2.4v17.9c0,1.3-1.1,2.4-2.5,2.4h-20.6c-1.4,0-2.5-1.1-2.5-2.4v-17.9
	C114.4,354,115.5,352.9,116.9,352.9z"/>
<ellipse class="st69" cx="127.2" cy="364.2" rx="7.9" ry="7.2"/>
<path class="st68" d="M291.1,352.9h20.6c1.4,0,2.5,1.1,2.5,2.4v17.9c0,1.3-1.1,2.4-2.5,2.4h-20.6c-1.4,0-2.5-1.1-2.5-2.4v-17.9
	C288.7,354,289.8,352.9,291.1,352.9z"/>
<ellipse class="st69" cx="301.4" cy="364.2" rx="7.9" ry="7.2"/>
<path class="st70" d="M107.6,425h4.7c7,5,11.1,3.1,14.6,0h29.6c5.6,2.2,11.1,5.4,16.9,0h33.1c4.9,6.2,10.2,3.6,15.5,0h33.1
	c5.5,6.4,10.9,6.5,16.1,0h28.3c4.4,4.3,9.4,4.3,14.9,0h5.2c1.2,0,2.2,0.9,2.2,2v16c0,1.1-1,2-2.2,2H107.6c-1.2,0-2.2-0.9-2.2-2v-16
	C105.5,425.9,106.4,425,107.6,425L107.6,425z"/>
<path class="st71" d="M136.6,425.3v19.1 M142.6,425.3v19.1 M148.5,425.3v19.1 M181.1,425.3v19.1 M186.7,425.3v19.1 M191.6,425.3
	v19.1 M197.2,425.3v19.1 M230.6,425.3v19.1 M236,425.3v19.1 M241.2,425.3v19.1 M247,425.3v19.1 M279.6,425.3v19.1 M285.4,425.3v19.1
	 M291.3,425.3v19.1"/>
<path class="st70" d="M120.2,408.2c-5.7,0-10.3,4.4-10.3,9.9v26.8h20.6v-26.8C130.5,412.6,125.9,408.2,120.2,408.2L120.2,408.2z
	 M120.2,410.4c4.7,0,8.6,3.6,8.6,8.1c0,4.5-3.8,8.1-8.6,8.1c-4.7,0-8.6-3.6-8.6-8.1C111.6,414,115.5,410.4,120.2,410.4z
	 M165.1,408.2c-5.7,0-10.3,4.4-10.3,9.9v26.8h20.6v-26.8C175.4,412.6,170.8,408.2,165.1,408.2z M165.1,410.4c4.7,0,8.6,3.6,8.6,8.1
	c0,4.5-3.8,8.1-8.6,8.1c-4.7,0-8.6-3.6-8.6-8.1C156.5,414,160.4,410.4,165.1,410.4z M213.6,408.2c-5.7,0-10.3,4.4-10.3,9.9v26.8H224
	v-26.8C224,412.6,219.4,408.2,213.6,408.2L213.6,408.2z M213.7,410.4c4.7,0,8.6,3.6,8.6,8.1c0,4.5-3.8,8.1-8.6,8.1
	c-4.7,0-8.6-3.6-8.6-8.1C205.1,414,208.9,410.4,213.7,410.4z M262.8,408.2c-5.7,0-10.3,4.4-10.3,9.9v26.8h20.6v-26.8
	C273.1,412.6,268.5,408.2,262.8,408.2L262.8,408.2z M262.8,410.4c4.7,0,8.6,3.6,8.6,8.1c0,4.5-3.8,8.1-8.6,8.1
	c-4.7,0-8.6-3.6-8.6-8.1C254.3,414,258.1,410.4,262.8,410.4z M307.2,408.2c-5.7,0-10.3,4.4-10.3,9.9v26.8h20.6v-26.8
	C317.5,412.6,312.9,408.2,307.2,408.2L307.2,408.2z M307.3,410.4c4.7,0,8.6,3.6,8.6,8.1c0,4.5-3.8,8.1-8.6,8.1
	c-4.7,0-8.6-3.6-8.6-8.1C298.7,414,302.5,410.4,307.3,410.4z"/>
<g>
	<polygon class="st72" points="176,329.5 194.7,326.6 213.4,328.3 232.1,328.7 250.8,328.5 256.9,334.5 258.9,350.3 259.1,366 
		258.8,381.8 256.8,397.5 250.8,403.8 232.1,403.1 213.4,403.2 194.7,402.4 176,403.1 170,397.5 170.3,381.8 168,366 169.5,350.3 
		170.1,334.5 	"/>
	<polygon class="st73" points="176,329.5 194.7,326.6 213.4,328.3 232.1,328.7 250.8,328.5 256.9,334.5 258.9,350.3 259.1,366 
		258.8,381.8 256.8,397.5 250.8,403.8 232.1,403.1 213.4,403.2 194.7,402.4 176,403.1 170,397.5 170.3,381.8 168,366 169.5,350.3 
		170.1,334.5 	"/>
</g>
<ellipse class="st74" cx="178.8" cy="336.3" rx="2.6" ry="2.3"/>
<ellipse class="st74" cx="196.1" cy="336.3" rx="2.6" ry="2.3"/>
<ellipse class="st74" cx="213.4" cy="336.3" rx="2.6" ry="2.3"/>
<ellipse class="st74" cx="230.7" cy="336.3" rx="2.6" ry="2.3"/>
<ellipse class="st74" cx="248.1" cy="336.3" rx="2.6" ry="2.3"/>
<ellipse class="st74" cx="178.8" cy="351.2" rx="2.6" ry="2.3"/>
<ellipse class="st74" cx="196.1" cy="351.2" rx="2.6" ry="2.3"/>
<ellipse class="st74" cx="213.4" cy="351.2" rx="2.6" ry="2.3"/>
<ellipse class="st74" cx="230.7" cy="351.2" rx="2.6" ry="2.3"/>
<ellipse class="st74" cx="248.1" cy="351.2" rx="2.6" ry="2.3"/>
<g>
	<ellipse class="st74" cx="178.8" cy="366" rx="2.6" ry="2.3"/>
	<ellipse class="st74" cx="196.1" cy="366" rx="2.6" ry="2.3"/>
	<ellipse class="st74" cx="213.4" cy="366" rx="2.6" ry="2.3"/>
	<ellipse class="st74" cx="230.7" cy="366" rx="2.6" ry="2.3"/>
	<ellipse class="st74" cx="248.1" cy="366" rx="2.6" ry="2.3"/>
</g>
<g>
	<ellipse class="st74" cx="178.8" cy="380.9" rx="2.6" ry="2.3"/>
	<ellipse class="st74" cx="196.1" cy="380.9" rx="2.6" ry="2.3"/>
	<ellipse class="st74" cx="213.4" cy="380.9" rx="2.6" ry="2.3"/>
	<ellipse class="st74" cx="230.7" cy="380.9" rx="2.6" ry="2.3"/>
	<ellipse class="st74" cx="248.1" cy="380.9" rx="2.6" ry="2.3"/>
</g>
<g>
	<ellipse class="st74" cx="178.8" cy="395.8" rx="2.6" ry="2.3"/>
	<ellipse class="st74" cx="196.1" cy="395.8" rx="2.6" ry="2.3"/>
	<ellipse class="st74" cx="213.4" cy="395.8" rx="2.6" ry="2.3"/>
	<ellipse class="st74" cx="230.7" cy="395.8" rx="2.6" ry="2.3"/>
	<ellipse class="st74" cx="248.1" cy="395.8" rx="2.6" ry="2.3"/>
</g>
<g>
	<polygon class="st67" points="109.4,282.1 316.1,284.8 324.8,290.4 323.3,439.5 316.1,448.2 109.4,448.7 101.7,439.5 100.6,290.4 	
		"/>
</g>
</svg>
