<?xml version="1.0" encoding="utf-8"?>
<!-- Generator: Adobe Illustrator 19.0.0, SVG Export Plug-In . SVG Version: 6.00 Build 0)  -->
<svg version="1.1" id="Layer_1" xmlns="http://www.w3.org/2000/svg" xmlns:xlink="http://www.w3.org/1999/xlink" x="0px" y="0px"
	 viewBox="-184 42 501 477" style="enable-background:new -184 42 501 477;" xml:space="preserve">
<style type="text/css">
	.st0{display:none;fill:none;stroke:#8E8E8E;stroke-width:2;stroke-miterlimit:10;}
	.st1{fill:#FED44B;}
	.st2{fill:#4079A8;}
	.st3{fill:#BA9DA9;}
	.st4{fill:#FEE087;}
	.st5{fill:#EDEDED;}
	.st6{fill:#D8D8D8;}
	.st7{fill:#EFEFEF;}
	.st8{fill:#FECB34;}
	.st9{fill:#989898;}
	.st10{fill:#FEFEFE;}
	.st11{fill:#81868F;}
	.st12{fill:#FCFCFC;}
	.st13{fill:#BABABA;}
	.st14{fill:#D0D0D0;}
	.st15{fill:#EDCB85;}
	.st16{fill:#EDC57E;}
	.st17{fill:#BEE7ED;}
	.st18{fill:#DF7E55;}
	.st19{fill:#5F618D;}
	.st20{fill:#E3FEFB;}
	.st21{fill:#3A498B;}
	.st22{fill:#C7D2DE;}
	.st23{fill:#FAFEF6;}
	.st24{fill:#3C3050;}
	.st25{fill:#DADA8F;}
	.st26{fill:#D63727;}
	.st27{fill:#D7392A;}
	.st28{fill:#F7CC7F;}
	.st29{fill:#FEDA8F;}
	.st30{fill:#FED387;}
	.st31{fill:#3A3A8F;}
	.st32{fill:#003A8F;}
	.st33{fill:#8F3A00;}
	.st34{fill:#3A6B9C;}
	.st35{fill:#356799;}
	.st36{fill:#3E6E9E;}
	.st37{fill:#3B6C9D;}
	.st38{fill:#40709F;}
	.st39{fill:#4472A1;}
	.st40{fill:#346799;}
	.st41{fill:#35679A;}
	.st42{fill:#36689A;}
	.st43{fill:#FAEFEC;}
	.st44{fill:#E59176;}
	.st45{fill:#E18C64;}
	.st46{fill:#E39172;}
	.st47{fill:#F6F8FA;}
	.st48{fill:#FBFCFD;}
	.st49{fill:#FCFDFD;}
	.st50{fill:#FAFBFC;}
	.st51{fill:#B5C7D9;}
	.st52{fill:#F7F8FA;}
	.st53{fill:#C7D5E2;}
	.st54{fill:#FFFFFF;}
	.st55{fill:#1C8682;}
	.st56{fill:#336698;}
	.st57{fill:#4A77A4;}
	.st58{fill:#4976A3;}
	.st59{fill:#4C79A5;}
	.st60{fill:#000096;}
	.st61{fill:none;stroke:#8E8E8E;stroke-width:2;stroke-miterlimit:10;}
	.st62{fill:#45F4B5;filter:url(#black-glow);}
	.st63{opacity:0.387;}
	.st64{fill:none;stroke:#1A1A1A;stroke-width:2.06;stroke-linecap:round;}
	.st65{fill:#242424;}
	.st66{fill:none;stroke:#002B34;stroke-width:2.06;stroke-linecap:round;}
	.st67{fill:#989898;stroke:#1A1A1A;stroke-width:0.99;stroke-linecap:round;}
	.st68{fill:#333333;stroke:#232323;stroke-width:4.618;stroke-linecap:round;}
	.st69{fill:#FFDD55;stroke:#8C4F27;stroke-width:0.825;stroke-linecap:round;stroke-linejoin:round;}
	.st70{fill:none;stroke:#8C4F27;stroke-width:0.825;}
	.st71{fill:#CCCCCC;}
	.st72{fill:#CCCCCC;stroke:#002B34;stroke-width:1.386;stroke-linecap:round;stroke-linejoin:round;}
	.st73{fill:#FFFFFF;fill-opacity:0.482;}
</style>
<filter  id="black-glow">
	
		<feColorMatrix  type="matrix" values="0 0 0 0   0                          0 0 0 0   0                          0 0 0 0   0                          0 0 0 0.7 0">
		</feColorMatrix>
	<feGaussianBlur  stdDeviation="15" result="coloredBlur"></feGaussianBlur>
	<feMerge>
		<feMergeNode  in="coloredBlur"></feMergeNode>
		<feMergeNode  in="SourceGraphic"></feMergeNode>
	</feMerge>
</filter>
<path id="XMLID_8_" class="st0" d="M-83.5,422.9l-357.9,98.4v-536l357.9,81.2V422.9z"/>
<g>
	<g id="XMLID_2871_">
		<path id="XMLID_650_" class="st1" d="M-148.1,61c2.2,0.3,3.1,1.8,3.2,4.4c0.1,2.8-0.9,4-3.3,3.4c-1.4,0.4-1.6,1.9-1.8,3.3
			c-2.7-0.1-5.1-0.9-5-5.1c-1.3-2.8-0.4-4.2,1.8-4.2C-151.2,62.8-149.7,61.9-148.1,61z"/>
	</g>
	<g id="XMLID_2870_">
		<path id="XMLID_640_" class="st2" d="M-148.1,61c0,3.2-1.6,3.9-4,3c-2.4-0.9-3.2,0.3-2.9,3c-2.2,0.3-3-1.2-3.2-3.5
			c-0.2-2.9,0.6-4.6,3.3-4c1.5-0.3,1.8-1.7,1.8-3.3C-150.6,56.3-148.2,56.7-148.1,61z"/>
	</g>
	<g id="XMLID_2866_">
		<path id="XMLID_201_" class="st3" d="M-147.1,69.4v-8.1C-145,64.9-147,67-147.1,69.4z"/>
	</g>
	<g id="XMLID_2865_">
		<path id="XMLID_190_" class="st4" d="M-157.3,70.9c-0.4-1.9-2.1-5.1,1.8-3.4C-155.8,68.7-156,70.3-157.3,70.9z"/>
	</g>
	<g id="XMLID_3111_">
		<path id="XMLID_1541_" class="st5" d="M-168.4,503.8V71.2c0.8-0.8,2-0.6,3.1-0.5c1.2,0.2,2.2,0.4,3.3,0.6
			c133.8,27.3,234.9,47.9,314,64.1c0.9,0.2,2,0,2.9,1.4v288c-0.4,0.5-0.9,0.4-1.5,0.5C73.6,444.9-28.8,470-165.1,503.2
			C-166.2,503.5-167.4,504.2-168.4,503.8z"/>
	</g>
	<g id="XMLID_3110_">
		<path id="XMLID_1537_" class="st6" d="M-163.6,496.8v-341c0-5.8-0.4-5.1,4.4-4.6c15,1.8,29.5,3.6,43.6,5.3c2.3,0.2,3,1.2,2.8,4
			c-0.2,3.2,0,6.5,0,9.9c0,1.6,0.4,2.4,1.8,2.4c0.8,0,1.6,0.2,2.4,0.2c107.7,11.3,192.5,20,261.1,27.2c0.4,0.9,0.3,1.8,0.3,2.8
			v215.7c0,3,0,3-1.7,3.4c-78.6,18.8-178.9,42.7-311.4,74.2C-161.4,496.7-162.5,497.2-163.6,496.8L-163.6,496.8z"/>
	</g>
	<g id="XMLID_3073_">
		<path id="XMLID_1533_" class="st7" d="M-163.6,496.8c134-31.8,235.3-56,314.6-74.7c1.3-0.3,1.6-0.9,1.6-3.2V200.2
			c0.4,0.1,0.5,0.5,0.5,1.2v217.1c0,3.9,0.2,3.4-2,4c-78.6,18.8-178.7,42.7-310.9,74.3C-161.1,496.9-162.4,497.9-163.6,496.8z"/>
	</g>
	<g id="XMLID_3071_">
		<path id="XMLID_1529_" class="st8" d="M124.4,154.4c0,8.9-4.3,15.5-9.6,14.8c-5.4-0.8-9.9-8.8-9.8-18c0-9.2,4.5-15.8,9.9-14.7
			C120.1,137.3,124.4,145.4,124.4,154.4z"/>
	</g>
	<g id="XMLID_3015_">
		<path id="XMLID_1525_" class="st9" d="M137.7,125.4c0.3,2.4-0.4,2.3-1.5,2.1c-1.3-0.1-1.4-1.1-1.4-2.9c-0.1-2.3,0.4-2.4,1.6-2.1
			C137.6,122.8,138,123.6,137.7,125.4L137.7,125.4z"/>
	</g>
	<g id="XMLID_3014_">
		<path id="XMLID_1521_" class="st9" d="M122,122.2c0.8,0.2,1.7,0.3,2.5,0.5v0.2c-0.8-0.2-1.7-0.3-2.5-0.5V122.2z"/>
	</g>
	<g id="XMLID_3013_">
		<path id="XMLID_1517_" class="st10" d="M25.5,451.2c-53.1,12.6-114,27-184.6,43.8c-3.9,1-3.9,0.9-3.9-3.8V156.2
			c0-4.7,0-4.7,3.9-4.2c14.8,1.8,29,3.5,42.8,5.1c2.3,0.2,3.3,1,3,4.1c-0.2,3,0,6.1-0.1,9.2c-0.1,2.3,0.6,3.1,2.3,3.1
			c0.7,0,1.5,0.1,2.2,0.2c106.6,11,190.9,19.7,259.1,26.8c2.2,0.2,2-0.2,2,3.6v213.5c0,4,0.2,3.4-2,4
			C113.4,430.4,72.1,440.2,25.5,451.2L25.5,451.2z"/>
	</g>
	<g id="XMLID_3010_">
		<path id="XMLID_1513_" class="st10" d="M106.4,151c0.1-8,3.8-13.2,8.7-12.1c4.6,1.1,8.1,7.7,8,15.7c-0.1,7.8-3.7,13.1-8.5,12.2
			C109.7,165.8,106.3,159.1,106.4,151z"/>
	</g>
	<g id="XMLID_3009_">
		<path id="XMLID_1509_" class="st10" d="M136.2,123.2c1-0.1,1.3,0.6,1.3,2.3c0,1.5-0.2,1.9-1.2,1.7s-1.3-0.8-1.3-2.4
			C135.2,123.4,135.3,122.4,136.2,123.2z"/>
	</g>
	<g id="XMLID_3008_">
		<path id="XMLID_1505_" class="st11" d="M25.5,188c46.7,4.8,87.9,9,124.8,12.8c1.4,0.1,1.7,0.8,1.7,3.2v213.3c0,2.3-0.2,3-1.6,3.3
			C72.2,439-27.5,462.6-158.8,493.6c-2.9,0.6-3.6,0-3.6-3.4c0.1-105.7,0.1-211.3,0-316.9c0-4,1-4.4,4-4.2
			C-88.1,176.5-27.5,182.7,25.5,188L25.5,188z"/>
	</g>
	<g id="XMLID_3004_">
		<path id="XMLID_1501_" class="st12" d="M-123.6,173.6c1,0.1,2,0.1,3,0.2c112.2,11.5,200,20.4,270.6,27.6c1.4,0.1,1.8,0.6,1.8,3.2
			v212.3c0,2.3-0.2,3.1-1.7,3.5c-70.6,16.5-158.6,37.2-270.9,63.6c-0.9,0.2-1.9,0.3-2.7,0.5c-0.9-1-0.8-2.5-0.9-4V180.4
			C-124.6,178.1-125.1,175.5-123.6,173.6L-123.6,173.6z"/>
	</g>
	<g id="XMLID_3003_">
		<path id="XMLID_1497_" class="st13" d="M154.9,136.8l-323.7-65.6V49.5l323.7,72.9V136.8z"/>
	</g>
	<g id="XMLID_3002_">
		<path id="XMLID_1493_" class="st8" d="M5.8,153.4c-7.3-1.1-13.3-10.5-13.3-21.2s6.1-18.1,13.4-16.6c7.2,1.4,12.9,10.8,12.9,21.2
			C18.8,147,13,154.5,5.8,153.4L5.8,153.4z"/>
	</g>
	<g id="XMLID_3001_">
		<path id="XMLID_1489_" class="st8" d="M99.8,150.3c0,9.2-4.7,16-10.5,15.1c-5.9-0.9-10.6-9.4-10.6-19c0-9.3,4.9-16.1,10.7-14.9
			C95.2,132.6,99.8,141.1,99.8,150.3z"/>
	</g>
	<g id="XMLID_2998_">
		<path id="XMLID_1485_" class="st8" d="M-11.7,131.6c0,10.7-6.2,18.5-14,17.4c-8-1.2-14.3-11.1-14.3-22.3
			c0-10.9,6.5-18.7,14.3-17.2S-11.7,120.8-11.7,131.6z"/>
	</g>
	<g id="XMLID_2997_">
		<path id="XMLID_1481_" class="st8" d="M-140.7,87.4c10.2,1.9,18.1,13.3,18.1,25.5s-8,20.9-18.1,19.5
			c-10.2-1.5-18.6-12.9-18.7-25.4C-159.4,94.1-151,85.5-140.7,87.4z"/>
	</g>
	<g id="XMLID_2996_">
		<path id="XMLID_1477_" class="st8" d="M25.1,137.8c0-10.3,5.4-17.6,12.2-16.3c6.6,1.2,11.9,10.3,11.9,20.3
			c0,9.9-5.2,17.2-11.8,16.2C30.6,157.1,25.1,148.1,25.1,137.8L25.1,137.8z"/>
	</g>
	<g id="XMLID_2993_">
		<path id="XMLID_1473_" class="st8" d="M-47.4,125.4c0,11.3-6.7,19.4-15.2,18.2c-8.7-1.2-15.8-11.6-15.8-23.3
			c0-11.5,7-19.5,15.6-18S-47.4,114.2-47.4,125.4L-47.4,125.4z"/>
	</g>
	<g id="XMLID_2992_">
		<path id="XMLID_1469_" class="st8" d="M75.4,146c0.5,8.3-4.2,16.8-11,15.8c-6.3-1-11.5-9.9-11.5-19.6c0.1-9.9,5.3-16.8,11.5-15.5
			C70.7,128,75.4,136.4,75.4,146z"/>
	</g>
	<g id="XMLID_2991_">
		<path id="XMLID_1465_" class="st8" d="M-117.1,113.9c-0.7-10.6,6.8-20.7,17.1-18.5c9.1,1.8,16.4,12.6,16.5,24.1
			c0.1,11.5-7.4,20.2-16.5,18.9C-110.2,136.8-117.9,124.4-117.1,113.9z"/>
	</g>
	<g id="XMLID_2987_">
		<path id="XMLID_1461_" class="st14" d="M-43.8,106.1v51.5H-44v-51.5H-43.8z"/>
	</g>
	<g id="XMLID_2986_">
		<path id="XMLID_1457_" class="st15" d="M36.5,165.9v-1.2c0.1-0.6,0.3-1,0.8-0.4c0.7,1.3,0.5,2.1-0.3,2.8
			C36.8,166.6,36.7,166.3,36.5,165.9z"/>
	</g>
	<g id="XMLID_2985_">
		<path id="XMLID_1453_" class="st16" d="M37.7,163.7c0.4,0.1,0.4,0.8,0.6,1.2c0.7,1.1,0.4,1.7-0.3,2.3h-0.4
			C37.4,166,37.4,164.8,37.7,163.7L37.7,163.7z"/>
	</g>
	<g id="XMLID_2984_">
		<path id="XMLID_1449_" class="st17" d="M37.7,163.7v3.4c-0.3,0-0.5-0.1-0.8-0.1c0.4-0.9,0.4-1.8,0.3-2.8
			C37.4,164,37.6,163.9,37.7,163.7L37.7,163.7z"/>
	</g>
	<g id="XMLID_2981_">
		<path id="XMLID_1234_" class="st10" d="M6,150.6c-6.5-1-11.4-8.7-11.4-18.1c0-9.3,4.8-15.4,11.3-14.3c6.4,1.2,11.1,8.9,11.1,18.1
			C16.9,145.4,12.3,151.6,6,150.6L6,150.6z"/>
	</g>
	<g id="XMLID_2980_">
		<path id="XMLID_1230_" class="st10" d="M89.4,163c-5-0.8-9-7.7-9-16c0-8.4,4.1-13.9,9.2-12.9c4.9,1.1,8.7,8,8.7,16.1
			C98.2,158.1,94.4,163.7,89.4,163L89.4,163z"/>
	</g>
	<g id="XMLID_2979_">
		<path id="XMLID_1226_" class="st10" d="M-13.7,131.1c0,9.5-5,16-11.9,14.9c-6.9-1.1-12.1-9.1-12.1-18.8c0-9.9,5.3-16.2,12.3-14.8
			C-18.8,113.8-13.7,121.7-13.7,131.1z"/>
	</g>
	<g id="XMLID_2976_">
		<path id="XMLID_1222_" class="st10" d="M-125.2,112.6c0,10.8-6.6,17.9-15.6,16.5s-15.8-10.7-15.8-21.9c0-11.3,7-18.2,16.1-16.4
			C-131.7,92.5-125.2,101.8-125.2,112.6z"/>
	</g>
	<g id="XMLID_2975_">
		<path id="XMLID_1202_" class="st10" d="M37.3,155.2C31.5,154.4,27,147,27,138c0-9.1,4.5-15,10.5-13.8c5.9,1.2,10,8.5,10.2,17.2
			C47.6,150.3,43.2,156.2,37.3,155.2L37.3,155.2z"/>
	</g>
	<g id="XMLID_2974_">
		<path id="XMLID_1164_" class="st10" d="M-62.7,140.6c-7.6-1.2-13.4-9.8-13.3-20.2c0.1-10.1,5.9-16.5,13.5-15
			c7.5,1.5,13,10,12.9,20C-49.7,135.3-55.3,141.7-62.7,140.6z"/>
	</g>
	<g id="XMLID_2970_">
		<path id="XMLID_1160_" class="st10" d="M64.6,129.4c5.3,1.1,9.4,8.4,9.4,16.6c0,8.5-4.3,14.3-9.8,13.2c-5.4-1-9.5-8.3-9.4-16.9
			C54.8,133.8,59.2,128.2,64.6,129.4z"/>
	</g>
	<g id="XMLID_2969_">
		<path id="XMLID_1156_" class="st10" d="M-100.1,135.1c-8.3-1.2-14.9-10.3-14.9-20.9c0-10.4,6.5-17.4,14.6-15.9
			c8.1,1.5,14.2,10.4,14.3,20.5C-85.8,129.2-91.9,136.2-100.1,135.1z"/>
	</g>
	<g id="XMLID_2968_">
		<path id="XMLID_1152_" class="st18" d="M-121.5,159.3c0.6,0.1,1,0.6,1,1.4c-0.2,0.4-0.3,0.9-0.4,1.4c-0.2,1.8,0.3,3.9-0.4,5.6
			c-1.5,0.9-3-0.1-4.5,0.1c-0.4,0.1-0.8,0.2-1.2,0.4c-0.6-0.1-1-0.6-1-1.4c0.2-0.2,0.3-0.5,0.4-0.9c0-0.2,0.1-0.4,0.1-0.6
			c0-7.1,0-5.8,4.9-5.5C-122.3,159.6-121.8,159.5-121.5,159.3L-121.5,159.3z"/>
	</g>
	<g id="XMLID_2967_">
		<path id="XMLID_1148_" class="st19" d="M-142.3,164.5c-0.8,0.3-2,1.9-2.4-0.9c-0.4-0.9-0.4-1.6,0-2.4c0.7-0.5,1-1.5,1.5-2.5
			c0.8,0.9,0,2.3,0.9,2.9C-141.7,162.7-141.7,163.6-142.3,164.5z"/>
	</g>
	<g id="XMLID_2963_">
		<path id="XMLID_1144_" class="st20" d="M-145.2,163.5l-1.3,1.3c-0.9-1.3-0.5-3.2-1.7-4.4c0.1-1.6,1-1.3,1.9-1.1
			c1,0.2,0.9,1.3,1,2.3C-144.9,162.1-144.9,162.9-145.2,163.5z"/>
	</g>
	<g id="XMLID_2961_">
		<path id="XMLID_1140_" class="st21" d="M-148.1,160.3c2.9,0.4,1.3,2.9,1.7,4.4C-149.7,164.5-147.7,161.9-148.1,160.3z"/>
	</g>
	<g id="XMLID_2956_">
		<path id="XMLID_1136_" class="st22" d="M-138.9,162.9c0.8-0.5,1.8-1.1,2.2,0.6c0.3,1.5-0.4,2.3-1.7,2.3c-0.3-0.6-0.8-1.3-0.8-2
			C-139.2,163.3-139.1,163-138.9,162.9L-138.9,162.9z"/>
	</g>
	<g id="XMLID_2955_">
		<path id="XMLID_1132_" class="st23" d="M-138.9,163.5c0.2,0.8,0.3,1.5,0.5,2.1c-1-1-2.3,0.2-3.3-0.8
			C-141.8,162.4-141.5,162.2-138.9,163.5z"/>
	</g>
	<g id="XMLID_2954_">
		<path id="XMLID_1128_" class="st24" d="M-138.9,163.5c-0.9,0.5-2.8-1.4-2.8,1.5c-0.2-0.1-0.4-0.3-0.5-0.4v-2.7
			c1.3-0.2,2.4,0,3.5,1.1C-138.9,163.1-138.9,163.3-138.9,163.5z"/>
	</g>
	<g id="XMLID_2953_">
		<path id="XMLID_1124_" class="st25" d="M-154,159.9c1.5-0.2,1.9,0.8,1.8,2.3c-0.1,0.8,0.5,2.7-1.3,1.4
			C-154.2,162.3-154.1,161-154,159.9z"/>
	</g>
	<g id="XMLID_2950_">
		<path id="XMLID_1120_" class="st26" d="M-121,161.5c0.2-0.2,0.3-0.4,0.5-0.6c-0.2,2.5,0.7,5.1-0.5,7.4c-0.1-0.1-0.2-0.3-0.2-0.4
			v-1.1C-121.1,164.9-121.4,163.1-121,161.5z"/>
	</g>
	<g id="XMLID_2949_">
		<path id="XMLID_1116_" class="st27" d="M-127.5,166.8c-0.2,0-0.4,0-0.5-0.1c0.2-2.5-0.7-5.3,0.5-7.5c0.1,0.2,0.2,0.3,0.2,0.5
			C-127.4,162.1-127.1,164.6-127.5,166.8z"/>
	</g>
	<g id="XMLID_2948_">
		<path id="XMLID_1112_" class="st27" d="M-121.5,159.3l-0.6,0.6c-1.8,0.1-3.7,0.1-5.5-0.8v0.1
			C-125.6,157.9-123.5,159.3-121.5,159.3z"/>
	</g>
	<g id="XMLID_2944_">
		<path id="XMLID_1108_" class="st26" d="M-127,168.2l0.6-0.6c1.9-0.2,3.7-0.1,5.4,0.6C-122.9,169.5-125,168.2-127,168.2z"/>
	</g>
	<g id="XMLID_2943_">
		<path id="XMLID_1104_" class="st28" d="M-154,159.9c0.6,1.2,0.6,2.4,0.5,3.6C-154.9,163.1-155,162.5-154,159.9z"/>
	</g>
	<g id="XMLID_2942_">
		<path id="XMLID_1100_" class="st29" d="M-156.7,159.7c1.2,1.1,1.2,2,0.3,3.2C-157.2,161.8-157.1,160.8-156.7,159.7z"/>
	</g>
	<g id="XMLID_2941_">
		<path id="XMLID_1096_" class="st30" d="M-150.9,160.8c1,1.1,1,1.9,0.3,3.5C-151.2,163-151,162-150.9,160.8z"/>
	</g>
	<g id="XMLID_2938_">
		<path id="XMLID_1092_" class="st31" d="M-145.2,163.5v-2c0.2,0,0.3,0,0.5-0.1v2.4C-144.9,163.6-145,163.5-145.2,163.5z"/>
	</g>
	<g id="XMLID_2937_">
		<path id="XMLID_1088_" class="st32" d="M-132.1,161.6c0.1,0.1,0.4,0.1,0.4,0.2c0,0.4-0.2,0.3-0.4,0.3V161.6z"/>
	</g>
	<g id="XMLID_2936_">
		<path id="XMLID_1084_" class="st33" d="M-132.1,161.6v0.4c-0.1-0.1-0.4-0.1-0.4-0.2C-132.5,161.5-132.3,161.5-132.1,161.6z"/>
	</g>
	<g id="XMLID_2932_">
		<path id="XMLID_1080_" class="st34" d="M6,141.6c-1.8-0.3-3.6-0.6-5.3-0.9c-1.3-0.1-1.8-0.9-1.8-2.7c0-2.4,0.1-4.7,0-7.2
			c0-1.8,0.4-2.5,1.7-2.1c3.6,0.6,7.1,1.3,10.6,1.8c1,0.2,1.6,0.9,1.6,2.5c0.5,9.8,0.5,9.8-6,8.7C6.6,141.7,6.2,141.6,6,141.6
			L6,141.6z"/>
	</g>
	<g id="XMLID_2931_">
		<path id="XMLID_1076_" class="st35" d="M114.7,160c-1.7-0.4-3-1.9-3.7-4.7c-0.6-2.7-0.4-5.1,0.6-7.1c0.3-0.6,0.8-1.5,1.4-0.6
			c0.7,1,0.1,1.6-0.3,2.3c-1,2-1,4.5,0.1,6.4c1,1.8,2.7,2.1,3.8,0.6c1.2-1.5,1.2-4,0.2-6.4c-0.3-0.8-0.9-1.6-0.3-2.4
			c0.5-0.6,1,0.3,1.4,1.1c1,2.1,1.3,5.1,0.6,7.5C117.7,159.1,116.4,160.2,114.7,160L114.7,160z"/>
	</g>
	<g id="XMLID_2930_">
		<path id="XMLID_1072_" class="st35" d="M114.1,148.9v-2c0-0.9,0-1.8,0.7-1.7c0.6,0.1,0.6,1.1,0.6,1.8v4.5c0,0.8-0.1,1.6-0.7,1.5
			c-0.6-0.1-0.6-1-0.6-1.8V148.9z"/>
	</g>
	<g id="XMLID_2929_">
		<path id="XMLID_1068_" class="st36" d="M89.4,154.8c-2.2-0.4-4.1-3.4-4.4-7.1c-0.2-3.8,1.2-6.6,3.3-7.2c0.4-0.1,0.7-0.3,1,0.2
			c0.4,0.8-0.1,1.1-0.3,1.5c-0.7,1.7-0.9,3.6-0.1,5.7c0.8,2.1,2,3,3.3,2.7c0.3-0.1,0.7-0.3,0.9,0.2c0.2,0.6-0.1,1.1-0.3,1.6
			C92.4,154.2,90.8,155.1,89.4,154.8L89.4,154.8z"/>
	</g>
	<g id="XMLID_2925_">
		<path id="XMLID_1064_" class="st37" d="M-25.5,127.5c0.8,0.1,1.8,0.2,2.6,0.4c2.1,0.5,3.7,2.9,3.7,5.6c0,2.6-1.4,4.7-3.3,4.6
			c-2-0.1-4.1-0.4-6.2-1c-2.1-0.5-3.3-3.1-3.2-5.8s1.5-4.5,3.6-4.3C-27.3,127.1-26.4,127.3-25.5,127.5z"/>
	</g>
	<g id="XMLID_2924_">
		<path id="XMLID_1060_" class="st38" d="M-24.3,123.2c0.2-0.5,0.7-0.6,0.8-0.1c0.3,1.5-0.9,1.6-1.3,2.6c-0.2,0.5-0.7,1.1-1.3,0.3
			c-0.7-1.2-2-2.1-2-4.3c0.7,0,0.9,1.1,1.2,1.4c1.5-0.3-0.5-3.8,1.6-3.4c0.6,1.2-0.2,2.6,0.5,3.8c0,0,0.1,0.1,0.2,0L-24.3,123.2
			L-24.3,123.2z"/>
	</g>
	<g id="XMLID_2923_">
		<path id="XMLID_1056_" class="st39" d="M-24.3,123.2c-0.4,0.6-0.7,0.4-0.8-0.3c-0.1-1.1,0-2.1-0.1-3.2
			C-24.2,120.6-25.5,122.2-24.3,123.2L-24.3,123.2z"/>
	</g>
	<g id="XMLID_2922_">
		<path id="XMLID_1052_" class="st40" d="M-133.7,110.8c0.2,2.1-0.7,2.6-2.2,2c-2-0.6-3.3-0.3-2.9,2.8c0.2,1.5,0.2,3-1.8,2.8
			c-2.1-0.2-2.2-1.8-2-3.5c0.3-2.7-0.7-3.6-2.7-3.6c-1.3,0-2.5-0.3-2.5-2.7s1-2.7,2.5-2.1c2.5,1,2.9-0.5,2.7-3.1
			c-0.1-1.6,0.1-2.7,1.8-2.5c1.8,0.2,2.2,1.5,2,3.2c-0.4,3,0.8,4,3,4C-134.4,108.1-133.5,108.8-133.7,110.8L-133.7,110.8z"/>
	</g>
	<g id="XMLID_2919_">
		<path id="XMLID_1048_" class="st41" d="M41.2,140.3c0,0.3,0.1,0.9-0.1,1.2c-0.9,2.1-0.2,3.8,0.9,5.4c0.5,0.8,1.3,1.7,0.5,2.6
			s-1.3-0.2-1.7-1.1c-0.9-2-1.9-2.5-3.5-2c-2.5,0.9-5.2-2.8-5.5-7.1c-0.3-4,1.8-7.3,4.4-7.1C38.9,132.5,41.1,136.2,41.2,140.3
			L41.2,140.3z"/>
	</g>
	<g id="XMLID_2918_">
		<path id="XMLID_1044_" class="st42" d="M-62.6,130.7c-1.6-0.2-3.2-0.6-4.8-0.8s-2.4-0.9-2.4-3.2c0-2.5,0.6-3.2,2.4-2.7
			c1.4,0.3,2.7,0.3,3.8,2.1c0.5,1,1.6,1.2,2.2,0.3c0.9-1.4,2.2-1.1,3.5-1c1.5,0.2,2.5,0.4,2.6,3.2c0,2.7-0.8,3.1-2.6,2.7
			C-59.6,131.1-61,130.9-62.6,130.7L-62.6,130.7z"/>
	</g>
	<g id="XMLID_2917_">
		<path id="XMLID_1040_" class="st40" d="M-62.5,113.3c1.8,0,1.6,1.5,1.6,2.9c-0.1,1.8-0.1,3.4,1.9,3.5c1,0.1,0.8,1.1,0.3,1.7
			c-1,1.2-2,2.4-3,3.5c-0.6,0.8-1,0.4-1.6-0.4c-0.6-1.1-1.4-2-2.1-3.1c-0.9-1.5-2.8-3.3,0.5-3c1.5,0.1,0.7-1.9,0.7-3.1
			C-64.2,114-64.1,112.7-62.5,113.3L-62.5,113.3z"/>
	</g>
	<g id="XMLID_2914_">
		<path id="XMLID_1036_" class="st35" d="M68,145c0,0.3,0,1-0.1,1.4c-0.7,1.7-0.1,2.9,0.7,4.3c0.4,0.8,1.6,1.7,0.7,2.9
			c-0.7,1.2-1.4-0.4-1.8-1.3c-0.8-1.6-1.6-2.1-2.8-1.6c-1.7,0.8-3.7-1-4.7-3.6c-0.9-2.5-0.8-5.7,0.2-7.7c1.2-2.1,3.1-2.7,4.9-1.4
			C66.9,139.1,68,141.8,68,145L68,145z"/>
	</g>
	<g id="XMLID_2913_">
		<path id="XMLID_1032_" class="st35" d="M-100.3,126.2c-1.9-0.3-3.9-0.8-5.8-0.9c-1.9-0.2-1.9-1.7-1.9-3.3c0-1.7,0-3.2,1.9-2.8
			c1.3,0.3,2.5,0.3,3.8,1.6c1.3,1.3,3.1,1.6,4.5,0.6c1.4-1.1,2.6-0.3,4-0.1c1.8,0.3,1.3,2.1,1.3,3.4c0.1,1.4,0.1,2.8-1.5,2.5
			C-96.1,126.7-98.2,126.5-100.3,126.2z"/>
	</g>
	<g id="XMLID_2912_">
		<path id="XMLID_1028_" class="st40" d="M-100.1,120.1c-1.9,0.1-1.9-1.4-1.9-3.1c0-1.6,0.4-3.4-1.8-3.5c-1.2,0-1.2-1-0.5-1.7
			c1-1.3,2.2-2.5,3.3-3.8c0.6-0.8,1.2-0.4,1.8,0.4c0.7,1.1,1.6,2.1,2.2,3.2c0.8,1.3,3,3.2-0.4,3c-1.6-0.1-0.7,2-0.8,3.1
			C-98.4,119.3-98.3,120.8-100.1,120.1L-100.1,120.1z"/>
	</g>
	<g id="XMLID_2905_">
		<path id="XMLID_1024_" class="st5" d="M-123.6,173.6v310.9c-11.7,2.8-23.6,5.6-36,8.6c-1.8,0.4-2.4-0.1-2.2-2.1
			c0.1-0.6,0-1.2,0-1.8c0-105.1,0-210-0.1-315.1c0-3.5,0.6-4.5,3.7-4.2C-146.3,171.3-134.9,172.4-123.6,173.6L-123.6,173.6z"/>
	</g>
	<g id="XMLID_2904_">
		<path id="XMLID_1020_" class="st43" d="M-122.2,166.2c-3.1-1.4-3.1-1.4-3.6-4.7c1,0.4,2,1.3,3.1,0.2
			C-123,163.3-123.2,164.5-122.2,166.2z"/>
	</g>
	<g id="XMLID_2903_">
		<path id="XMLID_1016_" class="st44" d="M-127.6,159.2c1.9,0.2,3.7,0.4,5.5,0.8c-4.5-1.1-5.2,2.6-5.4,6.9
			C-127.5,164.3-127.6,161.8-127.6,159.2z"/>
	</g>
	<g id="XMLID_2902_">
		<path id="XMLID_1012_" class="st45" d="M-120.9,168.2c-1.8-0.2-3.7-0.4-5.4-0.6c1.6-1.1,3.3,0,5-0.1c0.1-0.3,0.3-0.3,0.4,0
			C-121,167.8-121,168-120.9,168.2L-120.9,168.2z"/>
	</g>
	<g id="XMLID_2901_">
		<path id="XMLID_1008_" class="st46" d="M-121,167.6h-0.4c0.2-2-0.5-4.3,0.4-6.1V167.6z"/>
	</g>
	<g id="XMLID_2900_">
		<path id="XMLID_999_" class="st47" d="M5.9,140.2c-0.4-0.1-0.8-0.1-1.3-0.2c-5.2-0.9-5.2-0.9-4.8-8.4c0.1-1.5,0.4-1.7,1.4-1.6
			c3.1,0.6,6.3,1.1,9.4,1.6c0.2,0,0.5,0,0.6,0.1c1.5,2.6,0.3,5.1,0.6,7.8c0.1,1.4-0.5,1.5-1.3,1.3C9,140.8,7.4,140.6,5.9,140.2
			L5.9,140.2z"/>
	</g>
	<g id="XMLID_2899_">
		<path id="XMLID_985_" class="st48" d="M92,152.2c-2.1,2.3-4.4,1.4-5.7-1.9c-1.3-3.3-0.6-6.6,1.7-8.3c-0.3,2.3-0.5,4.3,0.3,6.4
			C89.3,150.6,90.5,151.7,92,152.2z"/>
	</g>
	<g id="XMLID_2896_">
		<path id="XMLID_981_" class="st49" d="M-25.7,135.4c-0.8-0.1-1.8-0.2-2.6-0.4c-1.4-0.3-2.1-1.5-2.1-3.2c0-1.6,0.6-2.8,1.8-2.7
			c2.1,0.2,4.1,0.5,6.2,1c1.2,0.3,1.8,1.6,1.8,3.2c0,1.8-0.8,2.7-2.1,2.5C-23.8,135.8-24.7,135.6-25.7,135.4L-25.7,135.4z"/>
	</g>
	<g id="XMLID_2895_">
		<path id="XMLID_977_" class="st50" d="M36.5,135c1.7,0.2,3,2.5,3,4.9s-1.4,4.2-3,3.9c-1.6-0.3-2.8-2.4-2.9-4.7
			C33.6,136.5,34.8,134.8,36.5,135z"/>
	</g>
	<g id="XMLID_2894_">
		<path id="XMLID_973_" class="st51" d="M-56.6,129.4c-0.2,0.3-0.3,0.6-0.4,0.6c-0.3,0-0.6-0.3-0.5-0.9c0-0.2,0.3-0.4,0.5-0.4
			C-57.1,128.8-56.9,129.2-56.6,129.4z"/>
	</g>
	<g id="XMLID_2890_">
		<path id="XMLID_968_" class="st52" d="M63.8,139.7c1.6,0.3,2.7,2.5,2.7,4.8c-0.1,2.3-1.3,3.9-2.7,3.6c-1.6-0.2-2.8-2.4-2.8-4.7
			C60.9,141.1,62.2,139.4,63.8,139.7z"/>
	</g>
	<g id="XMLID_2889_">
		<path id="XMLID_964_" class="st53" d="M-96.7,125.3c-0.2-0.3-0.4-0.6-0.4-0.9s0.3-0.5,0.4-0.5c0.3,0,0.6,0.3,0.5,0.9
			C-96.2,125-96.5,125.1-96.7,125.3z"/>
	</g>
	<g id="XMLID_2888_">
		<path id="XMLID_961_" class="st54" d="M-122.3,179.9"/>
		<path id="XMLID_958_" class="st55" d="M-122.3,179.9"/>
	</g>
	<g id="XMLID_2887_">
		<path id="XMLID_955_" class="st56" d="M9,139.1c-2.1-0.3-4.1-0.6-6.2-1v-0.6c2.1,0.3,4.2,0.6,6.2,1V139.1z"/>
	</g>
	<g id="XMLID_2884_">
		<path id="XMLID_951_" class="st38" d="M10.5,132.7c0.4,1.6,0.6,3,0,4.1c-0.4,0.8-1.7-0.6-1.3-1C10.2,135.2,9.7,133.7,10.5,132.7z"
			/>
	</g>
	<g id="XMLID_2883_">
		<path id="XMLID_947_" class="st40" d="M2.7,134.9c-0.6,1.1-1.2,0.8-1.9,0.1C1.3,133.9,2,134.2,2.7,134.9z"/>
	</g>
	<g id="XMLID_2882_">
		<path id="XMLID_943_" class="st38" d="M4.6,135.4c-0.2,0.2-0.3,0.4-0.5,0.4c-0.3,0-0.5-0.3-0.4-0.8c0-0.2,0.3-0.3,0.4-0.3
			C4.3,134.8,4.4,135.1,4.6,135.4z"/>
	</g>
	<g id="XMLID_2879_">
		<path id="XMLID_939_" class="st38" d="M7.6,136.6c-0.1-0.3-0.3-0.5-0.3-0.8c0-0.4,0.3-0.6,0.5-0.3c0.1,0.1,0.3,0.5,0.2,0.8
			C8.1,136.4,7.8,136.4,7.6,136.6z"/>
	</g>
	<g id="XMLID_2878_">
		<path id="XMLID_929_" class="st57" d="M-28.3,133.1c-0.4-0.2-0.6-0.6-0.6-1.1c0-0.5,0.3-0.9,0.7-0.8c0.4,0.1,0.6,0.5,0.6,1.1
			C-27.7,132.8-27.9,133.2-28.3,133.1z"/>
	</g>
	<g id="XMLID_2877_">
		<path id="XMLID_924_" class="st58" d="M-23,132.1c0.4,0.1,0.7,0.4,0.7,1c0,0.5-0.3,0.9-0.7,0.9c-0.3,0-0.5-0.4-0.5-0.9
			C-23.5,132.5-23.4,132.1-23,132.1z"/>
	</g>
	<g id="XMLID_2873_">
		<path id="XMLID_921_" class="st59" d="M36.5,142.9c-0.5-1.6-0.3-3.3-1.7-3.2c-0.2,0-0.5-0.3-0.4-0.8c0-0.2,0.2-0.5,0.3-0.5
			c1.3,0.4,1.4-1.1,1.6-3.3c0.7,2.1,0.6,3.9,1.9,4c0.4,0,0.2,1.2-0.1,1.1C36.9,139.8,37.1,141.6,36.5,142.9z"/>
	</g>
	<g id="XMLID_2872_">
		<path id="XMLID_914_" class="st56" d="M65.6,144.1c-1.2,0.8-2.4,0.5-3.7-0.2v-0.6C63.2,142.9,64.4,143.3,65.6,144.1z"/>
	</g>
	<g id="XMLID_2295_">
		<g id="XMLID_3828_">
			<path id="XMLID_4010_" d="M-113.9,199.3c-1-4.3,1.2-4.6,0.2-9c-0.2-1.1-1.4,0.4-2.2-0.2c-0.5-0.4-0.6-1.2,0-1.5
				c0.9-0.5,1.2,0.5,2.1,0.1c0.5-0.2,0.2-0.4,0.2-1c0-1.5,0.2-2.6,0.7-3.1c0.5-0.6,1.2-0.8,2.4-0.6c0.8,0.1,1,0.2,2.1,0.5
				c0.4,0.6,0.3,1-0.2,1.5c-1-0.4-1-0.5-1.8-0.6s-0.9,0.1-1.3,0.4c-0.3,0.3-0.1,1.1-0.1,1.9c0,0.6-0.4,0.9,0.1,1.2
				c1.4,0.8,1.8-0.4,3.1,0.3c0.6,0.3,0.6,1.5,0,1.7c-1.5,0.5-2.6-2-3.2-0.5c-1.6,4.2,0.9,4.6,0.1,8.9
				C-111.9,200.7-113.7,200.4-113.9,199.3L-113.9,199.3z"/>
			<path id="XMLID_4007_" d="M-105.4,199.9c-0.5-5.3-0.4-5.3,0.1-10.5c0.1-0.5,0.7-0.3,0.9,0.1c0.4,0.9-0.7,1.4,0.1,1.9
				c1-1.4,2.1-2,3.3-1.9c0.4,0,1.8,0.2,1.8,0.4c0,1.5,0.4,1.5-0.1,2.9c-0.2,0.5-0.6,0.3-0.9-0.1c-0.4-0.6,0-0.8,0-1.4
				c0-0.1-0.5-0.2-0.6-0.2c-0.5,0-1.5,0.1-1.9,0.3c-0.4,0.3-0.5,1-1.6,1.7c-0.4,3.4,0.5,3.4,0,6.9
				C-104.4,200.7-105.4,200.5-105.4,199.9L-105.4,199.9z"/>
			<path id="XMLID_4003_" d="M-93.6,201c-1.2-0.1-2.1-0.6-2.7-1.6c-0.7-1.1-1-2.4-1-4.1s0.2-3,0.9-4c0.7-0.9,1.7-1.2,2.8-1.1
				c1.2,0.1,2.1,0.6,2.7,1.6c0.6,1.1,0.9,2.4,0.9,4c0,1.7-0.3,2.9-0.9,3.9C-91.6,200.7-92.4,201.1-93.6,201z M-93.7,199.7
				c0.7,0,1.4-0.3,1.7-1c0.4-0.6,0.5-1.7,0.5-2.9c0-1.3-0.3-2.3-0.6-3c-0.4-0.8-0.8-1.3-1.6-1.3c-0.7-0.1-1.4,0.3-1.8,1
				c-0.4,0.6-0.6,1.7-0.6,2.9c0,1.3,0.2,2.3,0.6,3C-94.9,199.2-94.3,199.6-93.7,199.7z"/>
			<path id="XMLID_4000_" d="M-87.6,201.2c-0.5-5.1-0.6-5.1-0.1-10.3c0.1-0.5,0.8-0.3,1,0.1c0.4,0.9-0.8,1.5,0,2
				c1-1.4,0.9-2.1,1.6-2c0.7,0.1,1,0.8,1.3,2.3h0.1c0.5-1.4,0.9-2,1.7-1.9c0.5,0,0.9,0.3,1.3,0.8c0.2,0.5,0.5,1.2,0.5,2.3
				c0,3.8,0.6,3.8,0.1,7.5c-0.1,0.5-1,0.4-1.2-0.1c-0.5-3.6,0.1-3.8,0.1-7.4c0-0.5-0.3-1-0.3-1.2c-0.1-0.2-0.2-0.3-0.3-0.3
				c-0.4,0-0.3,0.8-1.4,2.3c-0.4,3.3,0.6,3.3,0.1,6.6c-0.1,0.5-1,0.4-1.2-0.1c-0.5-3.5,0-3.5,0-7.1c0-0.8-0.3-1.2-0.4-1.4
				c-0.1-0.2-0.4-0.2-0.6-0.2c-0.2,0-0.3,0-0.5,0.4c-0.3,0.4-0.4,1-0.4,1.6c0,3.3,0.4,3.3,0,6.6C-86.6,201.9-87.5,201.8-87.6,201.2
				L-87.6,201.2z"/>
			<path id="XMLID_3997_" class="st60" d="M-70.9,202.5c-0.5-5-0.6-5.1-0.1-10.1c0.1-0.5,0.9-0.4,1.3,0.1c0.4,0.9-0.1,1-0.1,1.9
				c0-1.4,1.2-1.9,1.7-1.9c0.7,0.1,1.4,0.8,1.4,2.1c0-1.4,1.3-2,1.9-2c0.5,0,0.7,0.4,0.9,0.9c0.2,0.4,0.3,1.2,0.3,2.3
				c0,3.6,0.6,3.8,0.1,7.4c-0.1,0.5-1.2,0.4-1.3-0.1c-0.5-3.6,0-3.6,0-7.3c0-0.5,0.1-1,0-1.2c-0.1-0.2-0.3-0.3-0.5-0.4
				c-0.4,0-1.6,0.8-1.6,2.1c0,3.2,0.5,3.3,0,6.5c-0.1,0.5-0.9,0.4-1-0.1c-0.5-3.4-0.1-3.4-0.1-7c0-0.6,0.2-1.2,0.1-1.4
				c-0.1-0.2-0.2-0.3-0.4-0.3s-0.6,0.1-0.9,0.5c-0.3,0.4-0.8,1-0.8,1.5c0,3.2,0.4,3.3,0,6.5C-69.9,203.3-70.9,203.1-70.9,202.5
				L-70.9,202.5z"/>
			<path id="XMLID_3993_" class="st60" d="M-59.3,203.4c-0.5-4.3,1.5-4.6,0-8.7c-0.5-1.5-1.9,0.6-3.3,0c-0.6-0.3-0.5-1.2,0.1-1.4
				c2.1-0.5,3.2-1.7,4.1,0.2c1.9,4.6,0.4,4.9,0,10C-58.4,204.1-59.2,203.9-59.3,203.4L-59.3,203.4z M-59.3,191.2
				c-0.4-1.1-0.5-1.2,0-2.1c0.2-0.5,0.8-0.4,1,0c0.4,1.1,0,1.2-0.2,2.3C-58.6,191.8-59.1,191.6-59.3,191.2z"/>
			<path id="XMLID_3990_" class="st60" d="M-46.8,204c0,0.3-1.5,0.3-2.3,0.3c-1.3-0.1-2.3-0.4-3-1.4c-0.7-1-0.8-2.4-0.8-4
				s0.3-2.8,1-3.6c0.7-0.9,1.7-1.3,2.8-1.2c0.7,0.1,1.4,0.2,2.4,0.6c0.3,0.6,0.4,1-0.1,1.5c-1-0.5-1.6-0.8-2.2-0.8
				c-0.8-0.1-1.5,0.2-2,0.9c-0.4,0.6-0.5,1.6-0.5,2.8c0,1.2,0.1,2.1,0.5,2.9c0.5,0.8,1.3,1,2.1,1.1c0.6,0,2.1,0,2.1-0.3
				C-46.9,203.3-46.8,203.3-46.8,204L-46.8,204z"/>
			<path id="XMLID_3987_" class="st60" d="M-43.8,204.6c-0.5-4.8-0.4-4.9,0.1-9.9c0.1-0.5,0.8-0.4,1.2,0.1c0.4,0.9-0.9,1.6-0.1,1.9
				c1-1.3,1.7-2,2.8-1.9c0.4,0,1.6,0.2,1.6,0.3c0,1.4,0.4,1.5-0.1,2.8c-0.2,0.5-0.6,0.3-0.9-0.1c-0.4-0.5,0-0.6,0-1.3
				c0-0.1-0.4-0.2-0.5-0.2c-0.5,0-0.9,0.2-1.4,0.4c-0.4,0.3-1.3,0.8-1.3,1.5c0,3.2,0.5,3.2,0.1,6.4
				C-42.6,205.3-43.7,205.1-43.8,204.6L-43.8,204.6z"/>
			<path id="XMLID_3983_" class="st60" d="M-33.7,205.6c-1-0.1-1.8-0.8-2.4-1.7c-0.6-1-0.8-2.1-0.8-3.8c0-1.6,0.3-2.8,0.8-3.6
				c0.6-0.9,1.4-1.3,2.4-1.2c1,0.1,1.8,0.8,2.3,1.6c0.6,1,0.8,2.1,0.8,3.8s-0.2,2.8-0.7,3.6C-31.8,205.2-32.7,205.7-33.7,205.6
				L-33.7,205.6z M-33.7,204.1c0.6,0,1.2-0.1,1.5-0.8c0.3-0.6,0.5-1.6,0.5-2.8s-0.2-2.1-0.5-2.8c-0.3-0.6-0.8-1-1.5-1.1
				c-0.6,0-1.2,0.1-1.5,0.8c-0.3,0.6-0.5,1.6-0.5,2.8c0,1.2,0.3,2,0.6,2.8C-34.8,203.8-34.4,204-33.7,204.1L-33.7,204.1z"/>
			<path id="XMLID_3979_" class="st60" d="M-28.9,205.7c-0.5-7.1-0.6-7.1-0.1-14.2c0-0.5,0.8-0.4,0.9,0.1c0.5,3,0.2,3.1,0.2,6.1
				c0-1.3,1.6-1.7,2.5-1.7c0.7,0.1,1.7,0.3,2.1,1.2c0.4,0.9,0.6,2.1,0.6,3.5c0,1.6-0.3,2.8-0.8,3.8s-1.2,1.4-2,1.4
				c-0.7-0.1-1.4-0.4-1.9-1.4c-0.6,0.1,0,0.6-0.4,1.2C-28.3,206.4-28.9,206.4-28.9,205.7L-28.9,205.7z M-28.1,203.4
				c0,1,1.5,1.4,2.1,1.4c0.5,0,1.3-0.2,1.6-0.9c0.3-0.6,0.4-1.6,0.4-2.9c0-2.3-0.7-3.5-1.7-3.6c-0.7-0.1-2.1,0.6-2.1,1.8
				C-27.9,201.3-28.1,201.3-28.1,203.4L-28.1,203.4z"/>
			<path id="XMLID_3975_" class="st60" d="M-18.6,206.4c-1-4,0.8-4.2-0.1-8.1c-0.2-1.1-1.2,0.4-2-0.2c-0.5-0.3-0.6-1.2,0-1.3
				c2.1-0.4,3.2-1.7,4.1,0.3c1.9,4.4,0.7,4.7,0,9.4C-16.8,207.7-18.2,207.5-18.6,206.4z M-18.6,194.7c-0.7-0.8-0.8-1.4-0.1-2.1
				c0.7-0.8,1.5-0.6,2.2,0.2c0.7,0.8,0.4,1.2-0.1,2.1C-17,195.9-17.8,195.6-18.6,194.7z"/>
			<path id="XMLID_3972_" class="st60" d="M-7.2,207.2c-1,0.1-1.4,0.3-1.9,0.2c-0.9-0.1-1.6-0.4-1.9-1c-0.3-0.5-0.3-1.5-0.3-2.9
				c0-2.3,0.6-2.4,0.1-4.6c-0.1-0.5-0.7,0.3-1-0.2c-0.4-0.5-0.5-0.9-0.1-1.3c0.3-0.4,0.8,0.6,1,0.2c0.5-0.9-0.5-1.2-0.1-2
				c0.2-0.4,0.7-0.3,1,0.2c0.4,0.9-0.7,1.4,0,2c1.3,1,1.8-0.4,3.1,0.2c0.5,0.3,0.6,1.2,0,1.4c-1.5,0.5-2.2-1.6-3-0.3
				c-1.4,1.9-0.1,2.4-0.1,4.7v1.1c0,0.2,0,0.3,0.2,0.5c0.3,0.3,0.8,0.4,1.4,0.5c0.5,0,0.6,0,1.7-0.1C-6.4,206.2-6.7,206.7-7.2,207.2
				L-7.2,207.2z"/>
			<path id="XMLID_3968_" d="M4.4,208.1c-0.5-4,1.6-4.3,0.1-8c-0.5-1.5-1.7,0.3-3.1-0.3c-0.5-0.2-0.6-1,0-1.1
				c2.1-0.4,3.2-1.7,4.2,0.3c1.9,4.2,0.5,4.6,0.1,9.2C5.5,208.8,4.5,208.6,4.4,208.1L4.4,208.1z M4.4,196.8c-0.4-1-0.4-1.2,0.1-2.1
				c0.2-0.4,0.6-0.3,0.9,0.2c0.4,1,0.4,1.1,0.1,2C5.3,197.5,4.7,197.3,4.4,196.8L4.4,196.8z"/>
			<path id="XMLID_3965_" d="M7.7,208.4c-0.5-4.6-0.6-4.6-0.1-9.2c0.1-0.5,0.8-0.3,1,0.1c0.4,0.8,0,0.9,0,1.7c0-1.3,1.4-1.8,1.8-1.7
				c0.5,0,1.3,0.6,1.4,1.9c0,0.1,0.1,0.1,0.1,0c0.4-1.3,0.8-1.8,1.5-1.7c0.4,0,0.4,0.2,0.5,0.6c0.2,0.4-0.1,1.1-0.1,2
				c0,3.3,0.6,3.4,0.1,6.6c-0.1,0.5-1,0.4-1-0.1c-0.5-3.2-0.1-3.3-0.1-6.6c0-0.5,0.3-0.9,0.2-1c0-0.2-0.5-0.4-0.6-0.4
				c-0.3,0-0.5,0.6-1.6,2c-0.4,2.9,0.5,3,0,5.9c-0.1,0.5-0.9,0.4-1-0.1c-0.5-3.1,0-3.1,0-6.3c0-0.6,0.5-1.1,0.4-1.3
				c0-0.2,0.2-0.3,0.1-0.3c-0.2,0-0.6,0.1-0.8,0.5c-0.2,0.3-0.8,0.9-0.8,1.4c0,3,0.5,3,0.1,5.9C8.5,209.1,7.7,209,7.7,208.4
				L7.7,208.4z"/>
			<path id="XMLID_3961_" d="M16,212.3c-0.5-6.2-0.6-6.2-0.1-12.4c0-0.5,0.8-0.3,1.2,0.1c0.4,0.8,0.1,0.9,0.1,1.7
				c0-1.2,1.3-1.7,2-1.6s1.4,0.3,1.8,1.2c0.4,0.9,0.6,1.9,0.6,3.3c0,1.5-0.3,2.7-0.7,3.5c-0.5,0.9-1.3,1.4-2,1.4
				c-0.6,0-1.8-0.6-1.8-1.5c0,2.1,0.3,2.3-0.1,4.3C16.8,213,16.1,212.8,16,212.3L16,212.3z M17,206.8c0,0.9,1.2,1.3,1.7,1.3
				c0.5,0,0.9-0.2,1.2-0.8c0.3-0.6,0.3-1.5,0.3-2.7c0-2.1-0.4-3.3-1.3-3.4c-0.6-0.1-1.9,0.5-1.9,1.7L17,206.8L17,206.8z"/>
			<path id="XMLID_3957_" d="M25.5,210c-0.9-0.1-1.6-0.6-2.1-1.5c-0.5-0.9-0.8-2-0.8-3.5s0.3-2.7,0.7-3.4c0.5-0.8,1.3-1.1,2.2-1
				c0.8,0.1,1.5,0.5,2,1.5c0.5,0.9,0.8,2,0.8,3.4c0,1.5-0.2,2.6-0.7,3.4C27.2,209.7,26.4,210.1,25.5,210z M25.6,208.6
				c0.5,0,0.9-0.2,1.2-0.8c0.3-0.5,0.4-1.4,0.4-2.5c0-1.1-0.1-1.9-0.4-2.6c-0.3-0.6-0.6-1.1-1.2-1.1c-0.5,0-1,0.2-1.4,0.8
				c-0.3,0.5-0.4,1.5-0.4,2.6s0.2,1.9,0.5,2.6C24.7,208.3,25,208.5,25.6,208.6L25.6,208.6z"/>
			<path id="XMLID_3954_" d="M30.5,210.1c-0.5-4.4-0.4-4.5,0.1-8.9c0.1-0.5,0.7-0.3,1,0.1c0.4,0.8-0.7,1.3,0,1.6
				c1-1.2,1.8-1.8,2.6-1.7c0.3,0,0.4,0.2,1.5,0.3c0.4,1.2,0.5,1.4,0,2.5c-0.2,0.5-0.6,0.3-1-0.1c-0.4-0.4-0.1-0.5-0.1-1.2
				c0-0.1-0.5-0.1-0.6-0.1c-0.4,0-1,0-1.4,0.3c-0.3,0.2-0.1,0.8-1.2,1.5c-0.4,2.9,0.4,2.9,0,5.8C31.6,210.8,30.6,210.7,30.5,210.1
				L30.5,210.1z"/>
			<path id="XMLID_3951_" d="M42,210.9c0,0.1-1.3,0.1-1.7,0c-0.8-0.1-0.9-0.3-1.3-0.9c-0.3-0.5-0.1-1.4-0.1-2.7
				c0-2.1,0.8-2.4-0.1-4.3c-0.4-1-1.2,0.3-2-0.2c-0.5-0.3-0.5-0.9,0-1.1c0.9-0.5,1.3,0.8,2.1,0.1c0.7-0.6-0.4-1.1,0-1.9
				c0.3-0.4,0.7-0.4,1,0c0.4,0.9-0.6,1.2,0,1.9c0.7,0.8,1.3-0.4,2.1,0.2c0.5,0.3,0.4,1-0.1,1.2c-0.9,0.4-1.6-1.1-2.1-0.1
				c-0.9,2-0.1,2.3-0.1,4.5c0,0.5-0.4,0.9-0.3,1.1c0,0.2-0.2,0.4,0,0.5c0.2,0.2,0.7,0.4,1.2,0.4s1.5,0,1.5-0.2
				C42.1,210.3,42,210.3,42,210.9L42,210.9z"/>
			<path id="XMLID_3944_" d="M51.6,203.6c-0.8-0.3-1.3,0.1-1.8-0.6c-0.4-0.6-0.4-1.4,0.3-1.5c1-0.1,0.8,0.5,1.6,1.3
				C51.6,202.9,51.6,203.2,51.6,203.6C51.6,203.5,51.6,203.6,51.6,203.6L51.6,203.6z M52.1,204.5c-0.3,1.2,0.1,1.6-0.8,2.3
				c-0.5,0.4-0.9-0.3-0.8-1.1c0.1-1.1,0.5-1,1.3-1.8C51.8,204.1,51.9,204.3,52.1,204.5L52.1,204.5z M51.9,202.5
				c-0.2-1.3-0.6-1.4-0.2-2.7c0.2-0.5,0.9-0.4,1,0.1c0.4,1.3-0.1,1.3-0.2,2.7c-0.1-0.1-0.2-0.1-0.3-0.1
				C52.1,202.4,52,202.4,51.9,202.5z M52.7,203.9c0.7,1,1,0.9,1.2,2c0.1,0.6-0.4,1.3-0.8,0.9c-0.9-0.9-0.5-1.2-0.8-2.5
				C52.5,204.3,52.6,204.1,52.7,203.9L52.7,203.9z M52.5,202.7c0.7-0.6,0.7-1.3,1.7-1c0.7,0.2,0.7,1,0.2,1.6
				c-0.6,0.8-0.9,0.2-1.8,0.3c-0.1,0,0,0,0-0.1C52.5,203.3,52.6,202.9,52.5,202.7z"/>
			<path id="XMLID_3941_" class="st60" d="M-115.9,247.3c0-5.4-0.1-5.4-0.1-10.6h0.1c0,1-0.9,1.6,0,2c1-1.5,1.7-2.1,2.3-2.1
				c0.7,0,1.5,0.8,1.7,2.1c0,0.1,0.2,0.1,0.2,0c0.5-1.5,1.2-2.1,1.9-2c0.5,0,0.7,0.2,0.9,0.8c0.2,0.5,0.3,1.2,0.3,2.4
				c0,3.9,0.4,3.9-0.1,7.7c-0.1,0.5-0.8,0.5-0.9,0c-0.5-3.8,0-3.9,0-7.6c0-0.5-0.1-1-0.2-1.2c-0.1-0.2-0.2-0.3-0.4-0.3
				c-0.5,0-0.6,0.8-1.7,2.3c-0.4,3.4,0.6,3.4,0.1,6.9c-0.1,0.5-1,0.4-1,0c-0.5-3.6-0.1-3.6-0.1-7.3c0-0.8-0.1-1.2-0.2-1.5
				c-0.1-0.2-0.3-0.3-0.5-0.3c-0.2,0-0.9,0.1-1.3,0.5c-0.3,0.4-0.2,1-1.3,1.6c-0.5,3.4-0.1,3.4-0.1,6.9
				C-116,247.3-115.9,247.3-115.9,247.3L-115.9,247.3z"/>
			<path id="XMLID_3937_" class="st60" d="M-103.3,247.5c-0.5-4.5,1.4-4.7-0.1-9c-0.5-1.5-1.6,0.4-2.9-0.3c-0.6-0.3-0.7-1.2-0.1-1.4
				c2-0.6,3.2-1.7,4.1,0.3c1.9,4.8,0.5,5.1,0,10.4C-102.4,248.2-103.2,248.1-103.3,247.5z M-103.3,234.7c-0.7-0.9-0.8-1.6-0.1-2.5
				c0.7-0.8,1.4-0.5,2.1,0.2c0.7,0.9,0.6,1.3,0.2,2.4C-101.6,235.9-102.6,235.5-103.3,234.7L-103.3,234.7z"/>
			<path id="XMLID_3934_" class="st60" d="M-89.8,247.5c-1,0.3-1.9,0.6-2.7,0.6c-1.4,0-2.5-0.6-3.2-1.6c-0.7-1-1.3-2.3-1.3-4.1
				c0-1.7,0.4-3.1,1.2-4c0.7-1,2.1-1.4,3.5-1.3c0.8,0,1.7,0.3,2.7,0.6c0.4,0.6,0.5,0.9,0,1.5c-1-0.4-1.9-0.5-2.6-0.6
				c-0.8,0-1.7,0.2-2.2,1c-0.5,0.8-0.8,1.7-0.8,2.9c0,1.3,0.2,2.3,0.7,3s1.5,1.1,2.4,1.1c0.7,0,1.5-0.1,2.5-0.5
				C-89,246.4-89.4,246.9-89.8,247.5z"/>
			<path id="XMLID_3931_" class="st60" d="M-86.7,248c-1-5-0.9-5.3,0.1-10.3c0.2-1.1,1.3-0.6,2.1,0.1c0.7,0.6-0.8,1.5,0,1.9
				c1-1.4,1.6-2.1,2.8-2c0.4,0,1.4,0.1,1.4,0.3c0,1.5,0.4,1.5,0,2.9c-0.2,0.5-0.6,0.3-0.9-0.1c-0.4-0.5-0.1-0.6-0.1-1.4
				c0-0.1-0.7,0-0.9,0c-0.5,0-0.7,0-1.2,0.3c-0.4,0.3-1,0.9-1,1.7c0,3.3,0.9,3.4,0.1,6.8C-84.7,249.3-86.5,249-86.7,248L-86.7,248z"
				/>
			<path id="XMLID_3927_" class="st60" d="M-75.7,248.5c-1.2,0-2-0.6-2.6-1.6c-0.6-1-1-2.3-1-3.9s0.2-3,0.8-4c0.6-1,1.7-1.4,2.7-1.4
				c1.2,0,2.1,0.5,2.7,1.5c0.6,1,0.8,2.4,0.8,4s-0.2,2.9-0.9,3.9C-73.7,248-74.5,248.5-75.7,248.5L-75.7,248.5z M-75.7,247
				c0.6,0,1.3-0.2,1.7-1c0.4-0.6,0.5-1.7,0.5-2.9c0-1.2-0.3-2.1-0.6-2.9c-0.4-0.8-0.8-1-1.5-1.1c-0.6,0-1.2,0.2-1.5,1
				c-0.4,0.6-0.7,1.6-0.7,2.8c0,1.3,0.2,2.3,0.6,2.9C-76.9,246.7-76.3,247-75.7,247L-75.7,247z"/>
			<path id="XMLID_3923_" class="st60" d="M-70.9,248.4c-0.7-7.4-0.5-7.4,0-14.8c0-0.5,0.9-0.4,1,0.1c0.5,3.2-0.6,3.3,0,6.4
				c1-1.4,2.2-2.1,3.1-2c0.8,0,1.8,0.5,2.2,1.5c0.5,0.9,1,2,1,3.5c0,1.7-0.4,2.9-1,4c-0.6,1-1.3,1.5-2.2,1.5c-0.8,0-1.5-0.3-2-1.2
				c-0.7,0.2-0.2,0.6-0.8,1.1C-70,249-70.9,249.2-70.9,248.4L-70.9,248.4z M-69.8,245.8c1,1,1.8,1.3,2.4,1.3s1.5-0.2,1.8-0.9
				c0.3-0.8,0.6-1.7,0.6-3c0-2.4-1.2-3.5-2.2-3.5c-0.7,0-1.8,0.5-2.8,1.8C-70.8,243.5-70.3,243.7-69.8,245.8L-69.8,245.8z"/>
			<path id="XMLID_3919_" class="st60" d="M-59.3,248.6c-0.5-4.3,1.6-4.6,0.1-8.7c-0.5-1.5-1.8,0.5-3.2-0.1
				c-0.6-0.3-0.7-1.2-0.1-1.4c2-0.6,3.3-1.7,4.2,0.2c1.9,4.6,0.5,5,0.1,10C-58.3,249.2-59.3,249-59.3,248.6L-59.3,248.6z
				 M-59.3,236.3c-0.4-1.1-0.4-1.2,0.1-2.1c0.2-0.5,0.6-0.4,0.8,0c0.4,1.1,0.5,1.2,0.2,2.3C-58.3,236.9-59.1,236.8-59.3,236.3z"/>
			<path id="XMLID_3916_" class="st60" d="M-46.8,248.8c0,0.1-1.3,0.1-1.9,0.1c-1,0-2-0.2-2.4-0.8c-0.4-0.5-0.8-1.5-0.8-3
				c0-2.4,0.3-2.5-0.2-4.7c-0.1-0.5-0.6,0.3-0.9-0.1c-0.4-0.5-0.5-0.9-0.1-1.4c0.3-0.4,0.8,0.6,1.2,0.1c0.5-1-0.7-1.4,0-2.1
				c0.7-0.8,1.4-0.8,2.1,0.1c0.7,0.8-0.7,1.4,0.1,2c1.3,1,1.7-0.4,3,0.2c0.6,0.3,0.6,1,0,1.2c-1.5,0.5-2.3-1.4-3.1-0.1
				c-1.4,2.1,0.1,2.6,0.1,5.1c0,0.5-0.1,1,0,1.2c0,0.2,0.1,0.4,0.2,0.6c0.3,0.3,0.7,0.4,1.4,0.4c0.5,0,1.6-0.1,1.6-0.3
				C-46.8,248.2-46.8,248.2-46.8,248.8L-46.8,248.8z"/>
			<path id="XMLID_3913_" d="M-42.6,248.9c-0.8-1.1-0.8-1.6,0-2.7c0.6-0.9,1.5-0.8,2.1,0.1c0.8,1.1,0.5,1.4,0,2.7
				C-41,250-42,249.8-42.6,248.9z"/>
			<path id="XMLID_3909_" d="M-31.1,249.2c0-0.9,0.8-1.4,0-1.7c-1,1.4-1.8,1.8-2.7,1.8c-0.8,0-1.8-0.3-2.2-1.2
				c-0.4-0.9-0.7-2-0.7-3.5c0-1.6,0.2-2.9,0.8-3.9c0.5-1,1.7-1.4,2.5-1.4c0.7,0,1.4,0.4,2.4,1.3c0.6-2.7,0-2.8,0-5.5h0.1
				C-31,242.2-31.2,242.2-31.1,249.2C-31.2,249.3-31.1,249.2-31.1,249.2L-31.1,249.2z M-31.1,242c-1-0.9-1.7-1.3-2.2-1.3
				s-1.3,0.2-1.6,0.9s-0.4,1.6-0.4,2.9c0,2.3,0.8,3.4,1.8,3.5c0.7,0,1.5-0.6,2.5-1.8C-30.3,244.2-30.7,243.9-31.1,242L-31.1,242z"/>
			<path id="XMLID_3905_" d="M-26.8,249.3c-0.5-4.1,0.9-4.3-0.1-8.3c-0.2-1.1-1.3,0.5-2.1,0c-0.5-0.3-0.5-1.1,0.1-1.4
				c1.5-0.5,2.6-1.4,3,0.1c1.5,4.5,0.5,4.8,0.1,9.5C-25.9,249.9-26.8,249.8-26.8,249.3z M-26.8,237.5c-0.7-0.8-0.8-1.4-0.1-2.1
				s1.5-0.8,2.2,0c0.7,0.8,0.3,1.3-0.1,2.3C-25.4,238.5-26.2,238.2-26.8,237.5z"/>
			<path id="XMLID_3902_" d="M-20.7,249c-0.3-0.6-0.6-1.1,0-1.6c1,0.6,1.8,1,2.4,1c0.5,0,0.8-0.2,1.2-0.4c0.3-0.3,0.5-0.5,0.5-1
				c0-0.5-0.3-1.1-1.2-1.4c-0.6-0.3-0.7-0.2-1.4-0.5c-1-0.5-1.6-1.4-1.6-2.6c0-0.9,0.2-1.6,0.6-2c0.4-0.4,1.4-0.5,2.2-0.5
				c0.6,0,1.4,0.1,2.4,0.4c0.3,0.6,0.4,1-0.1,1.4c-1-0.3-1.7-0.5-2.3-0.6c-0.4,0-0.8,0.2-1.2,0.4c-0.3,0.2-0.4,0.4-0.4,0.9
				c0,0.4,0.3,0.9,0.9,1.2l1.5,0.9c0.5,0.3,0.9,0.6,1.3,1c0.2,0.4,0.3,0.9,0.3,1.5c0,0.9-0.2,1.5-0.7,2c-0.5,0.5-1.2,0.8-2,0.8
				C-19,249.6-19.6,249.5-20.7,249L-20.7,249z"/>
			<path id="XMLID_3898_" d="M-12.4,253c-0.5-6.4-0.5-6.4,0-12.9c0-0.5,0.9-0.4,1.2,0c0.4,0.8-0.8,1.5-0.1,1.8
				c1-1.3,0.9-1.8,1.8-1.8c0.7,0,1.2,0.3,1.7,1.2c0.4,0.9,0.5,1.9,0.5,3.4c0,1.6-0.2,2.8-0.7,3.8s-0.8,1.3-1.7,1.3
				c-0.7,0-0.5-0.4-1.6-1.3c-0.6,2.1,0.6,2.4,0.1,4.5C-11.3,253.7-12.3,253.5-12.4,253z M-11.1,247.2c1,0.9,0.6,1.3,1.3,1.3
				c0.5,0,0.6-0.3,0.9-1c0.3-0.6,0.4-1.5,0.4-2.7c0-2.3-0.2-3.4-1-3.4c-0.7,0-0.5,0.6-1.6,1.8C-12,245.1-11.5,245.3-11.1,247.2
				L-11.1,247.2z"/>
			<path id="XMLID_3895_" d="M-3.9,249.8c-1-6,0.9-6.2,0-12.3c-0.2-1.1-1.3,0.5-2.1,0c-0.5-0.3-0.5-1.3,0-1.5c2-0.5,3.6-1.8,4.2,0.2
				c2,6.4,0.9,6.9,0,13.5C-2,251.1-3.7,250.9-3.9,249.8L-3.9,249.8z"/>
			<path id="XMLID_3891_" d="M5.6,248.8c-0.7,0.9-1.4,1.4-2.1,1.4c-0.6,0-1-0.3-1.5-0.9s-0.6-1.1-0.6-1.8c0-1,0.4-1.7,1-2.3
				c0.6-0.5,1.4-1,2.3-1c0.4,0,0.5,0.4,0.8,0.1c0.3-0.3,0-0.4,0-0.9c0-0.6-0.2-1.2-0.4-1.4c-0.2-0.3-0.4-0.4-0.8-0.4
				c-0.6,0-0.9,0.3-2,0.8c-0.5-0.4-0.4-0.9,0-1.5c1-0.4,1.5-0.5,2.2-0.5c0.8,0,1.8,0.3,2.1,0.8c0.3,0.4,0.9,1.3,0.9,2.4v3.9
				c0,0.5-0.5,1-0.4,1.2c0.1,0.2,0.1,0.2,0.3,0.2c0.1,0,0,0.1,0.2,0c0.1,0.5,0.2,0.5,0.1,1C7.4,250,7.2,250,7,250
				C6.2,250.1,5.8,249.7,5.6,248.8L5.6,248.8z M5.6,247.8c0-1.2,0.1-1.2-0.1-2.4c0-0.2-0.1,0-0.3,0c-1.6,0-2.3,0.5-2.3,1.8
				c0,0.4-0.1,0.9,0.1,1.2c0.2,0.3,0.5,0.3,0.9,0.3S5.6,248.5,5.6,247.8L5.6,247.8z"/>
			<path id="XMLID_3888_" d="M7.5,253.4c-0.4-0.4-0.4-0.9,0-1.4c0.3-0.4,0.5,0,1,0c0.4,0,1,0,1.3-0.2c0.2-0.2,0.6-0.6,0.8-1.3
				c0.2-0.4,0.5-0.4,0.4-1c-1-4.5-2-4.3-2.7-8.8c-0.1-0.6,1-0.5,1.4,0c1.6,3.2-1.6,6.8,2,6.9c3.5,0.1,0.6-3.4,2.1-6.6
				c0.2-0.4,0.9-0.5,0.8,0c-1,5.3-1.5,5.1-3,10.3c-0.2,0.8-0.5,1.4-0.8,1.7c-0.3,0.3-1.5,0.3-2.1,0.3C8.1,253.5,7.9,253.9,7.5,253.4
				L7.5,253.4z"/>
			<path id="XMLID_3885_" d="M17,250.2c-0.7-1-0.8-1.6,0-2.5c0.7-0.9,1.4-0.8,2.1,0.1c0.7,1,0.5,1.3,0,2.5
				C18.6,251.4,17.6,251.1,17,250.2z"/>
			<path id="XMLID_3882_" d="M23.3,250c-0.3-0.6-0.5-1.1,0-1.5c1,0.5,1.6,1,2.2,1c0.4,0,0.7-0.2,1-0.5c0.3-0.2,0.5-0.5,0.5-1
				c0-0.5-0.4-1-1.2-1.3c-0.6-0.3-0.6-0.3-1.2-0.5c-0.9-0.4-1.4-1.3-1.4-2.4c0-0.9,0.1-1.5,0.5-1.9s0.9-0.5,1.7-0.5
				c0.5,0,0.8,0.1,1.9,0.4c0.3,0.5,0.4,0.9,0,1.3c-1-0.3-1.3-0.5-1.9-0.5c-0.4,0-0.6,0.2-0.8,0.3c-0.2,0.2-0.3,0.4-0.3,0.8
				c0,0.4,0.2,0.8,0.8,1.1c0.7,0.4,0.6,0.4,1.4,0.9c0.5,0.3,0.8,0.6,1,1c0.2,0.3,0.3,0.9,0.3,1.4c0,0.9-0.1,1.5-0.6,2
				c-0.4,0.5-1,0.6-1.9,0.6C24.8,250.5,24.3,250.4,23.3,250L23.3,250z"/>
			<path id="XMLID_3879_" d="M29.7,250.5c-0.5-6.4-0.6-6.5-0.1-13c0-0.5,0.8-0.4,0.9,0.1c0.5,1.9,0.2,2,0.2,4.1
				c0,0.9-0.8,1.4-0.1,1.7c1-1.3,1.5-1.8,2.3-1.8c1.2,0,2,1.1,2,3.1c0,3,0.4,3.1-0.1,6.1c-0.1,0.5-1,0.5-1.2,0c-0.5-2.8,0-2.8,0-5.7
				c0-0.6,0-1.2-0.1-1.5s-0.6-0.5-1-0.5c-0.5,0-0.7,0.6-1.8,1.8c-0.4,2.9,0.2,2.9-0.2,5.8C30.4,251.1,29.7,251.1,29.7,250.5
				L29.7,250.5z"/>
			<path id="XMLID_3875_" d="M39.1,250.9c-0.8,0-1.6-0.3-2.1-1.2c-0.5-0.9-0.7-2-0.7-3.4s0.3-2.6,0.7-3.4c0.5-0.9,1.2-1.3,2-1.3
				c0.8,0,1.5,0.5,2,1.4c0.5,0.9,0.8,1.9,0.8,3.3s-0.3,2.6-0.8,3.3C40.6,250.5,39.9,250.9,39.1,250.9L39.1,250.9z M39.1,249.8
				c0.5,0,0.8-0.3,1.2-1c0.3-0.6,0.4-1.4,0.4-2.5s-0.1-1.9-0.4-2.5c-0.3-0.6-0.6-0.9-1.2-0.9s-0.9,0.1-1.3,0.8
				c-0.3,0.6-0.3,1.5-0.3,2.6c0,1.1,0.1,1.9,0.3,2.6C38.2,249.4,38.6,249.8,39.1,249.8L39.1,249.8z"/>
			<path id="XMLID_3872_" d="M43.4,250.5c-1-4.5-0.9-4.5-1-9.1c0-0.5,0.8-0.4,0.9,0c0.8,3.6,0.5,3.8,0.9,7.5c0.5-3,0-3.2,0.9-6.1
				c0.2-0.5,0.8-0.5,1-0.1c0.9,3,0.5,3.1,1,6.1h0.1c0.4-3.4-0.1-3.5,0.7-6.9c0.1-0.4,0.8-0.3,0.8,0.1c-0.2,4.4-0.2,4.4-1.3,8.7
				c-0.1,0.5-0.8,0.6-1,0.2c-1-3.1-0.5-3.2-0.9-6.4c-0.5,3.1-0.2,3.2-1.3,6.2C44.2,251.5,43.6,251.1,43.4,250.5L43.4,250.5z"/>
			<path id="XMLID_3869_" d="M54.7,253.4c-1-0.2-2.2-1.1-2.9-2.5c-0.7-1.4-1.2-3.2-1.2-5.1c0-2,0.6-3.6,1.4-5
				c0.7-1.4,1.8-2.3,2.8-2.5c0.4,0.3,0.2,0.8-0.1,1.2c-1,0.2-1.7,1-2.1,2c-0.5,1.1-0.8,2.6-0.8,4.3c0,1.8,0.5,3.2,1,4.3
				s0.9,1.9,2,2.3C55.1,252.8,55.1,253.1,54.7,253.4z"/>
			<path id="XMLID_3866_" d="M56.8,251.1c-0.5-0.2-0.5-1,0-1.2c0.9-0.5,1.8,1.1,2,0c1-3.8,1-4,0-7.8c-0.3-1.1-1.2,0.5-2,0
				c-0.5-0.3-0.5-1.1,0-1.2c1.5-0.5,1.7-0.3,3.1,0.2c0.5,0.2,0,0.5,0,1.1l-0.1-0.1v7.8h0.1c0,0.5,0.3,0.8-0.1,1.2
				C58.8,252.4,58.2,251.7,56.8,251.1L56.8,251.1z"/>
			<path id="XMLID_3863_" d="M61,251.3c-0.5-4.3-0.5-4.3,0-8.6c0.1-0.5,0.8-0.4,1,0c0.4,0.6-0.8,1.4-0.1,1.7c1-1.2,1.4-1.8,1.8-1.8
				c0.5,0,1,0.6,1.3,1.8c0,0.1,0.1,0.1,0.1,0c0.3-1.2,0.7-1.7,1.3-1.7c0.3,0,0.5,0.2,0.7,0.5c0.1,0.4,0.1,1.1,0.1,1.9
				c0,3.1,0.5,3.1,0,6.2c-0.1,0.5-0.9,0.5-1,0c-0.5-3,0-3.1,0-6.2c0-0.4,0.2-0.8,0.1-1c0-0.2-0.6-0.1-0.7-0.1
				c-0.3,0-0.4,0.5-1.5,1.7c-0.4,2.7,0.5,2.8,0,5.5c-0.1,0.5-1,0.5-1.2,0c-0.5-2.9,0.1-3,0.1-5.9c0-0.5,0.6-1,0.6-1.2
				c0-0.2,0.1-0.2,0-0.2s-0.6,0.1-0.7,0.5c-0.2,0.3-0.9,0.8-0.9,1.3c0,2.8,0.5,2.8,0,5.5C61.9,251.8,61.1,251.7,61,251.3L61,251.3z"
				/>
			<path id="XMLID_3859_" d="M72,250.5c-0.6,0.8-1.2,1.1-1.8,1.1c-0.5,0-0.9-0.2-1.3-0.6c-0.3-0.4-0.4-1.1-0.4-1.7
				c0-0.9,0.3-1.5,0.7-2c0.5-0.5,0.8-0.8,1.7-0.8c0.2,0,0.2,0.1,0.3-0.1c0.2-0.3,0.1-0.3,0.1-0.6c0-0.6,0-1-0.1-1.3
				c-0.2-0.2-0.6-0.4-1-0.4c-0.5,0-0.9,0.2-2,0.8c-0.5-0.4-0.3-0.8,0-1.3c1-0.3,1.7-0.5,2.3-0.5c0.7,0,1.3,0.2,1.5,0.6
				c0.3,0.4,0.4,1.2,0.4,2.3v3.5c0,0.5,0.2,0.9,0.3,1.1c0.1,0.2,0.3,0.2,0.4,0.2c0.1,0,0.2,0,0.4-0.1c0.1,0.4,0.1,0.4,0,1
				c-0.3,0.1-0.5,0.3-0.7,0.3C72.5,251.6,72.2,251.3,72,250.5L72,250.5z M71.3,249.5c0-1.1,0.1-1.1,0.1-2.1h-0.1
				c-1.4,0-1.9,0.4-1.9,1.6c0,0.4,0.1,0.8,0.3,1.1c0.2,0.2,0.3,0.4,0.5,0.4C70.7,250.4,71.3,250,71.3,249.5z"/>
			<path id="XMLID_3855_" d="M75,254.4c-0.2-0.6-0.2-0.8,0.1-1.3c0.6,0.4,1,0.4,1.6,0.5c1,0,1.5-0.6,1.5-2.1c0-0.8,0.6-1.1,0.1-1.6
				c-0.4,1.2-1,1.7-1.8,1.7c-0.6,0-1.2-0.3-1.5-1.1s-0.4-1.7-0.4-3c0-1.4,0-2.5,0.4-3.3c0.4-0.9,0.7-1.3,1.4-1.2
				c0.5,0,1.2,0.4,1.2,1.3c0-0.4-0.2-0.6,0.1-1c0.4-0.3,0.9-0.5,0.9,0c0.5,3.3,0,3.3,0,6.6c0,1.1,0.2,1.9,0.1,2.5
				c-0.1,0.5-0.1,1.1-0.3,1.5c-0.4,0.6-1,0.9-1.9,0.9C76.1,254.7,75.6,254.6,75,254.4L75,254.4z M77.7,248.6v-3.3
				c0-0.8-0.6-1.1-1-1.1s-0.6,0.2-0.8,0.8c-0.2,0.5-0.4,1.4-0.4,2.4c0,0.9,0.2,1.6,0.4,2.1c0.2,0.5,0.3,0.8,0.6,0.8
				C77.1,250.2,77.7,249.7,77.7,248.6L77.7,248.6z"/>
			<path id="XMLID_3851_" d="M84.9,251.4c0,0.3-1,0.5-1.6,0.5c-0.9,0-1.5-0.4-2-1.2c-0.5-0.8-0.8-1.8-0.8-3.1c0-1.3,0.4-2.4,0.8-3.1
				c0.4-0.9,1-1.3,1.7-1.3c0.7,0,1.2,0.4,1.5,1.2c0.3,0.8,0.4,1.8,0.4,3.2c0,0.2,0.3,0.4,0.1,0.5c-1.7,0.2-2-1-3.5-0.1
				c0.1,1.9,0.6,2.9,1.9,2.9c0.5,0,1.7-0.1,1.7-0.5C84.8,250.8,84.9,250.9,84.9,251.4z M81.6,246.8c1.2,0.4,1.3,0,2.4,0
				c0.1,0,0.1-0.1,0.1-0.2c0-1.5-0.3-2.1-1.2-2.3c-0.4,0-0.7,0.1-0.9,0.5C81.7,245.3,81.6,246,81.6,246.8z"/>
			<path id="XMLID_3848_" d="M87.1,251.8c-0.7-0.9-0.7-1.5,0-2.3c0.7-0.8,1.4-0.8,2.1,0c0.7,0.9,0.4,1.2,0,2.3
				C88.7,252.9,87.9,252.6,87.1,251.8z"/>
			<path id="XMLID_3845_" d="M95.6,242.6v1.3c0-0.4-0.8-0.8-1.4-0.8c-0.8,0-0.9,0.5-0.9,1.4c0,0.3,0.2,0.6,0.3,0.9
				c0.1,0.2,0.4,0.5,0.8,0.8c0.3,0.2,0.3,0.2,0.6,0.3c0.3,0.2,0.3,0.1,0.6,0.2c0.8,0.5,1.3,1.4,1.3,2.6c0,0.9-0.2,1.6-0.6,2.1
				c-0.4,0.5-1.2,0.6-1.9,0.6c-0.5,0-0.9-0.1-2-0.5c-0.3-0.6-0.5-1,0-1.4c1,0.6,1.5,0.9,2,0.9c0.4,0,0.8,0,1.2-0.3
				c0.3-0.3,0.4-0.8,0.4-1.2c0-0.3-0.1-0.8-0.2-1c-0.2-0.2-0.6-0.3-1-0.6c-0.3-0.2-0.2-0.3-0.5-0.5c-0.6-0.4-1-0.8-1.3-1.1
				c-0.2-0.4-0.4-0.9-0.4-1.5c0-0.9,0.2-1.6,0.5-2c0.3-0.4,0.5-0.6,1.2-0.6C94.7,242.1,95.6,242.3,95.6,242.6z"/>
			<path id="XMLID_3842_" d="M97.5,252c0-4.8-0.5-4.8,0.1-9.6c0.1-0.6,1-0.3,1.3,0.3c1.2,3,0.6,3.1,1.3,6.2c0.7-3.1,0.1-3.3,1.4-6.2
				c0.2-0.6,1.2-0.9,1.3-0.2c0.6,4.7,0.5,4.8,0,9.5c-0.1,0.5-0.9,0.5-1,0c-0.5-4.3-0.1-4.3,0-8.6h0.1c-0.6,3.2-0.3,3.2-1.3,6.3
				c-0.1,0.4-0.7,0.8-0.8,0.4c-1-2.7-0.2-3-1.3-5.7c-0.1-0.4-0.8-0.4-0.8,0C97.2,248.3,97.6,248.3,97.5,252L97.5,252z"/>
			<path id="XMLID_3839_" d="M103.9,252.2c-0.5-0.1-0.5-1,0-1.2c0.9-0.4,1.9,1.2,2.2,0.1c1-3.5,0.9-3.9-0.1-7.4
				c-0.3-1.1-1.3,0.5-2.1,0c-0.5-0.2-0.5-1,0-1.1c2.1-0.4,2.2-0.5,4.2,0.1c0.5,0.1,0.3,0.6,0,1.1c-0.4,0.3-0.8-0.5-0.9,0
				c-0.5,3.6-0.5,3.6,0,7.3c0.1,0.5,0.7-0.4,1,0c0.4,0.4,0.4,0.9,0,1.2C106.4,253.5,105.9,252.8,103.9,252.2L103.9,252.2z"/>
			<path id="XMLID_3836_" d="M110.2,252.3c-1.5-4.5-0.5-4.7,0-9.4c0.1-0.5,0.8-0.5,0.9,0c0.5,4.2-0.9,4.3,0.1,8.4
				c0.2,1.1,1.2-0.4,2.1,0c0.4,0.2,0.3,0.8,0,1.2C112,253.7,110.7,253.8,110.2,252.3z"/>
			<path id="XMLID_3833_" d="M115.4,252.4c-1.9-4.3-2-5.1,0-9.4c0.8-1.9,2.2-0.4,4.2,0.1c0.5,0.1,0.5,1,0,1.1
				c-1.5,0.4-2-1.3-3.1-0.2c-1,1-0.7,1.7,0.1,2.9c0.6,0.9,1.2-0.4,2.1,0.1c0.4,0.2,0.5,1,0,1.2c-0.9,0.4-1.6-1.1-2.2-0.1
				c-0.9,1.4-1,2.1,0.1,3.3c1,1.2,1.6-0.3,3,0.2c0.5,0.2,0.5,0.8,0.1,1.1C117.9,254.1,116.3,254.4,115.4,252.4L115.4,252.4z"/>
			<path id="XMLID_3830_" d="M120.6,241c1,0.2,1.3,1.1,1.9,2.4s0.8,2.8,0.8,4.6c0,1.8,0.1,3.4-0.5,4.6c-0.6,1.3-1,1.8-2.1,2
				c-0.4-0.3-0.5-0.6-0.1-1c1-0.2,1.2-0.8,1.5-1.7c0.4-1,0.3-2.3,0.3-4c0-1.6,0-2.9-0.3-3.9c-0.4-1.1-0.4-1.7-1.5-1.9
				C120.2,241.8,120.2,241.3,120.6,241L120.6,241z"/>
		</g>
	</g>
	<g id="XMLID_2294_">
		<path id="XMLID_128_" class="st61" d="M157.4,419.8L-168.2,503V49.5"/>
	</g>
	<path id="XMLID_1824_" class="st61" d="M164.3,113.7"/>
	<rect x="-118.3" y="229.7" class="st54" width="72.7" height="41.3"/>
</g>
<rect x="-122.3" y="223.7" class="st12" width="81.3" height="56.7"/>
<path class="st62" d="M-24.6,178.8c-9.7,0-17.6,7.8-17.6,17.6V409c0,9.8,7.8,17.6,17.6,17.6h268.3c9.7,0,17.6-7.8,17.6-17.6V196.4
	c0-9.8-7.8-17.6-17.6-17.6H-24.6z M-18.1,372.1c6.5,0,11.7,5.6,11.7,12.3c0,6.9-5.2,12.3-11.7,12.3s-11.7-5.6-11.7-12.3
	C-29.8,377.6-24.6,372.1-18.1,372.1z M43.4,372.1c6.5,0,11.7,5.6,11.7,12.3c0,6.9-5.2,12.3-11.7,12.3s-11.7-5.6-11.7-12.3
	C31.6,377.6,36.9,372.1,43.4,372.1z M110,372.1c6.5,0,11.7,5.6,11.7,12.3c0,6.9-5.2,12.3-11.7,12.3s-11.7-5.6-11.7-12.3
	C98.1,377.6,103.5,372.1,110,372.1z M177.3,372.1c6.5,0,11.7,5.6,11.7,12.3c0,6.9-5.2,12.3-11.7,12.3c-6.5,0-11.7-5.6-11.7-12.3
	C165.5,377.6,170.8,372.1,177.3,372.1z M238.2,372.1c6.5,0,11.7,5.6,11.7,12.3c0,6.9-5.2,12.3-11.7,12.3c-6.5,0-11.7-5.6-11.7-12.3
	C226.3,377.6,231.7,372.1,238.2,372.1z"/>
<g>
	<g class="st63">
		<path d="M114.8,177l-5.3,7.2l-3.1,5.8l-4.4,4.4l-4.4,4.4l-8,0.6l-1.7,7.3l-4.8,4l-4.3,4.5l-3.3,5.6l-5.1,3.6l-4.8,4.1l-5.8,3
			l-5.3,3.4l-4.6,4.3l-3.8,5.1l-2,7.1l-6,2.3l0.5-5.8l-1.9-6.2l-0.2-6.2l-0.2-6.2l0.4-6.2l-0.7-6.2l1.9-6.2v-6.2l-2.3-6.2l-0.2-6.2
			l0.9-6.2l3-8.9l-3.9,9l-4.4,4.5l-8,0.6l-1.8,7.4l-7.5,1.1l-2.8,6.2l-4.9,4l-4.2,4.7l-3.7,5.3l-6.8,1.8l-2.9,6.1l-3.9,5.1l-5.2,3.5
			l-5.2,3.6l-2.6,6.4l-4.4,4.6l-6,3l-2.1,6.5l2.2,6.5l2.7,6.5l-3.9,6.5l-0.3,6.5l0.1,6.5l2.9,6.5l1.7,6.5l-2.8,6.5l-2.9,6.5l0.4,6.5
			l4.9,6.5l-4.9,6.5l-0.5,6.5l4.7,6.4l-3.5,6.5l-0.8,6.5l4.8,6.5l-0.5,6.5l-1,6.5l-0.5,6.5l0.7,6.5l-0.9,6.5l-1,6.5l2.6,6.6l5.2,4.1
			l3.6,6.8h7.1l6.3,0.1l6.3,1.7l6.3-0.4l6.3,1.4l6.3-1.8l6.3,2l6.3-1.3l6.3-1.1l6.3,0.2l6.3,0.8l6.3,1.5l6.3-5.6l6.3,0.8l6.3,4
			l6.3-3.6l6.3,2.4l6.3-3.8l6.3,5.6l6.3-1.4l6.3-3l6.3-0.1l6.3,4.9h6.3l6.3-2.6l6.3-0.2l6.3-2.3l6.3,5l6.3-1.8l6.3-0.4l6.3,0.9
			l6.3-2.6l6.3,1.2l6.3-2.3l6.3,4l6.3-4.9l6.3,0.9l6.3,0.5l6.3-0.5l6.3-0.1l6.3,3l6.3,1.3l6.3-3.3l6.3-0.3l5.7-2.5l5-2.8l6.9-3.3
			l-1.2-7.4l-1.7-6.5l5.1-6.5l-2.8-6.5l0.4-6.5l-1.9-6.5l4.4-6.5l-0.4-6.5l-3.2-6.5l0.6-6.5l-0.8-6.5l1.4-6.5l1.9-6.5l-4.2-6.5
			l1.6-6.5l-1.3-6.4l2.8-6.5l1.6-6.5l-4.9-6.5l2.7-6.5l-0.1-6.5l0.8-6.5l-1.3-6.5l3.3-6.5l-5.4-6.5l0.5-6.2l1.5-6.2l-2-6.2l3.8-6.2
			l-0.4-6.2l-2.4-6.2l0.2-6.2l3.7-6.2l-3.8-6.2l0.9-7.3l-2.9-4.1l-3.7,4.7l-6.4,2.8l-3.6,5.8l-6.7,2.4l-4.7,4.6l-2.9,6.4l-5,2
			l1.9-4.7l-5.2-6l2.7-6.3l0.5-6.2l-0.4-6.2l-0.7-7.2l-3.1,7.3l-4.2,4.9l-4.8,4.3l-6.9,2.1l-3.9,5.3l-5.4,3.6l-4.3,4.8l-2.6,2.9
			l0.5-3.5l-0.4-6.2l0.4-6.2l-4.1-6.2l2.4-6.3l0.2-7.5l-5.7,4.9l-4.1,4.7l-4.9,3.9l-5.3,3.4l-1.7,7.4l-4.8,4l-3.2,5.7l-6.5,2.1
			l-4.8,4l-5.7,3.1l-2.2,6.9l-3.3,5.6l-6.7,1.9l-4.8,4.1l-6,2.7l-0.5,8.7l-6.2,1.7l1.6-6.1l-1-6.8l1.8-6.8l-2.4-6.8l2.3-6.8
			l-2.3-6.8l-0.5-6.8l3-6.8l-2.6-6.8l1.9-6.5L114.8,177z M-14.8,375.4l6.2-1.5l6.2,3.8l1.9,7.4l-1.8,7.4l-7.8,1.1l-4.7,5.4l-6.4-2.5
			l-4.8-4.8l-3.2-6.6l2.8-7l5.1-4.7L-14.8,375.4z M46.8,375.4l6.2-1.5l6.2,3.8l1.9,7.4l-1.8,7.4l-7.8,1.1l-4.7,5.4l-6.4-2.5
			l-4.8-4.8l-3.2-6.6l2.8-7l5.1-4.7L46.8,375.4z M113.3,375.4l6.2-1.5l6.2,3.8l1.9,7.4l-1.8,7.4l-7.8,1.1l-4.7,5.4l-6.4-2.5
			l-4.8-4.8l-3.2-6.6l2.8-7l5.1-4.7L113.3,375.4z M180.6,375.4l6.2-1.5l6.2,3.8l1.9,7.4l-1.8,7.4l-7.8,1.1l-4.7,5.4l-6.4-2.5
			l-4.8-4.8l-3.2-6.6l2.8-7l5.1-4.7L180.6,375.4z M241.5,375.4l6.2-1.5l6.2,3.8l1.9,7.4l-1.8,7.4l-7.8,1.1l-4.7,5.4l-6.4-2.5
			l-4.8-4.8l-3.2-6.6l2.8-7l5.1-4.7L241.5,375.4z"/>
	</g>
</g>
<g>
	<path class="st9" d="M91,209.2c9.3,0,9.3-0.2,18.5-0.2s9.3,0.2,18.5,0.2c4.6,0,7.5,3.6,7.5,8.6c0,6.2,1.5,6.2,1.5,12.3
		c0,4.9-4.4,9.4-9,9.4c-9.3,0-9.3,0.6-18.5,0.6s-9.3-1.1-18.5-1.1c-4.6,0-8.3-4.1-8.3-9c0-6.2,0.6-6.2,0.6-12.3
		C83.3,212.9,86.3,209.2,91,209.2z"/>
	<path class="st64" d="M91,209.2c9.3,0,9.3-0.2,18.5-0.2s9.3,0.2,18.5,0.2c4.6,0,7.5,3.6,7.5,8.6c0,6.2,1.5,6.2,1.5,12.3
		c0,4.9-4.4,9.4-9,9.4c-9.3,0-9.3,0.6-18.5,0.6s-9.3-1.1-18.5-1.1c-4.6,0-8.3-4.1-8.3-9c0-6.2,0.6-6.2,0.6-12.3
		C83.3,212.9,86.3,209.2,91,209.2z"/>
</g>
<path class="st65" d="M95.4,214.5h28.4c3.6,0,6.4,2.6,6.4,5.7v7.7c0,3.1-2.8,5.7-6.4,5.7H95.4c-3.6,0-6.4-2.6-6.4-5.7v-7.7
	C88.9,217,91.9,214.5,95.4,214.5z"/>
<ellipse class="st9" cx="97.7" cy="224.1" rx="3.5" ry="3.5"/>
<ellipse class="st9" cx="121.4" cy="224.1" rx="3.5" ry="3.5"/>
<g>
	<polygon class="st66" points="-32,179.1 3.3,177.8 38.7,180 74.2,178 109.6,178.2 144.9,175.5 180.4,182.3 215.8,184.2 
		251.2,180.8 261.6,189.5 264.2,227.2 258,265 262.6,302.6 264.7,340.3 262.9,378.1 259.3,415.8 251.2,426.9 215.8,431.4 
		180.4,421.8 145,423 109.6,426.3 74.2,426.2 38.7,425.8 3.3,421.1 -32,421.1 -43.2,415.8 -47.2,378.1 -47.2,340.3 -47.4,302.7 
		-37.2,265 -45.1,227.2 -44,189.5 	"/>
</g>
<path class="st67" d="M-22.6,284.9H5.5c1.9,0,3.3,1.6,3.3,3.6v27.1c0,2-1.5,3.6-3.3,3.6h-28.1c-1.9,0-3.3-1.6-3.3-3.6v-27.1
	C-26.1,286.5-24.5,284.9-22.6,284.9z"/>
<ellipse class="st68" cx="-8.6" cy="302.1" rx="10.9" ry="10.8"/>
<path class="st67" d="M216,284.9h28.1c1.9,0,3.3,1.6,3.3,3.6v27.1c0,2-1.5,3.6-3.3,3.6H216c-1.9,0-3.3-1.6-3.3-3.6v-27.1
	C212.6,286.5,214.2,284.9,216,284.9z"/>
<ellipse class="st68" cx="230.1" cy="302.1" rx="10.9" ry="10.8"/>
<path class="st69" d="M-35.4,394.4h6.5c9.5,7.5,15.2,4.8,20.1,0h40.6c7.6,3.3,15.3,8.3,23.1,0h45.4c6.7,9.3,13.9,5.5,21.2,0H167
	c7.5,9.6,14.9,9.9,22.1,0h38.7c6,6.5,12.8,6.5,20.4,0h7.1c1.7,0,2.9,1.4,2.9,3v24.3c0,1.7-1.4,3-2.9,3H-35.4c-1.7,0-2.9-1.4-2.9-3
	v-24.3C-38.3,395.6-37.1,394.4-35.4,394.4L-35.4,394.4z"/>
<path class="st70" d="M4.4,394.7v29.1 M12.5,394.7v29.1 M20.6,394.7v29.1 M65.3,394.7v29.1 M73,394.7v29.1 M79.7,394.7v29.1
	 M87.3,394.7v29.1 M133.2,394.7v29.1 M140.4,394.7v29.1 M147.6,394.7v29.1 M155.6,394.7v29.1 M200.3,394.7v29.1 M208.2,394.7v29.1
	 M216.2,394.7v29.1"/>
<ellipse class="st54" cx="-18.3" cy="383.4" rx="12.5" ry="13"/>
<ellipse class="st54" cx="43.5" cy="384.4" rx="12.5" ry="13"/>
<ellipse class="st54" cx="110.5" cy="383.9" rx="12.5" ry="13"/>
<ellipse class="st54" cx="177" cy="384.4" rx="12.5" ry="13"/>
<ellipse class="st54" cx="238" cy="384.7" rx="12.5" ry="13"/>
<path class="st69" d="M-18.1,368.8c-7.8,0-14.1,6.8-14.1,15v40.6H-4v-40.6C-4,375.5-10.3,368.8-18.1,368.8L-18.1,368.8z
	 M-18.1,372.1c6.5,0,11.7,5.6,11.7,12.3c0,6.9-5.2,12.3-11.7,12.3s-11.7-5.6-11.7-12.3C-29.8,377.6-24.6,372.1-18.1,372.1z
	 M43.3,368.8c-7.8,0-14.1,6.8-14.1,15v40.6h28.3v-40.6C57.5,375.5,51.2,368.8,43.3,368.8z M43.4,372.1c6.5,0,11.7,5.6,11.7,12.3
	c0,6.9-5.2,12.3-11.7,12.3s-11.7-5.6-11.7-12.3C31.6,377.6,36.9,372.1,43.4,372.1z M109.9,368.8c-7.8,0-14.1,6.8-14.1,15v40.6H124
	v-40.6C124,375.5,117.7,368.8,109.9,368.8L109.9,368.8z M110,372.1c6.5,0,11.7,5.6,11.7,12.3c0,6.9-5.2,12.3-11.7,12.3
	s-11.7-5.6-11.7-12.3C98.1,377.6,103.5,372.1,110,372.1z M177.3,368.8c-7.8,0-14.1,6.8-14.1,15v40.6h28.3v-40.6
	C191.4,375.5,185.1,368.8,177.3,368.8L177.3,368.8z M177.3,372.1c6.5,0,11.7,5.6,11.7,12.3c0,6.9-5.2,12.3-11.7,12.3
	c-6.5,0-11.7-5.6-11.7-12.3C165.5,377.6,170.8,372.1,177.3,372.1z M238.1,368.8c-7.8,0-14.1,6.8-14.1,15v40.6h28.3v-40.6
	C252.2,375.5,245.9,368.8,238.1,368.8L238.1,368.8z M238.2,372.1c6.5,0,11.7,5.6,11.7,12.3c0,6.9-5.2,12.3-11.7,12.3
	c-6.5,0-11.7-5.6-11.7-12.3C226.3,377.6,231.7,372.1,238.2,372.1z"/>
<g>
	<polygon class="st71" points="58.4,249.2 78.9,245.1 99.3,247.5 119.8,248 140.3,247.8 160.7,247.9 171.8,256.9 172.1,276.1 
		171.7,295.2 169.1,314.4 169.7,333.5 168.7,352.7 160.7,361.3 140.3,360.2 119.8,361.2 99.3,361.6 78.9,361 58.4,364.3 49.4,352.7 
		50.2,333.5 49.9,314.4 49.5,295.2 50.1,276.1 51.1,256.9 	"/>
	<polygon class="st72" points="58.4,249.2 78.9,245.1 99.3,247.5 119.8,248 140.3,247.8 160.7,247.9 171.8,256.9 172.1,276.1 
		171.7,295.2 169.1,314.4 169.7,333.5 168.7,352.7 160.7,361.3 140.3,360.2 119.8,361.2 99.3,361.6 78.9,361 58.4,364.3 49.4,352.7 
		50.2,333.5 49.9,314.4 49.5,295.2 50.1,276.1 51.1,256.9 	"/>
</g>
<ellipse class="st73" cx="62.1" cy="259.7" rx="3.5" ry="3.5"/>
<ellipse class="st73" cx="85.8" cy="259.7" rx="3.5" ry="3.5"/>
<ellipse class="st73" cx="109.6" cy="259.7" rx="3.5" ry="3.5"/>
<ellipse class="st73" cx="133.3" cy="259.7" rx="3.5" ry="3.5"/>
<ellipse class="st73" cx="157.1" cy="259.7" rx="3.5" ry="3.5"/>
<ellipse class="st73" cx="62.1" cy="282.2" rx="3.5" ry="3.5"/>
<ellipse class="st73" cx="85.8" cy="282.2" rx="3.5" ry="3.5"/>
<ellipse class="st73" cx="109.6" cy="282.2" rx="3.5" ry="3.5"/>
<ellipse class="st73" cx="133.3" cy="282.2" rx="3.5" ry="3.5"/>
<ellipse class="st73" cx="157.1" cy="282.2" rx="3.5" ry="3.5"/>
<g>
	<ellipse class="st73" cx="62.1" cy="304.8" rx="3.5" ry="3.5"/>
	<ellipse class="st73" cx="85.8" cy="304.8" rx="3.5" ry="3.5"/>
	<ellipse class="st73" cx="109.6" cy="304.8" rx="3.5" ry="3.5"/>
	<ellipse class="st73" cx="133.3" cy="304.8" rx="3.5" ry="3.5"/>
	<ellipse class="st73" cx="157.1" cy="304.8" rx="3.5" ry="3.5"/>
</g>
<g>
	<ellipse class="st73" cx="62.1" cy="327.4" rx="3.5" ry="3.5"/>
	<ellipse class="st73" cx="85.8" cy="327.4" rx="3.5" ry="3.5"/>
	<ellipse class="st73" cx="109.6" cy="327.4" rx="3.5" ry="3.5"/>
	<ellipse class="st73" cx="133.3" cy="327.4" rx="3.5" ry="3.5"/>
	<ellipse class="st73" cx="157.1" cy="327.4" rx="3.5" ry="3.5"/>
</g>
<g>
	<ellipse class="st73" cx="62.1" cy="350" rx="3.5" ry="3.5"/>
	<ellipse class="st73" cx="85.8" cy="350" rx="3.5" ry="3.5"/>
	<ellipse class="st73" cx="109.6" cy="350" rx="3.5" ry="3.5"/>
	<ellipse class="st73" cx="133.3" cy="350" rx="3.5" ry="3.5"/>
	<ellipse class="st73" cx="157.1" cy="350" rx="3.5" ry="3.5"/>
</g>
<g>
	<polygon class="st66" points="-33,177.6 250.3,181.4 262.1,190 260.1,416.2 250.3,429.3 -33,429.9 -43.4,416.2 -45,190 	"/>
</g>
</svg>
