<?xml version="1.0" encoding="utf-8"?>
<!-- Generator: Adobe Illustrator 19.0.0, SVG Export Plug-In . SVG Version: 6.00 Build 0)  -->
<svg version="1.1" id="Layer_1" xmlns="http://www.w3.org/2000/svg" xmlns:xlink="http://www.w3.org/1999/xlink" x="0px" y="0px"
	 viewBox="-184 42 591 477" style="enable-background:new -184 42 591 477;" xml:space="preserve">
<style type="text/css">
	.st0{display:none;fill:none;stroke:#8E8E8E;stroke-width:2;stroke-miterlimit:10;}
	.st1{fill:#FED44B;}
	.st2{fill:#4079A8;}
	.st3{fill:#BA9DA9;}
	.st4{fill:#FEE087;}
	.st5{fill:#EDEDED;}
	.st6{fill:#D8D8D8;}
	.st7{fill:#EFEFEF;}
	.st8{fill:#FECB34;}
	.st9{fill:#989898;}
	.st10{fill:#FEFEFE;}
	.st11{fill:#81868F;}
	.st12{fill:#FCFCFC;}
	.st13{fill:#BABABA;}
	.st14{fill:#D0D0D0;}
	.st15{fill:#EDCB85;}
	.st16{fill:#EDC57E;}
	.st17{fill:#BEE7ED;}
	.st18{fill:#DF7E55;}
	.st19{fill:#5F618D;}
	.st20{fill:#E3FEFB;}
	.st21{fill:#3A498B;}
	.st22{fill:#C7D2DE;}
	.st23{fill:#FAFEF6;}
	.st24{fill:#3C3050;}
	.st25{fill:#DADA8F;}
	.st26{fill:#D63727;}
	.st27{fill:#D7392A;}
	.st28{fill:#F7CC7F;}
	.st29{fill:#FEDA8F;}
	.st30{fill:#FED387;}
	.st31{fill:#3A3A8F;}
	.st32{fill:#003A8F;}
	.st33{fill:#8F3A00;}
	.st34{fill:#3A6B9C;}
	.st35{fill:#356799;}
	.st36{fill:#3E6E9E;}
	.st37{fill:#3B6C9D;}
	.st38{fill:#40709F;}
	.st39{fill:#4472A1;}
	.st40{fill:#346799;}
	.st41{fill:#35679A;}
	.st42{fill:#36689A;}
	.st43{fill:#FAEFEC;}
	.st44{fill:#E59176;}
	.st45{fill:#E18C64;}
	.st46{fill:#E39172;}
	.st47{fill:#F6F8FA;}
	.st48{fill:#FBFCFD;}
	.st49{fill:#FCFDFD;}
	.st50{fill:#FAFBFC;}
	.st51{fill:#B5C7D9;}
	.st52{fill:#F7F8FA;}
	.st53{fill:#C7D5E2;}
	.st54{fill:#FFFFFF;}
	.st55{fill:#1C8682;}
	.st56{fill:#336698;}
	.st57{fill:#4A77A4;}
	.st58{fill:#4976A3;}
	.st59{fill:#4C79A5;}
	.st60{fill:#000096;}
	.st61{fill:none;stroke:#8E8E8E;stroke-width:2;stroke-miterlimit:10;}
	.st62{fill:#45F4B5;filter:url(#black-glow);}
	.st63{opacity:0.387;}
	.st64{fill:none;stroke:#1A1A1A;stroke-width:2.06;stroke-linecap:round;}
	.st65{fill:#242424;}
	.st66{fill:none;stroke:#002B34;stroke-width:2.06;stroke-linecap:round;}
	.st67{fill:#989898;stroke:#1A1A1A;stroke-width:0.99;stroke-linecap:round;}
	.st68{fill:#333333;stroke:#232323;stroke-width:4.618;stroke-linecap:round;}
	.st69{fill:#FFDD55;stroke:#8C4F27;stroke-width:0.825;stroke-linecap:round;stroke-linejoin:round;}
	.st70{fill:none;stroke:#8C4F27;stroke-width:0.825;}
	.st71{fill:#CCCCCC;}
	.st72{fill:#CCCCCC;stroke:#002B34;stroke-width:1.386;stroke-linecap:round;stroke-linejoin:round;}
	.st73{fill:#FFFFFF;fill-opacity:0.482;}
</style>
<filter  id="black-glow">
	
		<feColorMatrix  type="matrix" values="0 0 0 0   0                          0 0 0 0   0                          0 0 0 0   0                          0 0 0 0.7 0">
		</feColorMatrix>
	<feGaussianBlur  stdDeviation="15" result="coloredBlur"></feGaussianBlur>
	<feMerge>
		<feMergeNode  in="coloredBlur"></feMergeNode>
		<feMergeNode  in="SourceGraphic"></feMergeNode>
	</feMerge>
</filter>
<g id="Layer_1_1_">
	<path id="XMLID_8_" class="st0" d="M143.9,451.6L-214,550V14l357.9,81.2V451.6z"/>
	<g id="XMLID_2871_">
		<path id="XMLID_650_" class="st1" d="M-108.1,68.4c2.2,0.3,3.1,1.8,3.2,4.4c0.1,2.8-0.9,4-3.3,3.4c-1.4,0.4-1.6,1.9-1.8,3.3
			c-2.7-0.1-5.1-0.9-5-5.1c-1.3-2.8-0.4-4.2,1.8-4.2C-111.2,70.2-109.7,69.2-108.1,68.4z"/>
	</g>
	<g id="XMLID_2870_">
		<path id="XMLID_640_" class="st2" d="M-108.1,68.4c0,3.2-1.6,3.9-4,3c-2.4-0.9-3.2,0.3-2.9,3c-2.2,0.3-3-1.2-3.2-3.5
			c-0.2-2.9,0.6-4.6,3.3-4c1.5-0.3,1.8-1.7,1.8-3.3C-110.6,63.6-108.2,64.1-108.1,68.4z"/>
	</g>
	<g id="XMLID_2866_">
		<path id="XMLID_201_" class="st3" d="M-107.1,76.7v-8.1C-105,72.2-107,74.4-107.1,76.7z"/>
	</g>
	<g id="XMLID_2865_">
		<path id="XMLID_190_" class="st4" d="M-117.3,78.2c-0.4-1.9-2.1-5.1,1.8-3.4C-115.8,76.1-116,77.7-117.3,78.2z"/>
	</g>
	<g>
		<g id="XMLID_3111_">
			<path id="XMLID_1541_" class="st5" d="M-128.4,511.1V78.5c0.8-0.8,2-0.6,3.1-0.5c1.2,0.2,2.2,0.4,3.3,0.6
				c133.8,27.3,234.9,47.9,314,64.1c0.9,0.2,2,0,2.9,1.4v288c-0.4,0.5-0.9,0.4-1.5,0.5c-79.9,19.5-182.4,44.6-318.6,77.8
				C-126.2,510.9-127.4,511.5-128.4,511.1z"/>
		</g>
		<g id="XMLID_3110_">
			<path id="XMLID_1537_" class="st6" d="M-123.6,504.1v-341c0-5.8-0.4-5.1,4.4-4.6c15,1.8,29.5,3.6,43.6,5.3c2.3,0.2,3,1.2,2.8,4
				c-0.2,3.2,0,6.5,0,9.9c0,1.6,0.4,2.4,1.8,2.4c0.8,0,1.6,0.2,2.4,0.2c107.7,11.3,192.5,20,261.1,27.2c0.4,0.9,0.3,1.8,0.3,2.8
				v215.7c0,3,0,3-1.7,3.4c-78.6,18.8-178.9,42.7-311.4,74.2C-121.4,504-122.5,504.5-123.6,504.1L-123.6,504.1z"/>
		</g>
		<g id="XMLID_3073_">
			<path id="XMLID_1533_" class="st7" d="M-123.6,504.1c134-31.8,235.3-56,314.6-74.7c1.3-0.3,1.6-0.9,1.6-3.2V207.5
				c0.4,0.1,0.5,0.5,0.5,1.2v217.1c0,3.9,0.2,3.4-2,4c-78.6,18.8-178.7,42.7-310.9,74.3C-121.1,504.2-122.4,505.2-123.6,504.1z"/>
		</g>
		<g id="XMLID_3071_">
			<path id="XMLID_1529_" class="st8" d="M164.4,161.7c0,8.9-4.3,15.5-9.6,14.8c-5.4-0.8-9.9-8.8-9.8-18c0-9.2,4.5-15.8,9.9-14.7
				C160.1,144.7,164.4,152.7,164.4,161.7z"/>
		</g>
		<g id="XMLID_3015_">
			<path id="XMLID_1525_" class="st9" d="M177.7,132.8c0.3,2.4-0.4,2.3-1.5,2.1c-1.3-0.1-1.4-1.1-1.4-2.9c-0.1-2.3,0.4-2.4,1.6-2.1
				S178,131,177.7,132.8L177.7,132.8z"/>
		</g>
		<g id="XMLID_3014_">
			<path id="XMLID_1521_" class="st9" d="M162,129.6c0.8,0.2,1.7,0.3,2.5,0.5v0.2c-0.8-0.2-1.7-0.3-2.5-0.5V129.6z"/>
		</g>
		<g id="XMLID_3013_">
			<path id="XMLID_1517_" class="st10" d="M65.5,458.6c-53.1,12.6-114,27-184.6,43.8c-3.9,1-3.9,0.9-3.9-3.8V163.5
				c0-4.7,0-4.7,3.9-4.2c14.8,1.8,29,3.5,42.8,5.1c2.3,0.2,3.3,1,3,4.1c-0.2,3,0,6.1-0.1,9.2c-0.1,2.3,0.6,3.1,2.3,3.1
				c0.7,0,1.5,0.1,2.2,0.2c106.6,11,190.9,19.7,259.1,26.8c2.2,0.2,2-0.2,2,3.6v213.5c0,4,0.2,3.4-2,4
				C153.4,437.8,112.1,447.5,65.5,458.6L65.5,458.6z"/>
		</g>
		<g id="XMLID_3010_">
			<path id="XMLID_1513_" class="st10" d="M146.4,158.3c0.1-8,3.8-13.2,8.7-12.1c4.6,1.1,8.1,7.7,8,15.7c-0.1,7.8-3.7,13.1-8.5,12.2
				C149.7,173.1,146.3,166.4,146.4,158.3z"/>
		</g>
		<g id="XMLID_3009_">
			<path id="XMLID_1509_" class="st10" d="M176.2,130.5c1-0.1,1.3,0.6,1.3,2.3c0,1.5-0.2,1.9-1.2,1.7c-0.9-0.2-1.3-0.8-1.3-2.4
				C175.2,130.7,175.3,129.8,176.2,130.5z"/>
		</g>
		<g id="XMLID_3008_">
			<path id="XMLID_1505_" class="st11" d="M65.5,195.4c46.7,4.8,87.9,9,124.8,12.8c1.4,0.1,1.7,0.8,1.7,3.2v213.3
				c0,2.3-0.2,3-1.6,3.3c-78.3,18.3-177.9,41.9-309.2,72.9c-2.9,0.6-3.6,0-3.6-3.4c0.1-105.7,0.1-211.3,0-316.9c0-4,1-4.4,4-4.2
				C-48.1,183.8,12.5,190,65.5,195.4L65.5,195.4z"/>
		</g>
		<g id="XMLID_3004_">
			<path id="XMLID_1501_" class="st12" d="M-83.6,180.9c1,0.1,2,0.1,3,0.2c112.2,11.5,200,20.4,270.6,27.6c1.4,0.1,1.8,0.6,1.8,3.2
				v212.3c0,2.3-0.2,3.1-1.7,3.5c-70.6,16.5-158.6,37.2-270.9,63.6c-0.9,0.2-1.9,0.3-2.7,0.5c-0.9-1-0.8-2.5-0.9-4V187.8
				C-84.6,185.4-85.1,182.8-83.6,180.9L-83.6,180.9z"/>
		</g>
		<g id="XMLID_3003_">
			<path id="XMLID_1497_" class="st13" d="M194.9,144.1l-323.7-65.6V56.9l323.7,72.9V144.1z"/>
		</g>
		<g id="XMLID_3002_">
			<path id="XMLID_1493_" class="st8" d="M45.8,160.8c-7.3-1.1-13.3-10.5-13.3-21.2s6.1-18.1,13.4-16.6c7.2,1.4,12.9,10.8,12.9,21.2
				C58.8,154.3,53,161.8,45.8,160.8L45.8,160.8z"/>
		</g>
		<g id="XMLID_3001_">
			<path id="XMLID_1489_" class="st8" d="M139.8,157.6c0,9.2-4.7,16-10.5,15.1c-5.9-0.9-10.6-9.4-10.6-19c0-9.3,4.9-16.1,10.7-14.9
				C135.2,140,139.8,148.4,139.8,157.6z"/>
		</g>
		<g id="XMLID_2998_">
			<path id="XMLID_1485_" class="st8" d="M28.3,138.9c0,10.7-6.2,18.5-14,17.4C6.4,155.1,0,145.1,0,134c0-10.9,6.5-18.7,14.3-17.2
				S28.3,128.2,28.3,138.9z"/>
		</g>
		<g id="XMLID_2997_">
			<path id="XMLID_1481_" class="st8" d="M-100.7,94.7c10.2,1.9,18.1,13.3,18.1,25.5c0,12.2-8,20.9-18.1,19.5
				c-10.2-1.5-18.6-12.9-18.7-25.4C-119.4,101.5-111,92.8-100.7,94.7z"/>
		</g>
		<g id="XMLID_2996_">
			<path id="XMLID_1477_" class="st8" d="M65.1,145.1c0-10.3,5.4-17.6,12.2-16.3c6.6,1.2,11.9,10.3,11.9,20.3
				c0,9.9-5.2,17.2-11.8,16.2C70.6,164.4,65.1,155.4,65.1,145.1L65.1,145.1z"/>
		</g>
		<g id="XMLID_2993_">
			<path id="XMLID_1473_" class="st8" d="M-7.4,132.8c0,11.3-6.7,19.4-15.2,18.2c-8.7-1.2-15.8-11.6-15.8-23.3
				c0-11.5,7-19.5,15.6-18S-7.4,121.5-7.4,132.8L-7.4,132.8z"/>
		</g>
		<g id="XMLID_2992_">
			<path id="XMLID_1469_" class="st8" d="M115.4,153.4c0.5,8.3-4.2,16.8-11,15.8c-6.3-1-11.5-9.9-11.5-19.6
				c0.1-9.9,5.3-16.8,11.5-15.5C110.7,135.4,115.4,143.7,115.4,153.4z"/>
		</g>
		<g id="XMLID_2991_">
			<path id="XMLID_1465_" class="st8" d="M-77.1,121.2c-0.7-10.6,6.8-20.7,17.1-18.5c9.1,1.8,16.4,12.6,16.5,24.1
				c0.1,11.5-7.4,20.2-16.5,18.9C-70.2,144.1-77.9,131.7-77.1,121.2z"/>
		</g>
		<g id="XMLID_2987_">
			<path id="XMLID_1461_" class="st14" d="M-3.8,113.5v51.5H-4v-51.5H-3.8z"/>
		</g>
		<g id="XMLID_2986_">
			<path id="XMLID_1457_" class="st15" d="M76.5,173.2V172c0.1-0.6,0.3-1,0.8-0.4c0.7,1.3,0.5,2.1-0.3,2.8
				C76.8,173.9,76.7,173.6,76.5,173.2z"/>
		</g>
		<g id="XMLID_2985_">
			<path id="XMLID_1453_" class="st16" d="M77.7,171c0.4,0.1,0.4,0.8,0.6,1.2c0.7,1.1,0.4,1.7-0.3,2.3h-0.4
				C77.4,173.3,77.4,172.1,77.7,171L77.7,171z"/>
		</g>
		<g id="XMLID_2984_">
			<path id="XMLID_1449_" class="st17" d="M77.7,171v3.4c-0.3,0-0.5-0.1-0.8-0.1c0.4-0.9,0.4-1.8,0.3-2.8
				C77.4,171.4,77.6,171.3,77.7,171L77.7,171z"/>
		</g>
		<g id="XMLID_2981_">
			<path id="XMLID_1234_" class="st10" d="M46,158c-6.5-1-11.4-8.7-11.4-18.1c0-9.3,4.8-15.4,11.3-14.3c6.4,1.2,11.1,8.9,11.1,18.1
				C56.9,152.7,52.3,158.9,46,158L46,158z"/>
		</g>
		<g id="XMLID_2980_">
			<path id="XMLID_1230_" class="st10" d="M129.4,170.3c-5-0.8-9-7.7-9-16c0-8.4,4.1-13.9,9.2-12.9c4.9,1.1,8.7,8,8.7,16.1
				C138.2,165.5,134.4,171,129.4,170.3L129.4,170.3z"/>
		</g>
		<g id="XMLID_2979_">
			<path id="XMLID_1226_" class="st10" d="M26.3,138.5c0,9.5-5,16-11.9,14.9s-12.1-9.1-12.1-18.8c0-9.9,5.3-16.2,12.3-14.8
				C21.2,121.1,26.3,129,26.3,138.5z"/>
		</g>
		<g id="XMLID_2976_">
			<path id="XMLID_1222_" class="st10" d="M-85.2,119.9c0,10.8-6.6,17.9-15.6,16.5s-15.8-10.7-15.8-21.9c0-11.3,7-18.2,16.1-16.4
				C-91.7,99.9-85.2,109.1-85.2,119.9z"/>
		</g>
		<g id="XMLID_2975_">
			<path id="XMLID_1202_" class="st10" d="M77.3,162.6c-5.9-0.9-10.4-8.3-10.4-17.3c0-9.1,4.5-15,10.5-13.8
				c5.9,1.2,10,8.5,10.2,17.2C87.6,157.6,83.2,163.5,77.3,162.6L77.3,162.6z"/>
		</g>
		<g id="XMLID_2974_">
			<path id="XMLID_1164_" class="st10" d="M-22.7,147.9c-7.6-1.2-13.4-9.8-13.3-20.2c0.1-10.1,5.9-16.5,13.5-15
				c7.5,1.5,13,10,12.9,20C-9.7,142.6-15.3,149.1-22.7,147.9z"/>
		</g>
		<g id="XMLID_2970_">
			<path id="XMLID_1160_" class="st10" d="M104.6,136.7c5.3,1.1,9.4,8.4,9.4,16.6c0,8.5-4.3,14.3-9.8,13.2c-5.4-1-9.5-8.3-9.4-16.9
				C94.8,141.1,99.2,135.6,104.6,136.7z"/>
		</g>
		<g id="XMLID_2969_">
			<path id="XMLID_1156_" class="st10" d="M-60.1,142.4c-8.3-1.2-14.9-10.3-14.9-20.9c0-10.4,6.5-17.4,14.6-15.9
				c8.1,1.5,14.2,10.4,14.3,20.5C-45.8,136.5-51.9,143.5-60.1,142.4z"/>
		</g>
		<g id="XMLID_2968_">
			<path id="XMLID_1152_" class="st18" d="M-81.5,166.7c0.6,0.1,1,0.6,1,1.4c-0.2,0.4-0.3,0.9-0.4,1.4c-0.2,1.8,0.3,3.9-0.4,5.6
				c-1.5,0.9-3-0.1-4.5,0.1c-0.4,0.1-0.8,0.2-1.2,0.4c-0.6-0.1-1-0.6-1-1.4c0.2-0.2,0.3-0.5,0.4-0.9c0-0.2,0.1-0.4,0.1-0.6
				c0-7.1,0-5.8,4.9-5.5C-82.3,167-81.8,166.9-81.5,166.7L-81.5,166.7z"/>
		</g>
		<g id="XMLID_2967_">
			<path id="XMLID_1148_" class="st19" d="M-102.3,171.8c-0.8,0.3-2,1.9-2.4-0.9c-0.4-0.9-0.4-1.6,0-2.4c0.7-0.5,1-1.5,1.5-2.5
				c0.8,0.9,0,2.3,0.9,2.9C-101.7,170.1-101.7,170.9-102.3,171.8z"/>
		</g>
		<g id="XMLID_2963_">
			<path id="XMLID_1144_" class="st20" d="M-105.2,170.8l-1.3,1.3c-0.9-1.3-0.5-3.2-1.7-4.4c0.1-1.6,1-1.3,1.9-1.1
				c1,0.2,0.9,1.3,1,2.3C-104.9,169.4-104.9,170.2-105.2,170.8z"/>
		</g>
		<g id="XMLID_2961_">
			<path id="XMLID_1140_" class="st21" d="M-108.1,167.6c2.9,0.4,1.3,2.9,1.7,4.4C-109.7,171.8-107.7,169.2-108.1,167.6z"/>
		</g>
		<g id="XMLID_2956_">
			<path id="XMLID_1136_" class="st22" d="M-98.9,170.2c0.8-0.5,1.8-1.1,2.2,0.6c0.3,1.5-0.4,2.3-1.7,2.3c-0.3-0.6-0.8-1.3-0.8-2
				C-99.2,170.6-99.1,170.3-98.9,170.2L-98.9,170.2z"/>
		</g>
		<g id="XMLID_2955_">
			<path id="XMLID_1132_" class="st23" d="M-98.9,170.8c0.2,0.8,0.3,1.5,0.5,2.1c-1-1-2.3,0.2-3.3-0.8
				C-101.8,169.8-101.5,169.5-98.9,170.8z"/>
		</g>
		<g id="XMLID_2954_">
			<path id="XMLID_1128_" class="st24" d="M-98.9,170.8c-0.9,0.5-2.8-1.4-2.8,1.5c-0.2-0.1-0.4-0.3-0.5-0.4v-2.7
				c1.3-0.2,2.4,0,3.5,1.1C-98.9,170.4-98.9,170.6-98.9,170.8z"/>
		</g>
		<g id="XMLID_2953_">
			<path id="XMLID_1124_" class="st25" d="M-114,167.2c1.5-0.2,1.9,0.8,1.8,2.3c-0.1,0.8,0.5,2.7-1.3,1.4
				C-114.2,169.7-114.1,168.4-114,167.2z"/>
		</g>
		<g id="XMLID_2950_">
			<path id="XMLID_1120_" class="st26" d="M-81,168.8c0.2-0.2,0.3-0.4,0.5-0.6c-0.2,2.5,0.7,5.1-0.5,7.4c-0.1-0.1-0.2-0.3-0.2-0.4
				V174C-81.1,172.2-81.4,170.4-81,168.8z"/>
		</g>
		<g id="XMLID_2949_">
			<path id="XMLID_1116_" class="st27" d="M-87.5,174.2c-0.2,0-0.4,0-0.5-0.1c0.2-2.5-0.7-5.3,0.5-7.5c0.1,0.2,0.2,0.3,0.2,0.5
				C-87.4,169.4-87.1,171.9-87.5,174.2z"/>
		</g>
		<g id="XMLID_2948_">
			<path id="XMLID_1112_" class="st27" d="M-81.5,166.7l-0.6,0.6c-1.8,0.1-3.7,0.1-5.5-0.8v0.1C-85.6,165.3-83.5,166.7-81.5,166.7z"
				/>
		</g>
		<g id="XMLID_2944_">
			<path id="XMLID_1108_" class="st26" d="M-87,175.6l0.6-0.6c1.9-0.2,3.7-0.1,5.4,0.6C-82.9,176.8-85,175.6-87,175.6z"/>
		</g>
		<g id="XMLID_2943_">
			<path id="XMLID_1104_" class="st28" d="M-114,167.2c0.6,1.2,0.6,2.4,0.5,3.6C-114.9,170.4-115,169.9-114,167.2z"/>
		</g>
		<g id="XMLID_2942_">
			<path id="XMLID_1100_" class="st29" d="M-116.7,167.1c1.2,1.1,1.2,2,0.3,3.2C-117.2,169.1-117.1,168.2-116.7,167.1z"/>
		</g>
		<g id="XMLID_2941_">
			<path id="XMLID_1096_" class="st30" d="M-110.9,168.2c1,1.1,1,1.9,0.3,3.5C-111.2,170.3-111,169.3-110.9,168.2z"/>
		</g>
		<g id="XMLID_2938_">
			<path id="XMLID_1092_" class="st31" d="M-105.2,170.8v-2c0.2,0,0.3,0,0.5-0.1v2.4C-104.9,170.9-105,170.8-105.2,170.8z"/>
		</g>
		<g id="XMLID_2937_">
			<path id="XMLID_1088_" class="st32" d="M-92.1,168.9c0.1,0.1,0.4,0.1,0.4,0.2c0,0.4-0.2,0.3-0.4,0.3V168.9z"/>
		</g>
		<g id="XMLID_2936_">
			<path id="XMLID_1084_" class="st33" d="M-92.1,168.9v0.4c-0.1-0.1-0.4-0.1-0.4-0.2C-92.5,168.8-92.3,168.8-92.1,168.9z"/>
		</g>
		<g id="XMLID_2932_">
			<path id="XMLID_1080_" class="st34" d="M46,149c-1.8-0.3-3.6-0.6-5.3-0.9c-1.3-0.1-1.8-0.9-1.8-2.7c0-2.4,0.1-4.7,0-7.2
				c0-1.8,0.4-2.5,1.7-2.1c3.6,0.6,7.1,1.3,10.6,1.8c1,0.2,1.6,0.9,1.6,2.5c0.5,9.8,0.5,9.8-6,8.7C46.6,149.1,46.2,149,46,149
				L46,149z"/>
		</g>
		<g id="XMLID_2931_">
			<path id="XMLID_1076_" class="st35" d="M154.7,167.3c-1.7-0.4-3-1.9-3.7-4.7c-0.6-2.7-0.4-5.1,0.6-7.1c0.3-0.6,0.8-1.5,1.4-0.6
				c0.7,1,0.1,1.6-0.3,2.3c-1,2-1,4.5,0.1,6.4c1,1.8,2.7,2.1,3.8,0.6c1.2-1.5,1.2-4,0.2-6.4c-0.3-0.8-0.9-1.6-0.3-2.4
				c0.5-0.6,1,0.3,1.4,1.1c1,2.1,1.3,5.1,0.6,7.5C157.7,166.4,156.4,167.5,154.7,167.3L154.7,167.3z"/>
		</g>
		<g id="XMLID_2930_">
			<path id="XMLID_1072_" class="st35" d="M154.1,156.3v-2c0-0.9,0-1.8,0.7-1.7c0.6,0.1,0.6,1.1,0.6,1.8v4.5c0,0.8-0.1,1.6-0.7,1.5
				c-0.6-0.1-0.6-1-0.6-1.8V156.3z"/>
		</g>
		<g id="XMLID_2929_">
			<path id="XMLID_1068_" class="st36" d="M129.4,162.2c-2.2-0.4-4.1-3.4-4.4-7.1c-0.2-3.8,1.2-6.6,3.3-7.2c0.4-0.1,0.7-0.3,1,0.2
				c0.4,0.8-0.1,1.1-0.3,1.5c-0.7,1.7-0.9,3.6-0.1,5.7c0.8,2.1,2,3,3.3,2.7c0.3-0.1,0.7-0.3,0.9,0.2c0.2,0.6-0.1,1.1-0.3,1.6
				C132.4,161.5,130.8,162.5,129.4,162.2L129.4,162.2z"/>
		</g>
		<g id="XMLID_2925_">
			<path id="XMLID_1064_" class="st37" d="M14.5,134.8c0.8,0.1,1.8,0.2,2.6,0.4c2.1,0.5,3.7,2.9,3.7,5.6c0,2.6-1.4,4.7-3.3,4.6
				c-2-0.1-4.1-0.4-6.2-1c-2.1-0.5-3.3-3.1-3.2-5.8c0.1-2.7,1.5-4.5,3.6-4.3C12.7,134.4,13.6,134.6,14.5,134.8z"/>
		</g>
		<g id="XMLID_2924_">
			<path id="XMLID_1060_" class="st38" d="M15.7,130.5c0.2-0.5,0.7-0.6,0.8-0.1c0.3,1.5-0.9,1.6-1.3,2.6c-0.2,0.5-0.7,1.1-1.3,0.3
				c-0.7-1.2-2-2.1-2-4.3c0.7,0,0.9,1.1,1.2,1.4c1.5-0.3-0.5-3.8,1.6-3.4c0.6,1.2-0.2,2.6,0.5,3.8c0,0,0.1,0.1,0.2,0L15.7,130.5
				L15.7,130.5z"/>
		</g>
		<g id="XMLID_2923_">
			<path id="XMLID_1056_" class="st39" d="M15.7,130.5c-0.4,0.6-0.7,0.4-0.8-0.3c-0.1-1.1,0-2.1-0.1-3.2
				C15.8,128,14.5,129.6,15.7,130.5L15.7,130.5z"/>
		</g>
		<g id="XMLID_2922_">
			<path id="XMLID_1052_" class="st40" d="M-93.7,118.1c0.2,2.1-0.7,2.6-2.2,2c-2-0.6-3.3-0.3-2.9,2.8c0.2,1.5,0.2,3-1.8,2.8
				c-2.1-0.2-2.2-1.8-2-3.5c0.3-2.7-0.7-3.6-2.7-3.6c-1.3,0-2.5-0.3-2.5-2.7c0-2.4,1-2.7,2.5-2.1c2.5,1,2.9-0.5,2.7-3.1
				c-0.1-1.6,0.1-2.7,1.8-2.5c1.8,0.2,2.2,1.5,2,3.2c-0.4,3,0.8,4,3,4C-94.4,115.4-93.5,116.2-93.7,118.1L-93.7,118.1z"/>
		</g>
		<g id="XMLID_2919_">
			<path id="XMLID_1048_" class="st41" d="M81.2,147.7c0,0.3,0.1,0.9-0.1,1.2c-0.9,2.1-0.2,3.8,0.9,5.4c0.5,0.8,1.3,1.7,0.5,2.6
				c-0.7,0.9-1.3-0.2-1.7-1.1c-0.9-2-1.9-2.5-3.5-2c-2.5,0.9-5.2-2.8-5.5-7.1c-0.3-4,1.8-7.3,4.4-7.1
				C78.9,139.9,81.1,143.5,81.2,147.7L81.2,147.7z"/>
		</g>
		<g id="XMLID_2918_">
			<path id="XMLID_1044_" class="st42" d="M-22.6,138c-1.6-0.2-3.2-0.6-4.8-0.8s-2.4-0.9-2.4-3.2c0-2.5,0.6-3.2,2.4-2.7
				c1.4,0.3,2.7,0.3,3.8,2.1c0.5,1,1.6,1.2,2.2,0.3c0.9-1.4,2.2-1.1,3.5-1c1.5,0.2,2.5,0.4,2.6,3.2c0,2.7-0.8,3.1-2.6,2.7
				C-19.6,138.5-21,138.2-22.6,138L-22.6,138z"/>
		</g>
		<g id="XMLID_2917_">
			<path id="XMLID_1040_" class="st40" d="M-22.5,120.7c1.8,0,1.6,1.5,1.6,2.9c-0.1,1.8-0.1,3.4,1.9,3.5c1,0.1,0.8,1.1,0.3,1.7
				c-1,1.2-2,2.4-3,3.5c-0.6,0.8-1,0.4-1.6-0.4c-0.6-1.1-1.4-2-2.1-3.1c-0.9-1.5-2.8-3.3,0.5-3c1.5,0.1,0.7-1.9,0.7-3.1
				C-24.2,121.3-24.1,120-22.5,120.7L-22.5,120.7z"/>
		</g>
		<g id="XMLID_2914_">
			<path id="XMLID_1036_" class="st35" d="M108,152.3c0,0.3,0,1-0.1,1.4c-0.7,1.7-0.1,2.9,0.7,4.3c0.4,0.8,1.6,1.7,0.7,2.9
				c-0.7,1.2-1.4-0.4-1.8-1.3c-0.8-1.6-1.6-2.1-2.8-1.6c-1.7,0.8-3.7-1-4.7-3.6c-0.9-2.5-0.8-5.7,0.2-7.7c1.2-2.1,3.1-2.7,4.9-1.4
				C106.9,146.4,108,149.2,108,152.3L108,152.3z"/>
		</g>
		<g id="XMLID_2913_">
			<path id="XMLID_1032_" class="st35" d="M-60.3,133.5c-1.9-0.3-3.9-0.8-5.8-0.9c-1.9-0.2-1.9-1.7-1.9-3.3c0-1.7,0-3.2,1.9-2.8
				c1.3,0.3,2.5,0.3,3.8,1.6c1.3,1.3,3.1,1.6,4.5,0.6c1.4-1.1,2.6-0.3,4-0.1c1.8,0.3,1.3,2.1,1.3,3.4c0.1,1.4,0.1,2.8-1.5,2.5
				C-56.1,134.1-58.2,133.8-60.3,133.5z"/>
		</g>
		<g id="XMLID_2912_">
			<path id="XMLID_1028_" class="st40" d="M-60.1,127.4c-1.9,0.1-1.9-1.4-1.9-3.1c0-1.6,0.4-3.4-1.8-3.5c-1.2,0-1.2-1-0.5-1.7
				c1-1.3,2.2-2.5,3.3-3.8c0.6-0.8,1.2-0.4,1.8,0.4c0.7,1.1,1.6,2.1,2.2,3.2c0.8,1.3,3,3.2-0.4,3c-1.6-0.1-0.7,2-0.8,3.1
				C-58.4,126.7-58.3,128.2-60.1,127.4L-60.1,127.4z"/>
		</g>
		<g id="XMLID_2905_">
			<path id="XMLID_1024_" class="st5" d="M-83.6,180.9v310.9c-11.7,2.8-23.6,5.6-36,8.6c-1.8,0.4-2.4-0.1-2.2-2.1
				c0.1-0.6,0-1.2,0-1.8c0-105.1,0-210-0.1-315.1c0-3.5,0.6-4.5,3.7-4.2C-106.3,178.7-94.9,179.7-83.6,180.9L-83.6,180.9z"/>
		</g>
		<g id="XMLID_2904_">
			<path id="XMLID_1020_" class="st43" d="M-82.2,173.5c-3.1-1.4-3.1-1.4-3.6-4.7c1,0.4,2,1.3,3.1,0.2
				C-83,170.6-83.2,171.8-82.2,173.5z"/>
		</g>
		<g id="XMLID_2903_">
			<path id="XMLID_1016_" class="st44" d="M-87.6,166.5c1.9,0.2,3.7,0.4,5.5,0.8c-4.5-1.1-5.2,2.6-5.4,6.9
				C-87.5,171.6-87.6,169.1-87.6,166.5z"/>
		</g>
		<g id="XMLID_2902_">
			<path id="XMLID_1012_" class="st45" d="M-80.9,175.6c-1.8-0.2-3.7-0.4-5.4-0.6c1.6-1.1,3.3,0,5-0.1c0.1-0.3,0.3-0.3,0.4,0
				C-81,175.1-81,175.3-80.9,175.6L-80.9,175.6z"/>
		</g>
		<g id="XMLID_2901_">
			<path id="XMLID_1008_" class="st46" d="M-81,174.9h-0.4c0.2-2-0.5-4.3,0.4-6.1V174.9z"/>
		</g>
		<g id="XMLID_2900_">
			<path id="XMLID_999_" class="st47" d="M45.9,147.6c-0.4-0.1-0.8-0.1-1.3-0.2c-5.2-0.9-5.2-0.9-4.8-8.4c0.1-1.5,0.4-1.7,1.4-1.6
				c3.1,0.6,6.3,1.1,9.4,1.6c0.2,0,0.5,0,0.6,0.1c1.5,2.6,0.3,5.1,0.6,7.8c0.1,1.4-0.5,1.5-1.3,1.3C49,148.1,47.4,147.9,45.9,147.6
				L45.9,147.6z"/>
		</g>
		<g id="XMLID_2899_">
			<path id="XMLID_985_" class="st48" d="M132,159.6c-2.1,2.3-4.4,1.4-5.7-1.9c-1.3-3.3-0.6-6.6,1.7-8.3c-0.3,2.3-0.5,4.3,0.3,6.4
				C129.3,158,130.5,159,132,159.6z"/>
		</g>
		<g id="XMLID_2896_">
			<path id="XMLID_981_" class="st49" d="M14.3,142.7c-0.8-0.1-1.8-0.2-2.6-0.4c-1.4-0.3-2.1-1.5-2.1-3.2c0-1.6,0.6-2.8,1.8-2.7
				c2.1,0.2,4.1,0.5,6.2,1c1.2,0.3,1.8,1.6,1.8,3.2c0,1.8-0.8,2.7-2.1,2.5C16.2,143.2,15.3,143,14.3,142.7L14.3,142.7z"/>
		</g>
		<g id="XMLID_2895_">
			<path id="XMLID_977_" class="st50" d="M76.5,142.3c1.7,0.2,3,2.5,3,4.9s-1.4,4.2-3,3.9c-1.6-0.3-2.8-2.4-2.9-4.7
				C73.6,143.8,74.8,142.1,76.5,142.3z"/>
		</g>
		<g id="XMLID_2894_">
			<path id="XMLID_973_" class="st51" d="M-16.6,136.7c-0.2,0.3-0.3,0.6-0.4,0.6c-0.3,0-0.6-0.3-0.5-0.9c0-0.2,0.3-0.4,0.5-0.4
				C-17.1,136.1-16.9,136.5-16.6,136.7z"/>
		</g>
		<g id="XMLID_2890_">
			<path id="XMLID_968_" class="st52" d="M103.8,147c1.6,0.3,2.7,2.5,2.7,4.8c-0.1,2.3-1.3,3.9-2.7,3.6c-1.6-0.2-2.8-2.4-2.8-4.7
				C100.9,148.4,102.2,146.7,103.8,147z"/>
		</g>
		<g id="XMLID_2889_">
			<path id="XMLID_964_" class="st53" d="M-56.7,132.7c-0.2-0.3-0.4-0.6-0.4-0.9c0-0.2,0.3-0.5,0.4-0.5c0.3,0,0.6,0.3,0.5,0.9
				C-56.2,132.3-56.5,132.5-56.7,132.7z"/>
		</g>
		<g id="XMLID_2888_">
			<path id="XMLID_961_" class="st54" d="M-82.3,187.2"/>
			<path id="XMLID_958_" class="st55" d="M-82.3,187.2"/>
		</g>
		<g id="XMLID_2887_">
			<path id="XMLID_955_" class="st56" d="M49,146.4c-2.1-0.3-4.1-0.6-6.2-1v-0.6c2.1,0.3,4.2,0.6,6.2,1V146.4z"/>
		</g>
		<g id="XMLID_2884_">
			<path id="XMLID_951_" class="st38" d="M50.5,140.1c0.4,1.6,0.6,3,0,4.1c-0.4,0.8-1.7-0.6-1.3-1C50.2,142.5,49.7,141,50.5,140.1z"
				/>
		</g>
		<g id="XMLID_2883_">
			<path id="XMLID_947_" class="st40" d="M42.7,142.2c-0.6,1.1-1.2,0.8-1.9,0.1C41.3,141.2,42,141.6,42.7,142.2z"/>
		</g>
		<g id="XMLID_2882_">
			<path id="XMLID_943_" class="st38" d="M44.6,142.7c-0.2,0.2-0.3,0.4-0.5,0.4c-0.3,0-0.5-0.3-0.4-0.8c0-0.2,0.3-0.3,0.4-0.3
				C44.3,142.1,44.4,142.4,44.6,142.7z"/>
		</g>
		<g id="XMLID_2879_">
			<path id="XMLID_939_" class="st38" d="M47.6,143.9c-0.1-0.3-0.3-0.5-0.3-0.8c0-0.4,0.3-0.6,0.5-0.3c0.1,0.1,0.3,0.5,0.2,0.8
				C48.1,143.7,47.8,143.7,47.6,143.9z"/>
		</g>
		<g id="XMLID_2878_">
			<path id="XMLID_929_" class="st57" d="M11.7,140.4c-0.4-0.2-0.6-0.6-0.6-1.1c0-0.5,0.3-0.9,0.7-0.8s0.6,0.5,0.6,1.1
				C12.3,140.2,12.1,140.5,11.7,140.4z"/>
		</g>
		<g id="XMLID_2877_">
			<path id="XMLID_924_" class="st58" d="M17,139.4c0.4,0.1,0.7,0.4,0.7,1s-0.3,0.9-0.7,0.9c-0.3,0-0.5-0.4-0.5-0.9
				C16.5,139.9,16.6,139.4,17,139.4z"/>
		</g>
		<g id="XMLID_2873_">
			<path id="XMLID_921_" class="st59" d="M76.5,150.3c-0.5-1.6-0.3-3.3-1.7-3.2c-0.2,0-0.5-0.3-0.4-0.8c0-0.2,0.2-0.5,0.3-0.5
				c1.3,0.4,1.4-1.1,1.6-3.3c0.7,2.1,0.6,3.9,1.9,4c0.4,0,0.2,1.2-0.1,1.1C76.9,147.1,77.1,149,76.5,150.3z"/>
		</g>
		<g id="XMLID_2872_">
			<path id="XMLID_914_" class="st56" d="M105.6,151.4c-1.2,0.8-2.4,0.5-3.7-0.2v-0.6C103.2,150.3,104.4,150.7,105.6,151.4z"/>
		</g>
		<g id="XMLID_2295_">
			<g id="XMLID_3828_">
				<path id="XMLID_4010_" d="M-73.9,206.6c-1-4.3,1.2-4.6,0.2-9c-0.2-1.1-1.4,0.4-2.2-0.2c-0.5-0.4-0.6-1.2,0-1.5
					c0.9-0.5,1.2,0.5,2.1,0.1c0.5-0.2,0.2-0.4,0.2-1c0-1.5,0.2-2.6,0.7-3.1c0.5-0.6,1.2-0.8,2.4-0.6c0.8,0.1,1,0.2,2.1,0.5
					c0.4,0.6,0.3,1-0.2,1.5c-1-0.4-1-0.5-1.8-0.6s-0.9,0.1-1.3,0.4c-0.3,0.3-0.1,1.1-0.1,1.9c0,0.6-0.4,0.9,0.1,1.2
					c1.4,0.8,1.8-0.4,3.1,0.3c0.6,0.3,0.6,1.5,0,1.7c-1.5,0.5-2.6-2-3.2-0.5c-1.6,4.2,0.9,4.6,0.1,8.9
					C-71.9,208-73.7,207.7-73.9,206.6L-73.9,206.6z"/>
				<path id="XMLID_4007_" d="M-65.4,207.3c-0.5-5.3-0.4-5.3,0.1-10.5c0.1-0.5,0.7-0.3,0.9,0.1c0.4,0.9-0.7,1.4,0.1,1.9
					c1-1.4,2.1-2,3.3-1.9c0.4,0,1.8,0.2,1.8,0.4c0,1.5,0.4,1.5-0.1,2.9c-0.2,0.5-0.6,0.3-0.9-0.1c-0.4-0.6,0-0.8,0-1.4
					c0-0.1-0.5-0.2-0.6-0.2c-0.5,0-1.5,0.1-1.9,0.3c-0.4,0.3-0.5,1-1.6,1.7c-0.4,3.4,0.5,3.4,0,6.9C-64.4,208-65.4,207.8-65.4,207.3
					L-65.4,207.3z"/>
				<path id="XMLID_4003_" d="M-53.6,208.4c-1.2-0.1-2.1-0.6-2.7-1.6c-0.7-1.1-1-2.4-1-4.1s0.2-3,0.9-4c0.7-0.9,1.7-1.2,2.8-1.1
					s2.1,0.6,2.7,1.6c0.6,1.1,0.9,2.4,0.9,4c0,1.7-0.3,2.9-0.9,3.9C-51.6,208-52.4,208.5-53.6,208.4z M-53.7,207.1
					c0.7,0,1.4-0.3,1.7-1c0.4-0.6,0.5-1.7,0.5-2.9c0-1.3-0.3-2.3-0.6-3c-0.4-0.8-0.8-1.3-1.6-1.3c-0.7-0.1-1.4,0.3-1.8,1
					c-0.4,0.6-0.6,1.7-0.6,2.9c0,1.3,0.2,2.3,0.6,3C-54.9,206.5-54.3,207-53.7,207.1z"/>
				<path id="XMLID_4000_" d="M-47.6,208.6c-0.5-5.1-0.6-5.1-0.1-10.3c0.1-0.5,0.8-0.3,1,0.1c0.4,0.9-0.8,1.5,0,2
					c1-1.4,0.9-2.1,1.6-2c0.7,0.1,1,0.8,1.3,2.3h0.1c0.5-1.4,0.9-2,1.7-1.9c0.5,0,0.9,0.3,1.3,0.8c0.2,0.5,0.5,1.2,0.5,2.3
					c0,3.8,0.6,3.8,0.1,7.5c-0.1,0.5-1,0.4-1.2-0.1c-0.5-3.6,0.1-3.8,0.1-7.4c0-0.5-0.3-1-0.3-1.2c-0.1-0.2-0.2-0.3-0.3-0.3
					c-0.4,0-0.3,0.8-1.4,2.3c-0.4,3.3,0.6,3.3,0.1,6.6c-0.1,0.5-1,0.4-1.2-0.1c-0.5-3.5,0-3.5,0-7.1c0-0.8-0.3-1.2-0.4-1.4
					c-0.1-0.2-0.4-0.2-0.6-0.2s-0.3,0-0.5,0.4c-0.3,0.4-0.4,1-0.4,1.6c0,3.3,0.4,3.3,0,6.6C-46.6,209.2-47.5,209.1-47.6,208.6
					L-47.6,208.6z"/>
				<path id="XMLID_3997_" class="st60" d="M-30.9,209.9c-0.5-5-0.6-5.1-0.1-10.1c0.1-0.5,0.9-0.4,1.3,0.1c0.4,0.9-0.1,1-0.1,1.9
					c0-1.4,1.2-1.9,1.7-1.9c0.7,0.1,1.4,0.8,1.4,2.1c0-1.4,1.3-2,1.9-2c0.5,0,0.7,0.4,0.9,0.9c0.2,0.4,0.3,1.2,0.3,2.3
					c0,3.6,0.6,3.8,0.1,7.4c-0.1,0.5-1.2,0.4-1.3-0.1c-0.5-3.6,0-3.6,0-7.3c0-0.5,0.1-1,0-1.2c-0.1-0.2-0.3-0.3-0.5-0.4
					c-0.4,0-1.6,0.8-1.6,2.1c0,3.2,0.5,3.3,0,6.5c-0.1,0.5-0.9,0.4-1-0.1c-0.5-3.4-0.1-3.4-0.1-7c0-0.6,0.2-1.2,0.1-1.4
					c-0.1-0.2-0.2-0.3-0.4-0.3s-0.6,0.1-0.9,0.5c-0.3,0.4-0.8,1-0.8,1.5c0,3.2,0.4,3.3,0,6.5C-29.9,210.6-30.9,210.4-30.9,209.9
					L-30.9,209.9z"/>
				<path id="XMLID_3993_" class="st60" d="M-19.3,210.7c-0.5-4.3,1.5-4.6,0-8.7c-0.5-1.5-1.9,0.6-3.3,0c-0.6-0.3-0.5-1.2,0.1-1.4
					c2.1-0.5,3.2-1.7,4.1,0.2c1.9,4.6,0.4,4.9,0,10C-18.4,211.5-19.2,211.2-19.3,210.7L-19.3,210.7z M-19.3,198.5
					c-0.4-1.1-0.5-1.2,0-2.1c0.2-0.5,0.8-0.4,1,0c0.4,1.1,0,1.2-0.2,2.3C-18.6,199.1-19.1,198.9-19.3,198.5z"/>
				<path id="XMLID_3990_" class="st60" d="M-6.8,211.4c0,0.3-1.5,0.3-2.3,0.3c-1.3-0.1-2.3-0.4-3-1.4c-0.7-1-0.8-2.4-0.8-4
					c0-1.6,0.3-2.8,1-3.6c0.7-0.9,1.7-1.3,2.8-1.2c0.7,0.1,1.4,0.2,2.4,0.6c0.3,0.6,0.4,1-0.1,1.5c-1-0.5-1.6-0.8-2.2-0.8
					c-0.8-0.1-1.5,0.2-2,0.9c-0.4,0.6-0.5,1.6-0.5,2.8c0,1.2,0.1,2.1,0.5,2.9c0.5,0.8,1.3,1,2.1,1.1c0.6,0,2.1,0,2.1-0.3
					C-6.9,210.6-6.8,210.6-6.8,211.4L-6.8,211.4z"/>
				<path id="XMLID_3987_" class="st60" d="M-3.8,211.9c-0.5-4.8-0.4-4.9,0.1-9.9c0.1-0.5,0.8-0.4,1.2,0.1c0.4,0.9-0.9,1.6-0.1,1.9
					c1-1.3,1.7-2,2.8-1.9c0.4,0,1.6,0.2,1.6,0.3c0,1.4,0.4,1.5-0.1,2.8c-0.2,0.5-0.6,0.3-0.9-0.1c-0.4-0.5,0-0.6,0-1.3
					c0-0.1-0.4-0.2-0.5-0.2c-0.5,0-0.9,0.2-1.4,0.4c-0.4,0.3-1.3,0.8-1.3,1.5c0,3.2,0.5,3.2,0.1,6.4C-2.6,212.6-3.7,212.4-3.8,211.9
					L-3.8,211.9z"/>
				<path id="XMLID_3983_" class="st60" d="M6.3,213c-1-0.1-1.8-0.8-2.4-1.7c-0.6-1-0.8-2.1-0.8-3.8s0.3-2.8,0.8-3.6
					c0.6-0.9,1.4-1.3,2.4-1.2c1,0.1,1.8,0.8,2.3,1.6c0.6,1,0.8,2.1,0.8,3.8s-0.2,2.8-0.7,3.6C8.2,212.5,7.3,213.1,6.3,213L6.3,213z
					 M6.3,211.5c0.6,0,1.2-0.1,1.5-0.8c0.3-0.6,0.5-1.6,0.5-2.8c0-1.2-0.2-2.1-0.5-2.8c-0.3-0.6-0.8-1-1.5-1.1
					c-0.6,0-1.2,0.1-1.5,0.8c-0.3,0.6-0.5,1.6-0.5,2.8c0,1.2,0.3,2,0.6,2.8C5.2,211.1,5.6,211.4,6.3,211.5L6.3,211.5z"/>
				<path id="XMLID_3979_" class="st60" d="M11.1,213.1c-0.5-7.1-0.6-7.1-0.1-14.2c0-0.5,0.8-0.4,0.9,0.1c0.5,3,0.2,3.1,0.2,6.1
					c0-1.3,1.6-1.7,2.5-1.7c0.7,0.1,1.7,0.3,2.1,1.2c0.4,0.9,0.6,2.1,0.6,3.5c0,1.6-0.3,2.8-0.8,3.8s-1.2,1.4-2,1.4
					c-0.7-0.1-1.4-0.4-1.9-1.4c-0.6,0.1,0,0.6-0.4,1.2C11.7,213.7,11.1,213.7,11.1,213.1L11.1,213.1z M11.9,210.7
					c0,1,1.5,1.4,2.1,1.4c0.5,0,1.3-0.2,1.6-0.9s0.4-1.6,0.4-2.9c0-2.3-0.7-3.5-1.7-3.6c-0.7-0.1-2.1,0.6-2.1,1.8
					C12.1,208.7,11.9,208.7,11.9,210.7L11.9,210.7z"/>
				<path id="XMLID_3975_" class="st60" d="M21.4,213.7c-1-4,0.8-4.2-0.1-8.1c-0.2-1.1-1.2,0.4-2-0.2c-0.5-0.3-0.6-1.2,0-1.3
					c2.1-0.4,3.2-1.7,4.1,0.3c1.9,4.4,0.7,4.7,0,9.4C23.2,215,21.8,214.8,21.4,213.7z M21.4,202c-0.7-0.8-0.8-1.4-0.1-2.1
					c0.7-0.8,1.5-0.6,2.2,0.2c0.7,0.8,0.4,1.2-0.1,2.1C23,203.2,22.2,202.9,21.4,202z"/>
				<path id="XMLID_3972_" class="st60" d="M32.8,214.6c-1,0.1-1.4,0.3-1.9,0.2c-0.9-0.1-1.6-0.4-1.9-1c-0.3-0.5-0.3-1.5-0.3-2.9
					c0-2.3,0.6-2.4,0.1-4.6c-0.1-0.5-0.7,0.3-1-0.2c-0.4-0.5-0.5-0.9-0.1-1.3c0.3-0.4,0.8,0.6,1,0.2c0.5-0.9-0.5-1.2-0.1-2
					c0.2-0.4,0.7-0.3,1,0.2c0.4,0.9-0.7,1.4,0,2c1.3,1,1.8-0.4,3.1,0.2c0.5,0.3,0.6,1.2,0,1.4c-1.5,0.5-2.2-1.6-3-0.3
					c-1.4,1.9-0.1,2.4-0.1,4.7v1.1c0,0.2,0,0.3,0.2,0.5c0.3,0.3,0.8,0.4,1.4,0.5c0.5,0,0.6,0,1.7-0.1
					C33.6,213.5,33.3,214,32.8,214.6L32.8,214.6z"/>
				<path id="XMLID_3968_" d="M44.4,215.4c-0.5-4,1.6-4.3,0.1-8c-0.5-1.5-1.7,0.3-3.1-0.3c-0.5-0.2-0.6-1,0-1.1
					c2.1-0.4,3.2-1.7,4.2,0.3c1.9,4.2,0.5,4.6,0.1,9.2C45.5,216.2,44.5,216,44.4,215.4L44.4,215.4z M44.4,204.2
					c-0.4-1-0.4-1.2,0.1-2.1c0.2-0.4,0.6-0.3,0.9,0.2c0.4,1,0.4,1.1,0.1,2C45.3,204.8,44.7,204.6,44.4,204.2L44.4,204.2z"/>
				<path id="XMLID_3965_" d="M47.7,215.8c-0.5-4.6-0.6-4.6-0.1-9.2c0.1-0.5,0.8-0.3,1,0.1c0.4,0.8,0,0.9,0,1.7
					c0-1.3,1.4-1.8,1.8-1.7c0.5,0,1.3,0.6,1.4,1.9c0,0.1,0.1,0.1,0.1,0c0.4-1.3,0.8-1.8,1.5-1.7c0.4,0,0.4,0.2,0.5,0.6
					c0.2,0.4-0.1,1.1-0.1,2c0,3.3,0.6,3.4,0.1,6.6c-0.1,0.5-1,0.4-1-0.1c-0.5-3.2-0.1-3.3-0.1-6.6c0-0.5,0.3-0.9,0.2-1
					c0-0.2-0.5-0.4-0.6-0.4c-0.3,0-0.5,0.6-1.6,2c-0.4,2.9,0.5,3,0,5.9c-0.1,0.5-0.9,0.4-1-0.1c-0.5-3.1,0-3.1,0-6.3
					c0-0.6,0.5-1.1,0.4-1.3c0-0.2,0.2-0.3,0.1-0.3c-0.2,0-0.6,0.1-0.8,0.5c-0.2,0.3-0.8,0.9-0.8,1.4c0,3,0.5,3,0.1,5.9
					C48.5,216.4,47.7,216.3,47.7,215.8L47.7,215.8z"/>
				<path id="XMLID_3961_" d="M56,219.6c-0.5-6.2-0.6-6.2-0.1-12.4c0-0.5,0.8-0.3,1.2,0.1c0.4,0.8,0.1,0.9,0.1,1.7
					c0-1.2,1.3-1.7,2-1.6c0.7,0.1,1.4,0.3,1.8,1.2c0.4,0.9,0.6,1.9,0.6,3.3c0,1.5-0.3,2.7-0.7,3.5c-0.5,0.9-1.3,1.4-2,1.4
					c-0.6,0-1.8-0.6-1.8-1.5c0,2.1,0.3,2.3-0.1,4.3C56.8,220.4,56.1,220.1,56,219.6L56,219.6z M57,214.1c0,0.9,1.2,1.3,1.7,1.3
					s0.9-0.2,1.2-0.8c0.3-0.6,0.3-1.5,0.3-2.7c0-2.1-0.4-3.3-1.3-3.4c-0.6-0.1-1.9,0.5-1.9,1.7L57,214.1L57,214.1z"/>
				<path id="XMLID_3957_" d="M65.5,217.4c-0.9-0.1-1.6-0.6-2.1-1.5c-0.5-0.9-0.8-2-0.8-3.5c0-1.5,0.3-2.7,0.7-3.4
					c0.5-0.8,1.3-1.1,2.2-1c0.8,0.1,1.5,0.5,2,1.5c0.5,0.9,0.8,2,0.8,3.4c0,1.5-0.2,2.6-0.7,3.4C67.2,217,66.4,217.5,65.5,217.4z
					 M65.6,216c0.5,0,0.9-0.2,1.2-0.8c0.3-0.5,0.4-1.4,0.4-2.5s-0.1-1.9-0.4-2.6c-0.3-0.6-0.6-1.1-1.2-1.1c-0.5,0-1,0.2-1.4,0.8
					c-0.3,0.5-0.4,1.5-0.4,2.6c0,1.1,0.2,1.9,0.5,2.6C64.7,215.6,65,215.9,65.6,216L65.6,216z"/>
				<path id="XMLID_3954_" d="M70.5,217.5c-0.5-4.4-0.4-4.5,0.1-8.9c0.1-0.5,0.7-0.3,1,0.1c0.4,0.8-0.7,1.3,0,1.6
					c1-1.2,1.8-1.8,2.6-1.7c0.3,0,0.4,0.2,1.5,0.3c0.4,1.2,0.5,1.4,0,2.5c-0.2,0.5-0.6,0.3-1-0.1c-0.4-0.4-0.1-0.5-0.1-1.2
					c0-0.1-0.5-0.1-0.6-0.1c-0.4,0-1,0-1.4,0.3c-0.3,0.2-0.1,0.8-1.2,1.5c-0.4,2.9,0.4,2.9,0,5.8C71.6,218.1,70.6,218,70.5,217.5
					L70.5,217.5z"/>
				<path id="XMLID_3951_" d="M82,218.2c0,0.1-1.3,0.1-1.7,0c-0.8-0.1-0.9-0.3-1.3-0.9S79,216,79,214.7c0-2.1,0.8-2.4-0.1-4.3
					c-0.4-1-1.2,0.3-2-0.2c-0.5-0.3-0.5-0.9,0-1.1c0.9-0.5,1.3,0.8,2.1,0.1c0.7-0.6-0.4-1.1,0-1.9c0.3-0.4,0.7-0.4,1,0
					c0.4,0.9-0.6,1.2,0,1.9c0.7,0.8,1.3-0.4,2.1,0.2c0.5,0.3,0.4,1-0.1,1.2c-0.9,0.4-1.6-1.1-2.1-0.1c-0.9,2-0.1,2.3-0.1,4.5
					c0,0.5-0.4,0.9-0.3,1.1c0,0.2-0.2,0.4,0,0.5c0.2,0.2,0.7,0.4,1.2,0.4s1.5,0,1.5-0.2C82.1,217.7,82,217.7,82,218.2L82,218.2z"/>
				<path id="XMLID_3944_" d="M91.6,210.9c-0.8-0.3-1.3,0.1-1.8-0.6c-0.4-0.6-0.4-1.4,0.3-1.5c1-0.1,0.8,0.5,1.6,1.3
					C91.6,210.3,91.6,210.5,91.6,210.9C91.6,210.8,91.6,210.9,91.6,210.9L91.6,210.9z M92.1,211.8c-0.3,1.2,0.1,1.6-0.8,2.3
					c-0.5,0.4-0.9-0.3-0.8-1.1c0.1-1.1,0.5-1,1.3-1.8C91.8,211.5,91.9,211.7,92.1,211.8L92.1,211.8z M91.9,209.9
					c-0.2-1.3-0.6-1.4-0.2-2.7c0.2-0.5,0.9-0.4,1,0.1c0.4,1.3-0.1,1.3-0.2,2.7c-0.1-0.1-0.2-0.1-0.3-0.1
					C92.1,209.7,92,209.7,91.9,209.9z M92.7,211.2c0.7,1,1,0.9,1.2,2c0.1,0.6-0.4,1.3-0.8,0.9c-0.9-0.9-0.5-1.2-0.8-2.5
					C92.5,211.7,92.6,211.5,92.7,211.2L92.7,211.2z M92.5,210.1c0.7-0.6,0.7-1.3,1.7-1c0.7,0.2,0.7,1,0.2,1.6
					c-0.6,0.8-0.9,0.2-1.8,0.3c-0.1,0,0,0,0-0.1C92.5,210.6,92.6,210.3,92.5,210.1z"/>
				<path id="XMLID_3941_" class="st60" d="M-75.9,254.7c0-5.4-0.1-5.4-0.1-10.6h0.1c0,1-0.9,1.6,0,2c1-1.5,1.7-2.1,2.3-2.1
					c0.7,0,1.5,0.8,1.7,2.1c0,0.1,0.2,0.1,0.2,0c0.5-1.5,1.2-2.1,1.9-2c0.5,0,0.7,0.2,0.9,0.8c0.2,0.5,0.3,1.2,0.3,2.4
					c0,3.9,0.4,3.9-0.1,7.7c-0.1,0.5-0.8,0.5-0.9,0c-0.5-3.8,0-3.9,0-7.6c0-0.5-0.1-1-0.2-1.2c-0.1-0.2-0.2-0.3-0.4-0.3
					c-0.5,0-0.6,0.8-1.7,2.3c-0.4,3.4,0.6,3.4,0.1,6.9c-0.1,0.5-1,0.4-1,0c-0.5-3.6-0.1-3.6-0.1-7.3c0-0.8-0.1-1.2-0.2-1.5
					c-0.1-0.2-0.3-0.3-0.5-0.3c-0.2,0-0.9,0.1-1.3,0.5c-0.3,0.4-0.2,1-1.3,1.6c-0.5,3.4-0.1,3.4-0.1,6.9
					C-76,254.7-75.9,254.7-75.9,254.7L-75.9,254.7z"/>
				<path id="XMLID_3937_" class="st60" d="M-63.3,254.9c-0.5-4.5,1.4-4.7-0.1-9c-0.5-1.5-1.6,0.4-2.9-0.3c-0.6-0.3-0.7-1.2-0.1-1.4
					c2-0.6,3.2-1.7,4.1,0.3c1.9,4.8,0.5,5.1,0,10.4C-62.4,255.5-63.2,255.4-63.3,254.9z M-63.3,242c-0.7-0.9-0.8-1.6-0.1-2.5
					c0.7-0.8,1.4-0.5,2.1,0.2c0.7,0.9,0.6,1.3,0.2,2.4C-61.6,243.2-62.6,242.9-63.3,242L-63.3,242z"/>
				<path id="XMLID_3934_" class="st60" d="M-49.8,254.9c-1,0.3-1.9,0.6-2.7,0.6c-1.4,0-2.5-0.6-3.2-1.6s-1.3-2.3-1.3-4.1
					c0-1.7,0.4-3.1,1.2-4c0.7-1,2.1-1.4,3.5-1.3c0.8,0,1.7,0.3,2.7,0.6c0.4,0.6,0.5,0.9,0,1.5c-1-0.4-1.9-0.5-2.6-0.6
					c-0.8,0-1.7,0.2-2.2,1c-0.5,0.8-0.8,1.7-0.8,2.9c0,1.3,0.2,2.3,0.7,3c0.5,0.8,1.5,1.1,2.4,1.1c0.7,0,1.5-0.1,2.5-0.5
					C-49,253.7-49.4,254.2-49.8,254.9z"/>
				<path id="XMLID_3931_" class="st60" d="M-46.7,255.3c-1-5-0.9-5.3,0.1-10.3c0.2-1.1,1.3-0.6,2.1,0.1c0.7,0.6-0.8,1.5,0,1.9
					c1-1.4,1.6-2.1,2.8-2c0.4,0,1.4,0.1,1.4,0.3c0,1.5,0.4,1.5,0,2.9c-0.2,0.5-0.6,0.3-0.9-0.1c-0.4-0.5-0.1-0.6-0.1-1.4
					c0-0.1-0.7,0-0.9,0c-0.5,0-0.7,0-1.2,0.3c-0.4,0.3-1,0.9-1,1.7c0,3.3,0.9,3.4,0.1,6.8C-44.7,256.6-46.5,256.4-46.7,255.3
					L-46.7,255.3z"/>
				<path id="XMLID_3927_" class="st60" d="M-35.7,255.8c-1.2,0-2-0.6-2.6-1.6c-0.6-1-1-2.3-1-3.9c0-1.6,0.2-3,0.8-4
					c0.6-1,1.7-1.4,2.7-1.4c1.2,0,2.1,0.5,2.7,1.5c0.6,1,0.8,2.4,0.8,4s-0.2,2.9-0.9,3.9C-33.7,255.3-34.5,255.8-35.7,255.8
					L-35.7,255.8z M-35.7,254.3c0.6,0,1.3-0.2,1.7-1c0.4-0.6,0.5-1.7,0.5-2.9c0-1.2-0.3-2.1-0.6-2.9c-0.4-0.8-0.8-1-1.5-1.1
					c-0.6,0-1.2,0.2-1.5,1c-0.4,0.6-0.7,1.6-0.7,2.8c0,1.3,0.2,2.3,0.6,2.9C-36.9,254-36.3,254.3-35.7,254.3L-35.7,254.3z"/>
				<path id="XMLID_3923_" class="st60" d="M-30.9,255.7c-0.7-7.4-0.5-7.4,0-14.8c0-0.5,0.9-0.4,1,0.1c0.5,3.2-0.6,3.3,0,6.4
					c1-1.4,2.2-2.1,3.1-2c0.8,0,1.8,0.5,2.2,1.5c0.5,0.9,1,2,1,3.5c0,1.7-0.4,2.9-1,4c-0.6,1-1.3,1.5-2.2,1.5c-0.8,0-1.5-0.3-2-1.2
					c-0.7,0.2-0.2,0.6-0.8,1.1C-30,256.4-30.9,256.5-30.9,255.7L-30.9,255.7z M-29.8,253.2c1,1,1.8,1.3,2.4,1.3s1.5-0.2,1.8-0.9
					c0.3-0.8,0.6-1.7,0.6-3c0-2.4-1.2-3.5-2.2-3.5c-0.7,0-1.8,0.5-2.8,1.8C-30.8,250.8-30.3,251-29.8,253.2L-29.8,253.2z"/>
				<path id="XMLID_3919_" class="st60" d="M-19.3,256c-0.5-4.3,1.6-4.6,0.1-8.7c-0.5-1.5-1.8,0.5-3.2-0.1c-0.6-0.3-0.7-1.2-0.1-1.4
					c2-0.6,3.3-1.7,4.2,0.2c1.9,4.6,0.5,5,0.1,10C-18.3,256.5-19.3,256.4-19.3,256L-19.3,256z M-19.3,243.6
					c-0.4-1.1-0.4-1.2,0.1-2.1c0.2-0.5,0.6-0.4,0.8,0c0.4,1.1,0.5,1.2,0.2,2.3C-18.3,244.3-19.1,244.2-19.3,243.6z"/>
				<path id="XMLID_3916_" class="st60" d="M-6.8,256.2c0,0.1-1.3,0.1-1.9,0.1c-1,0-2-0.2-2.4-0.8c-0.4-0.5-0.8-1.5-0.8-3
					c0-2.4,0.3-2.5-0.2-4.7c-0.1-0.5-0.6,0.3-0.9-0.1c-0.4-0.5-0.5-0.9-0.1-1.4c0.3-0.4,0.8,0.6,1.2,0.1c0.5-1-0.7-1.4,0-2.1
					c0.7-0.8,1.4-0.8,2.1,0.1c0.7,0.8-0.7,1.4,0.1,2c1.3,1,1.7-0.4,3,0.2c0.6,0.3,0.6,1,0,1.2c-1.5,0.5-2.3-1.4-3.1-0.1
					c-1.4,2.1,0.1,2.6,0.1,5.1c0,0.5-0.1,1,0,1.2c0,0.2,0.1,0.4,0.2,0.6c0.3,0.3,0.7,0.4,1.4,0.4c0.5,0,1.6-0.1,1.6-0.3
					C-6.8,255.5-6.8,255.5-6.8,256.2L-6.8,256.2z"/>
				<path id="XMLID_3913_" d="M-2.6,256.3c-0.8-1.1-0.8-1.6,0-2.7c0.6-0.9,1.5-0.8,2.1,0.1c0.8,1.1,0.5,1.4,0,2.7
					C-1,257.3-2,257.1-2.6,256.3z"/>
				<path id="XMLID_3909_" d="M8.9,256.5c0-0.9,0.8-1.4,0-1.7c-1,1.4-1.8,1.8-2.7,1.8c-0.8,0-1.8-0.3-2.2-1.2
					c-0.4-0.9-0.7-2-0.7-3.5c0-1.6,0.2-2.9,0.8-3.9c0.5-1,1.7-1.4,2.5-1.4c0.7,0,1.4,0.4,2.4,1.3c0.6-2.7,0-2.8,0-5.5h0.1
					C9,249.5,8.8,249.5,8.9,256.5C8.8,256.6,8.9,256.5,8.9,256.5L8.9,256.5z M8.9,249.3c-1-0.9-1.7-1.3-2.2-1.3s-1.3,0.2-1.6,0.9
					c-0.3,0.6-0.4,1.6-0.4,2.9c0,2.3,0.8,3.4,1.8,3.5c0.7,0,1.5-0.6,2.5-1.8C9.7,251.6,9.3,251.2,8.9,249.3L8.9,249.3z"/>
				<path id="XMLID_3905_" d="M13.2,256.6c-0.5-4.1,0.9-4.3-0.1-8.3c-0.2-1.1-1.3,0.5-2.1,0c-0.5-0.3-0.5-1.1,0.1-1.4
					c1.5-0.5,2.6-1.4,3,0.1c1.5,4.5,0.5,4.8,0.1,9.5C14.1,257.2,13.2,257.1,13.2,256.6z M13.2,244.8c-0.7-0.8-0.8-1.4-0.1-2.1
					s1.5-0.8,2.2,0s0.3,1.3-0.1,2.3C14.6,245.9,13.8,245.6,13.2,244.8z"/>
				<path id="XMLID_3902_" d="M19.3,256.4c-0.3-0.6-0.6-1.1,0-1.6c1,0.6,1.8,1,2.4,1c0.5,0,0.8-0.2,1.2-0.4c0.3-0.3,0.5-0.5,0.5-1
					c0-0.5-0.3-1.1-1.2-1.4c-0.6-0.3-0.7-0.2-1.4-0.5c-1-0.5-1.6-1.4-1.6-2.6c0-0.9,0.2-1.6,0.6-2c0.4-0.4,1.4-0.5,2.2-0.5
					c0.6,0,1.4,0.1,2.4,0.4c0.3,0.6,0.4,1-0.1,1.4c-1-0.3-1.7-0.5-2.3-0.6c-0.4,0-0.8,0.2-1.2,0.4c-0.3,0.2-0.4,0.4-0.4,0.9
					c0,0.4,0.3,0.9,0.9,1.2l1.5,0.9c0.5,0.3,0.9,0.6,1.3,1c0.2,0.4,0.3,0.9,0.3,1.5c0,0.9-0.2,1.5-0.7,2c-0.5,0.5-1.2,0.8-2,0.8
					C21,256.9,20.4,256.8,19.3,256.4L19.3,256.4z"/>
				<path id="XMLID_3898_" d="M27.6,260.3c-0.5-6.4-0.5-6.4,0-12.9c0-0.5,0.9-0.4,1.2,0c0.4,0.8-0.8,1.5-0.1,1.8
					c1-1.3,0.9-1.8,1.8-1.8c0.7,0,1.2,0.3,1.7,1.2c0.4,0.9,0.5,1.9,0.5,3.4c0,1.6-0.2,2.8-0.7,3.8c-0.5,1-0.8,1.3-1.7,1.3
					c-0.7,0-0.5-0.4-1.6-1.3c-0.6,2.1,0.6,2.4,0.1,4.5C28.7,261,27.7,260.9,27.6,260.3z M28.9,254.6c1,0.9,0.6,1.3,1.3,1.3
					c0.5,0,0.6-0.3,0.9-1c0.3-0.6,0.4-1.5,0.4-2.7c0-2.3-0.2-3.4-1-3.4c-0.7,0-0.5,0.6-1.6,1.8C28,252.4,28.5,252.6,28.9,254.6
					L28.9,254.6z"/>
				<path id="XMLID_3895_" d="M36.1,257.1c-1-6,0.9-6.2,0-12.3c-0.2-1.1-1.3,0.5-2.1,0c-0.5-0.3-0.5-1.3,0-1.5
					c2-0.5,3.6-1.8,4.2,0.2c2,6.4,0.9,6.9,0,13.5C38,258.4,36.3,258.2,36.1,257.1L36.1,257.1z"/>
				<path id="XMLID_3891_" d="M45.6,256.2c-0.7,0.9-1.4,1.4-2.1,1.4c-0.6,0-1-0.3-1.5-0.9c-0.4-0.5-0.6-1.1-0.6-1.8
					c0-1,0.4-1.7,1-2.3c0.6-0.5,1.4-1,2.3-1c0.4,0,0.5,0.4,0.8,0.1c0.3-0.3,0-0.4,0-0.9c0-0.6-0.2-1.2-0.4-1.4
					c-0.2-0.3-0.4-0.4-0.8-0.4c-0.6,0-0.9,0.3-2,0.8c-0.5-0.4-0.4-0.9,0-1.5c1-0.4,1.5-0.5,2.2-0.5c0.8,0,1.8,0.3,2.1,0.8
					s0.9,1.3,0.9,2.4v3.9c0,0.5-0.5,1-0.4,1.2c0.1,0.2,0.1,0.2,0.3,0.2c0.1,0,0,0.1,0.2,0c0.1,0.5,0.2,0.5,0.1,1
					c-0.4,0.2-0.6,0.2-0.8,0.2C46.2,257.5,45.8,257,45.6,256.2L45.6,256.2z M45.6,255.1c0-1.2,0.1-1.2-0.1-2.4c0-0.2-0.1,0-0.3,0
					c-1.6,0-2.3,0.5-2.3,1.8c0,0.4-0.1,0.9,0.1,1.2c0.2,0.3,0.5,0.3,0.9,0.3S45.6,255.8,45.6,255.1L45.6,255.1z"/>
				<path id="XMLID_3888_" d="M47.5,260.8c-0.4-0.4-0.4-0.9,0-1.4c0.3-0.4,0.5,0,1,0c0.4,0,1,0,1.3-0.2c0.2-0.2,0.6-0.6,0.8-1.3
					c0.2-0.4,0.5-0.4,0.4-1c-1-4.5-2-4.3-2.7-8.8c-0.1-0.6,1-0.5,1.4,0c1.6,3.2-1.6,6.8,2,6.9c3.5,0.1,0.6-3.4,2.1-6.6
					c0.2-0.4,0.9-0.5,0.8,0c-1,5.3-1.5,5.1-3,10.3c-0.2,0.8-0.5,1.4-0.8,1.7c-0.3,0.3-1.5,0.3-2.1,0.3
					C48.1,260.9,47.9,261.2,47.5,260.8L47.5,260.8z"/>
				<path id="XMLID_3885_" d="M57,257.6c-0.7-1-0.8-1.6,0-2.5c0.7-0.9,1.4-0.8,2.1,0.1c0.7,1,0.5,1.3,0,2.5
					C58.6,258.7,57.6,258.4,57,257.6z"/>
				<path id="XMLID_3882_" d="M63.3,257.3c-0.3-0.6-0.5-1.1,0-1.5c1,0.5,1.6,1,2.2,1c0.4,0,0.7-0.2,1-0.5c0.3-0.2,0.5-0.5,0.5-1
					c0-0.5-0.4-1-1.2-1.3c-0.6-0.3-0.6-0.3-1.2-0.5c-0.9-0.4-1.4-1.3-1.4-2.4c0-0.9,0.1-1.5,0.5-1.9c0.4-0.4,0.9-0.5,1.7-0.5
					c0.5,0,0.8,0.1,1.9,0.4c0.3,0.5,0.4,0.9,0,1.3c-1-0.3-1.3-0.5-1.9-0.5c-0.4,0-0.6,0.2-0.8,0.3c-0.2,0.2-0.3,0.4-0.3,0.8
					c0,0.4,0.2,0.8,0.8,1.1c0.7,0.4,0.6,0.4,1.4,0.9c0.5,0.3,0.8,0.6,1,1c0.2,0.3,0.3,0.9,0.3,1.4c0,0.9-0.1,1.5-0.6,2
					c-0.4,0.5-1,0.6-1.9,0.6C64.8,257.9,64.3,257.8,63.3,257.3L63.3,257.3z"/>
				<path id="XMLID_3879_" d="M69.7,257.9c-0.5-6.4-0.6-6.5-0.1-13c0-0.5,0.8-0.4,0.9,0.1c0.5,1.9,0.2,2,0.2,4.1
					c0,0.9-0.8,1.4-0.1,1.7c1-1.3,1.5-1.8,2.3-1.8c1.2,0,2,1.1,2,3.1c0,3,0.4,3.1-0.1,6.1c-0.1,0.5-1,0.5-1.2,0
					c-0.5-2.8,0-2.8,0-5.7c0-0.6,0-1.2-0.1-1.5c-0.1-0.3-0.6-0.5-1-0.5c-0.5,0-0.7,0.6-1.8,1.8c-0.4,2.9,0.2,2.9-0.2,5.8
					C70.4,258.4,69.7,258.4,69.7,257.9L69.7,257.9z"/>
				<path id="XMLID_3875_" d="M79.1,258.2c-0.8,0-1.6-0.3-2.1-1.2c-0.5-0.9-0.7-2-0.7-3.4s0.3-2.6,0.7-3.4c0.5-0.9,1.2-1.3,2-1.3
					c0.8,0,1.5,0.5,2,1.4s0.8,1.9,0.8,3.3c0,1.4-0.3,2.6-0.8,3.3C80.6,257.9,79.9,258.2,79.1,258.2L79.1,258.2z M79.1,257.1
					c0.5,0,0.8-0.3,1.2-1c0.3-0.6,0.4-1.4,0.4-2.5c0-1.1-0.1-1.9-0.4-2.5c-0.3-0.6-0.6-0.9-1.2-0.9s-0.9,0.1-1.3,0.8
					c-0.3,0.6-0.3,1.5-0.3,2.6c0,1.1,0.1,1.9,0.3,2.6C78.2,256.7,78.6,257.1,79.1,257.1L79.1,257.1z"/>
				<path id="XMLID_3872_" d="M83.4,257.9c-1-4.5-0.9-4.5-1-9.1c0-0.5,0.8-0.4,0.9,0c0.8,3.6,0.5,3.8,0.9,7.5c0.5-3,0-3.2,0.9-6.1
					c0.2-0.5,0.8-0.5,1-0.1c0.9,3,0.5,3.1,1,6.1h0.1c0.4-3.4-0.1-3.5,0.7-6.9c0.1-0.4,0.8-0.3,0.8,0.1c-0.2,4.4-0.2,4.4-1.3,8.7
					c-0.1,0.5-0.8,0.6-1,0.2c-1-3.1-0.5-3.2-0.9-6.4c-0.5,3.1-0.2,3.2-1.3,6.2C84.2,258.8,83.6,258.4,83.4,257.9L83.4,257.9z"/>
				<path id="XMLID_3869_" d="M94.7,260.8c-1-0.2-2.2-1.1-2.9-2.5c-0.7-1.4-1.2-3.2-1.2-5.1c0-2,0.6-3.6,1.4-5
					c0.7-1.4,1.8-2.3,2.8-2.5c0.4,0.3,0.2,0.8-0.1,1.2c-1,0.2-1.7,1-2.1,2c-0.5,1.1-0.8,2.6-0.8,4.3c0,1.8,0.5,3.2,1,4.3
					c0.5,1.1,0.9,1.9,2,2.3C95.1,260.1,95.1,260.5,94.7,260.8z"/>
				<path id="XMLID_3866_" d="M96.8,258.4c-0.5-0.2-0.5-1,0-1.2c0.9-0.5,1.8,1.1,2,0c1-3.8,1-4,0-7.8c-0.3-1.1-1.2,0.5-2,0
					c-0.5-0.3-0.5-1.1,0-1.2c1.5-0.5,1.7-0.3,3.1,0.2c0.5,0.2,0,0.5,0,1.1l-0.1-0.1v7.8h0.1c0,0.5,0.3,0.8-0.1,1.2
					C98.8,259.7,98.2,259.1,96.8,258.4L96.8,258.4z"/>
				<path id="XMLID_3863_" d="M101,258.6c-0.5-4.3-0.5-4.3,0-8.6c0.1-0.5,0.8-0.4,1,0c0.4,0.6-0.8,1.4-0.1,1.7
					c1-1.2,1.4-1.8,1.8-1.8c0.5,0,1,0.6,1.3,1.8c0,0.1,0.1,0.1,0.1,0c0.3-1.2,0.7-1.7,1.3-1.7c0.3,0,0.5,0.2,0.7,0.5
					c0.1,0.4,0.1,1.1,0.1,1.9c0,3.1,0.5,3.1,0,6.2c-0.1,0.5-0.9,0.5-1,0c-0.5-3,0-3.1,0-6.2c0-0.4,0.2-0.8,0.1-1
					c0-0.2-0.6-0.1-0.7-0.1c-0.3,0-0.4,0.5-1.5,1.7c-0.4,2.7,0.5,2.8,0,5.5c-0.1,0.5-1,0.5-1.2,0c-0.5-2.9,0.1-3,0.1-5.9
					c0-0.5,0.6-1,0.6-1.2c0-0.2,0.1-0.2,0-0.2c-0.1,0-0.6,0.1-0.7,0.5c-0.2,0.3-0.9,0.8-0.9,1.3c0,2.8,0.5,2.8,0,5.5
					C101.9,259.2,101.1,259.1,101,258.6L101,258.6z"/>
				<path id="XMLID_3859_" d="M112,257.9c-0.6,0.8-1.2,1.1-1.8,1.1c-0.5,0-0.9-0.2-1.3-0.6c-0.3-0.4-0.4-1.1-0.4-1.7
					c0-0.9,0.3-1.5,0.7-2c0.5-0.5,0.8-0.8,1.7-0.8c0.2,0,0.2,0.1,0.3-0.1c0.2-0.3,0.1-0.3,0.1-0.6c0-0.6,0-1-0.1-1.3
					c-0.2-0.2-0.6-0.4-1-0.4c-0.5,0-0.9,0.2-2,0.8c-0.5-0.4-0.3-0.8,0-1.3c1-0.3,1.7-0.5,2.3-0.5c0.7,0,1.3,0.2,1.5,0.6
					c0.3,0.4,0.4,1.2,0.4,2.3v3.5c0,0.5,0.2,0.9,0.3,1.1c0.1,0.2,0.3,0.2,0.4,0.2c0.1,0,0.2,0,0.4-0.1c0.1,0.4,0.1,0.4,0,1
					c-0.3,0.1-0.5,0.3-0.7,0.3C112.5,259,112.2,258.6,112,257.9L112,257.9z M111.3,256.8c0-1.1,0.1-1.1,0.1-2.1h-0.1
					c-1.4,0-1.9,0.4-1.9,1.6c0,0.4,0.1,0.8,0.3,1.1c0.2,0.2,0.3,0.4,0.5,0.4C110.7,257.8,111.3,257.3,111.3,256.8z"/>
				<path id="XMLID_3855_" d="M115,261.7c-0.2-0.6-0.2-0.8,0.1-1.3c0.6,0.4,1,0.4,1.6,0.5c1,0,1.5-0.6,1.5-2.1
					c0-0.8,0.6-1.1,0.1-1.6c-0.4,1.2-1,1.7-1.8,1.7c-0.6,0-1.2-0.3-1.5-1.1s-0.4-1.7-0.4-3c0-1.4,0-2.5,0.4-3.3
					c0.4-0.9,0.7-1.3,1.4-1.2c0.5,0,1.2,0.4,1.2,1.3c0-0.4-0.2-0.6,0.1-1c0.4-0.3,0.9-0.5,0.9,0c0.5,3.3,0,3.3,0,6.6
					c0,1.1,0.2,1.9,0.1,2.5c-0.1,0.5-0.1,1.1-0.3,1.5c-0.4,0.6-1,0.9-1.9,0.9C116.1,262.1,115.6,262,115,261.7L115,261.7z
					 M117.7,256v-3.3c0-0.8-0.6-1.1-1-1.1s-0.6,0.2-0.8,0.8c-0.2,0.5-0.4,1.4-0.4,2.4c0,0.9,0.2,1.6,0.4,2.1
					c0.2,0.5,0.3,0.8,0.6,0.8C117.1,257.6,117.7,257,117.7,256L117.7,256z"/>
				<path id="XMLID_3851_" d="M124.9,258.7c0,0.3-1,0.5-1.6,0.5c-0.9,0-1.5-0.4-2-1.2c-0.5-0.8-0.8-1.8-0.8-3.1
					c0-1.3,0.4-2.4,0.8-3.1c0.4-0.9,1-1.3,1.7-1.3c0.7,0,1.2,0.4,1.5,1.2c0.3,0.8,0.4,1.8,0.4,3.2c0,0.2,0.3,0.4,0.1,0.5
					c-1.7,0.2-2-1-3.5-0.1c0.1,1.9,0.6,2.9,1.9,2.9c0.5,0,1.7-0.1,1.7-0.5C124.8,258.1,124.9,258.2,124.9,258.7z M121.6,254.1
					c1.2,0.4,1.3,0,2.4,0c0.1,0,0.1-0.1,0.1-0.2c0-1.5-0.3-2.1-1.2-2.3c-0.4,0-0.7,0.1-0.9,0.5C121.7,252.6,121.6,253.4,121.6,254.1
					z"/>
				<path id="XMLID_3848_" d="M127.1,259.2c-0.7-0.9-0.7-1.5,0-2.3s1.4-0.8,2.1,0c0.7,0.9,0.4,1.2,0,2.3
					C128.7,260.2,127.9,259.9,127.1,259.2z"/>
				<path id="XMLID_3845_" d="M135.6,249.9v1.3c0-0.4-0.8-0.8-1.4-0.8c-0.8,0-0.9,0.5-0.9,1.4c0,0.3,0.2,0.6,0.3,0.9
					c0.1,0.2,0.4,0.5,0.8,0.8c0.3,0.2,0.3,0.2,0.6,0.3c0.3,0.2,0.3,0.1,0.6,0.2c0.8,0.5,1.3,1.4,1.3,2.6c0,0.9-0.2,1.6-0.6,2.1
					c-0.4,0.5-1.2,0.6-1.9,0.6c-0.5,0-0.9-0.1-2-0.5c-0.3-0.6-0.5-1,0-1.4c1,0.6,1.5,0.9,2,0.9c0.4,0,0.8,0,1.2-0.3
					c0.3-0.3,0.4-0.8,0.4-1.2c0-0.3-0.1-0.8-0.2-1c-0.2-0.2-0.6-0.3-1-0.6c-0.3-0.2-0.2-0.3-0.5-0.5c-0.6-0.4-1-0.8-1.3-1.1
					c-0.2-0.4-0.4-0.9-0.4-1.5c0-0.9,0.2-1.6,0.5-2c0.3-0.4,0.5-0.6,1.2-0.6C134.7,249.4,135.6,249.6,135.6,249.9z"/>
				<path id="XMLID_3842_" d="M137.5,259.4c0-4.8-0.5-4.8,0.1-9.6c0.1-0.6,1-0.3,1.3,0.3c1.2,3,0.6,3.1,1.3,6.2
					c0.7-3.1,0.1-3.3,1.4-6.2c0.2-0.6,1.2-0.9,1.3-0.2c0.6,4.7,0.5,4.8,0,9.5c-0.1,0.5-0.9,0.5-1,0c-0.5-4.3-0.1-4.3,0-8.6h0.1
					c-0.6,3.2-0.3,3.2-1.3,6.3c-0.1,0.4-0.7,0.8-0.8,0.4c-1-2.7-0.2-3-1.3-5.7c-0.1-0.4-0.8-0.4-0.8,0
					C137.2,255.6,137.6,255.6,137.5,259.4L137.5,259.4z"/>
				<path id="XMLID_3839_" d="M143.9,259.5c-0.5-0.1-0.5-1,0-1.2c0.9-0.4,1.9,1.2,2.2,0.1c1-3.5,0.9-3.9-0.1-7.4
					c-0.3-1.1-1.3,0.5-2.1,0c-0.5-0.2-0.5-1,0-1.1c2.1-0.4,2.2-0.5,4.2,0.1c0.5,0.1,0.3,0.6,0,1.1c-0.4,0.3-0.8-0.5-0.9,0
					c-0.5,3.6-0.5,3.6,0,7.3c0.1,0.5,0.7-0.4,1,0c0.4,0.4,0.4,0.9,0,1.2C146.4,260.9,145.9,260.1,143.9,259.5L143.9,259.5z"/>
				<path id="XMLID_3836_" d="M150.2,259.6c-1.5-4.5-0.5-4.7,0-9.4c0.1-0.5,0.8-0.5,0.9,0c0.5,4.2-0.9,4.3,0.1,8.4
					c0.2,1.1,1.2-0.4,2.1,0c0.4,0.2,0.3,0.8,0,1.2C152,261,150.7,261.1,150.2,259.6z"/>
				<path id="XMLID_3833_" d="M155.4,259.7c-1.9-4.3-2-5.1,0-9.4c0.8-1.9,2.2-0.4,4.2,0.1c0.5,0.1,0.5,1,0,1.1
					c-1.5,0.4-2-1.3-3.1-0.2c-1,1-0.7,1.7,0.1,2.9c0.6,0.9,1.2-0.4,2.1,0.1c0.4,0.2,0.5,1,0,1.2c-0.9,0.4-1.6-1.1-2.2-0.1
					c-0.9,1.4-1,2.1,0.1,3.3c1,1.2,1.6-0.3,3,0.2c0.5,0.2,0.5,0.8,0.1,1.1C157.9,261.4,156.3,261.7,155.4,259.7L155.4,259.7z"/>
				<path id="XMLID_3830_" d="M160.6,248.3c1,0.2,1.3,1.1,1.9,2.4s0.8,2.8,0.8,4.6s0.1,3.4-0.5,4.6c-0.6,1.3-1,1.8-2.1,2
					c-0.4-0.3-0.5-0.6-0.1-1c1-0.2,1.2-0.8,1.5-1.7c0.4-1,0.3-2.3,0.3-4c0-1.6,0-2.9-0.3-3.9c-0.4-1.1-0.4-1.7-1.5-1.9
					C160.2,249.1,160.2,248.7,160.6,248.3L160.6,248.3z"/>
			</g>
		</g>
		<g id="XMLID_2294_">
			<path id="XMLID_128_" class="st61" d="M197.4,427.1l-325.6,83.2V56.9"/>
		</g>
		<path id="XMLID_1824_" class="st61" d="M204.3,121"/>
	</g>
</g>
<path class="st62" d="M81.4,224.1c-9.7,0-17.6,7.8-17.6,17.6v212.7c0,9.8,7.8,17.6,17.6,17.6h268.3c9.7,0,17.6-7.8,17.6-17.6V241.7
	c0-9.8-7.8-17.6-17.6-17.6H81.4z M87.9,417.4c6.5,0,11.7,5.6,11.7,12.3c0,6.9-5.2,12.3-11.7,12.3c-6.5,0-11.7-5.6-11.7-12.3
	C76.2,423,81.4,417.4,87.9,417.4z M149.4,417.4c6.5,0,11.7,5.6,11.7,12.3c0,6.9-5.2,12.3-11.7,12.3c-6.5,0-11.7-5.6-11.7-12.3
	C137.6,423,142.9,417.4,149.4,417.4z M216,417.4c6.5,0,11.7,5.6,11.7,12.3c0,6.9-5.2,12.3-11.7,12.3c-6.5,0-11.7-5.6-11.7-12.3
	C204.1,423,209.5,417.4,216,417.4z M283.3,417.4c6.5,0,11.7,5.6,11.7,12.3c0,6.9-5.2,12.3-11.7,12.3s-11.7-5.6-11.7-12.3
	C271.5,423,276.8,417.4,283.3,417.4z M344.2,417.4c6.5,0,11.7,5.6,11.7,12.3c0,6.9-5.2,12.3-11.7,12.3s-11.7-5.6-11.7-12.3
	C332.3,423,337.7,417.4,344.2,417.4z"/>
<g>
	<g class="st63">
		<path d="M217.4,221.6l-5.3,7.2l-3.1,5.8l-4.4,4.4l-4.4,4.4l-8,0.6l-1.7,7.3l-4.8,4l-4.3,4.5l-3.3,5.6L173,269l-4.8,4.1l-5.8,3
			l-5.3,3.4l-4.6,4.3l-3.8,5.1l-2,7.1l-6,2.3l0.5-5.8l-1.9-6.2l-0.2-6.2l-0.2-6.2l0.4-6.2l-0.7-6.2l1.9-6.2V249l-2.3-6.2l-0.2-6.2
			l0.9-6.2l3-8.9l-3.9,9l-4.4,4.5l-8,0.6L124,243l-7.5,1.1l-2.8,6.2l-4.9,4l-4.2,4.7l-3.7,5.3l-6.8,1.8l-2.9,6.1l-3.9,5.1l-5.2,3.5
			l-5.2,3.6l-2.6,6.4l-4.4,4.6l-6,3l-2.1,6.5l2.2,6.5l2.7,6.5l-3.9,6.5l-0.3,6.5l0.1,6.5l2.9,6.5l1.7,6.5l-2.8,6.5l-2.9,6.5l0.4,6.5
			l4.9,6.5l-4.9,6.5l-0.5,6.5l4.7,6.4l-3.5,6.5l-0.8,6.5l4.8,6.5l-0.5,6.5l-1,6.5l-0.5,6.5l0.7,6.5l-0.9,6.5l-1,6.5l2.6,6.6l5.2,4.1
			l3.6,6.8h7.1l6.3,0.1l6.3,1.7l6.3-0.4l6.3,1.4l6.3-1.8l6.3,2l6.3-1.3l6.3-1.1l6.3,0.2l6.3,0.8l6.3,1.5l6.3-5.6l6.3,0.8l6.3,4
			l6.3-3.6l6.3,2.4l6.3-3.8l6.3,5.6l6.3-1.4l6.3-3l6.3-0.1l6.3,4.9h6.3l6.3-2.6l6.3-0.2l6.3-2.3l6.3,5l6.3-1.8l6.3-0.4l6.3,0.9
			l6.3-2.6l6.3,1.2l6.3-2.3l6.3,4l6.3-4.9l6.3,0.9l6.3,0.5l6.3-0.5l6.3-0.1l6.3,3l6.3,1.3l6.3-3.3l6.3-0.3l5.7-2.5l5-2.8l6.9-3.3
			l-1.2-7.4l-1.7-6.5l5.1-6.5l-2.8-6.5l0.4-6.5l-1.9-6.5l4.4-6.5l-0.4-6.5l-3.2-6.5l0.6-6.5l-0.8-6.5l1.4-6.5l1.9-6.5l-4.2-6.5
			l1.6-6.5l-1.3-6.4l2.8-6.5l1.6-6.5l-4.9-6.5l2.7-6.5l-0.1-6.5l0.8-6.5l-1.3-6.5l3.3-6.5l-5.4-6.5l0.5-6.2l1.5-6.2l-2-6.2l3.8-6.2
			l-0.4-6.2l-2.4-6.2l0.2-6.2l3.7-6.2l-3.8-6.2l0.9-7.3l-2.9-4.1l-3.7,4.7l-6.4,2.8l-3.6,5.8l-6.7,2.4l-4.7,4.6l-2.9,6.4l-5,2
			l1.9-4.7l-5.2-6l2.7-6.3l0.5-6.2l-0.4-6.2l-0.7-7.2l-3.1,7.3l-4.2,4.9l-4.8,4.3l-6.9,2.1l-3.9,5.3l-5.4,3.6l-4.3,4.8l-2.6,2.9
			l0.5-3.5l-0.4-6.2l0.4-6.2l-4.1-6.2l2.4-6.3l0.2-7.5l-5.7,4.9l-4.1,4.7l-4.9,3.9l-5.3,3.4l-1.7,7.4l-4.8,4l-3.2,5.7l-6.5,2.1
			l-4.8,4l-5.7,3.1l-2.2,6.9l-3.3,5.6l-6.7,1.9l-4.8,4.1l-6,2.7l-0.5,8.7l-6.2,1.7l1.6-6.1l-1-6.8l1.8-6.8l-2.4-6.8l2.3-6.8
			l-2.3-6.8l-0.5-6.8l3-6.8l-2.6-6.8l1.9-6.5L217.4,221.6z M87.9,420.1l6.2-1.5l6.2,3.8l1.9,7.4l-1.8,7.4l-7.8,1.1l-4.7,5.4
			l-6.4-2.5l-4.8-4.8l-3.2-6.6l2.8-7l5.1-4.7L87.9,420.1z M149.4,420.1l6.2-1.5l6.2,3.8l1.9,7.4l-1.8,7.4l-7.8,1.1l-4.7,5.4
			l-6.4-2.5l-4.8-4.8l-3.2-6.6l2.8-7l5.1-4.7L149.4,420.1z M216,420.1l6.2-1.5l6.2,3.8l1.9,7.4l-1.8,7.4l-7.8,1.1l-4.7,5.4l-6.4-2.5
			l-4.8-4.8l-3.2-6.6l2.8-7l5.1-4.7L216,420.1z M283.3,420.1l6.2-1.5l6.2,3.8l1.9,7.4l-1.8,7.4l-7.8,1.1l-4.7,5.4l-6.4-2.5l-4.8-4.8
			l-3.2-6.6l2.8-7l5.1-4.7L283.3,420.1z M344.2,420.1l6.2-1.5l6.2,3.8l1.9,7.4l-1.8,7.4l-7.8,1.1l-4.7,5.4l-6.4-2.5l-4.8-4.8
			l-3.2-6.6l2.8-7l5.1-4.7L344.2,420.1z"/>
	</g>
</g>
<g>
	<path class="st9" d="M197,254.6c9.3,0,9.3-0.2,18.5-0.2s9.3,0.2,18.5,0.2c4.6,0,7.5,3.6,7.5,8.6c0,6.2,1.5,6.2,1.5,12.3
		c0,4.9-4.4,9.4-9,9.4c-9.3,0-9.3,0.6-18.5,0.6s-9.3-1.1-18.5-1.1c-4.6,0-8.3-4.1-8.3-9c0-6.2,0.6-6.2,0.6-12.3
		C189.3,258.2,192.3,254.6,197,254.6z"/>
	<path class="st64" d="M197,254.6c9.3,0,9.3-0.2,18.5-0.2s9.3,0.2,18.5,0.2c4.6,0,7.5,3.6,7.5,8.6c0,6.2,1.5,6.2,1.5,12.3
		c0,4.9-4.4,9.4-9,9.4c-9.3,0-9.3,0.6-18.5,0.6s-9.3-1.1-18.5-1.1c-4.6,0-8.3-4.1-8.3-9c0-6.2,0.6-6.2,0.6-12.3
		C189.3,258.2,192.3,254.6,197,254.6z"/>
</g>
<path class="st65" d="M201.4,259.8h28.4c3.6,0,6.4,2.6,6.4,5.7v7.7c0,3.1-2.8,5.7-6.4,5.7h-28.4c-3.6,0-6.4-2.6-6.4-5.7v-7.7
	C194.9,262.4,197.9,259.8,201.4,259.8z"/>
<ellipse class="st9" cx="203.7" cy="269.5" rx="3.5" ry="3.5"/>
<ellipse class="st9" cx="227.4" cy="269.5" rx="3.5" ry="3.5"/>
<g>
	<polygon class="st66" points="74,224.4 109.3,223.1 144.7,225.3 180.2,223.4 215.6,223.6 250.9,220.8 286.4,227.6 321.8,229.6 
		357.2,226.1 367.6,234.8 370.2,272.6 364,310.3 368.6,347.9 370.7,385.7 368.9,423.4 365.3,461.1 357.2,472.3 321.8,476.8 
		286.4,467.1 251,468.3 215.6,471.6 180.2,471.5 144.7,471.1 109.3,466.4 74,466.4 62.8,461.1 58.8,423.4 58.8,385.7 58.6,348 
		68.8,310.3 60.9,272.6 62,234.8 	"/>
</g>
<path class="st67" d="M83.4,330.2h28.1c1.9,0,3.3,1.6,3.3,3.6V361c0,2-1.5,3.6-3.3,3.6H83.4c-1.9,0-3.3-1.6-3.3-3.6v-27.1
	C79.9,331.8,81.5,330.2,83.4,330.2z"/>
<ellipse class="st68" cx="97.4" cy="347.4" rx="10.9" ry="10.8"/>
<path class="st67" d="M322,330.2h28.1c1.9,0,3.3,1.6,3.3,3.6V361c0,2-1.5,3.6-3.3,3.6H322c-1.9,0-3.3-1.6-3.3-3.6v-27.1
	C318.6,331.8,320.2,330.2,322,330.2z"/>
<ellipse class="st68" cx="336.1" cy="347.4" rx="10.9" ry="10.8"/>
<path class="st69" d="M70.6,439.7h6.5c9.5,7.5,15.2,4.8,20.1,0h40.6c7.6,3.3,15.3,8.3,23.1,0h45.4c6.7,9.3,13.9,5.5,21.2,0H273
	c7.5,9.6,14.9,9.9,22.1,0h38.7c6,6.5,12.8,6.5,20.4,0h7.1c1.7,0,2.9,1.4,2.9,3V467c0,1.7-1.4,3-2.9,3H70.6c-1.7,0-2.9-1.4-2.9-3
	v-24.3C67.7,441,68.9,439.7,70.6,439.7L70.6,439.7z"/>
<path class="st70" d="M110.4,440v29.1 M118.5,440v29.1 M126.6,440v29.1 M171.3,440v29.1 M179,440v29.1 M185.7,440v29.1 M193.3,440
	v29.1 M239.2,440v29.1 M246.4,440v29.1 M253.6,440v29.1 M261.6,440v29.1 M306.3,440v29.1 M314.2,440v29.1 M322.2,440v29.1"/>
<ellipse class="st54" cx="87.8" cy="428.8" rx="12.5" ry="13"/>
<ellipse class="st54" cx="149.5" cy="429.8" rx="12.5" ry="13"/>
<ellipse class="st54" cx="216.5" cy="429.3" rx="12.5" ry="13"/>
<ellipse class="st54" cx="283" cy="429.8" rx="12.5" ry="13"/>
<ellipse class="st54" cx="344" cy="430" rx="12.5" ry="13"/>
<path class="st69" d="M87.9,414.2c-7.8,0-14.1,6.8-14.1,15v40.6H102v-40.6C102,420.8,95.7,414.2,87.9,414.2L87.9,414.2z M87.9,417.4
	c6.5,0,11.7,5.6,11.7,12.3c0,6.9-5.2,12.3-11.7,12.3c-6.5,0-11.7-5.6-11.7-12.3C76.2,423,81.4,417.4,87.9,417.4z M149.3,414.2
	c-7.8,0-14.1,6.8-14.1,15v40.6h28.3v-40.6C163.5,420.8,157.2,414.2,149.3,414.2z M149.4,417.4c6.5,0,11.7,5.6,11.7,12.3
	c0,6.9-5.2,12.3-11.7,12.3c-6.5,0-11.7-5.6-11.7-12.3C137.6,423,142.9,417.4,149.4,417.4z M215.9,414.2c-7.8,0-14.1,6.8-14.1,15
	v40.6H230v-40.6C230,420.8,223.7,414.2,215.9,414.2L215.9,414.2z M216,417.4c6.5,0,11.7,5.6,11.7,12.3c0,6.9-5.2,12.3-11.7,12.3
	c-6.5,0-11.7-5.6-11.7-12.3C204.1,423,209.5,417.4,216,417.4z M283.3,414.2c-7.8,0-14.1,6.8-14.1,15v40.6h28.3v-40.6
	C297.4,420.8,291.1,414.2,283.3,414.2L283.3,414.2z M283.3,417.4c6.5,0,11.7,5.6,11.7,12.3c0,6.9-5.2,12.3-11.7,12.3
	s-11.7-5.6-11.7-12.3C271.5,423,276.8,417.4,283.3,417.4z M344.1,414.2c-7.8,0-14.1,6.8-14.1,15v40.6h28.3v-40.6
	C358.2,420.8,351.9,414.2,344.1,414.2L344.1,414.2z M344.2,417.4c6.5,0,11.7,5.6,11.7,12.3c0,6.9-5.2,12.3-11.7,12.3
	s-11.7-5.6-11.7-12.3C332.3,423,337.7,417.4,344.2,417.4z"/>
<g>
	<polygon class="st71" points="164.4,294.5 184.9,290.5 205.3,292.8 225.8,293.4 246.3,293.1 266.7,293.3 277.8,302.3 278.1,321.4 
		277.7,340.5 275.1,359.7 275.7,378.8 274.7,398 266.7,406.7 246.3,405.5 225.8,406.6 205.3,406.9 184.9,406.4 164.4,409.7 
		155.4,398 156.2,378.8 155.9,359.7 155.5,340.5 156.1,321.4 157.1,302.3 	"/>
	<polygon class="st72" points="164.4,294.5 184.9,290.5 205.3,292.8 225.8,293.4 246.3,293.1 266.7,293.3 277.8,302.3 278.1,321.4 
		277.7,340.5 275.1,359.7 275.7,378.8 274.7,398 266.7,406.7 246.3,405.5 225.8,406.6 205.3,406.9 184.9,406.4 164.4,409.7 
		155.4,398 156.2,378.8 155.9,359.7 155.5,340.5 156.1,321.4 157.1,302.3 	"/>
</g>
<ellipse class="st73" cx="168.1" cy="305" rx="3.5" ry="3.5"/>
<ellipse class="st73" cx="191.8" cy="305" rx="3.5" ry="3.5"/>
<ellipse class="st73" cx="215.6" cy="305" rx="3.5" ry="3.5"/>
<ellipse class="st73" cx="239.3" cy="305" rx="3.5" ry="3.5"/>
<ellipse class="st73" cx="263.1" cy="305" rx="3.5" ry="3.5"/>
<ellipse class="st73" cx="168.1" cy="327.6" rx="3.5" ry="3.5"/>
<ellipse class="st73" cx="191.8" cy="327.6" rx="3.5" ry="3.5"/>
<ellipse class="st73" cx="215.6" cy="327.6" rx="3.5" ry="3.5"/>
<ellipse class="st73" cx="239.3" cy="327.6" rx="3.5" ry="3.5"/>
<ellipse class="st73" cx="263.1" cy="327.6" rx="3.5" ry="3.5"/>
<g>
	<ellipse class="st73" cx="168.1" cy="350.2" rx="3.5" ry="3.5"/>
	<ellipse class="st73" cx="191.8" cy="350.2" rx="3.5" ry="3.5"/>
	<ellipse class="st73" cx="215.6" cy="350.2" rx="3.5" ry="3.5"/>
	<ellipse class="st73" cx="239.3" cy="350.2" rx="3.5" ry="3.5"/>
	<ellipse class="st73" cx="263.1" cy="350.2" rx="3.5" ry="3.5"/>
</g>
<g>
	<ellipse class="st73" cx="168.1" cy="372.7" rx="3.5" ry="3.5"/>
	<ellipse class="st73" cx="191.8" cy="372.7" rx="3.5" ry="3.5"/>
	<ellipse class="st73" cx="215.6" cy="372.7" rx="3.5" ry="3.5"/>
	<ellipse class="st73" cx="239.3" cy="372.7" rx="3.5" ry="3.5"/>
	<ellipse class="st73" cx="263.1" cy="372.7" rx="3.5" ry="3.5"/>
</g>
<g>
	<ellipse class="st73" cx="168.1" cy="395.3" rx="3.5" ry="3.5"/>
	<ellipse class="st73" cx="191.8" cy="395.3" rx="3.5" ry="3.5"/>
	<ellipse class="st73" cx="215.6" cy="395.3" rx="3.5" ry="3.5"/>
	<ellipse class="st73" cx="239.3" cy="395.3" rx="3.5" ry="3.5"/>
	<ellipse class="st73" cx="263.1" cy="395.3" rx="3.5" ry="3.5"/>
</g>
<g>
	<polygon class="st66" points="73,222.9 356.3,226.7 368.1,235.4 366.1,461.6 356.3,474.6 73,475.3 62.6,461.6 61,235.4 	"/>
</g>
</svg>
